<svg width="28" height="28" viewBox="0 0 28 28" fill="none" xmlns="http://www.w3.org/2000/svg">
<g id="fi_3236907">
<path id="Vector" d="M14.0002 3.00977C8.88569 3.00977 4.32281 6.68589 3.25293 11.6917C2.71841 14.193 3.07849 16.8527 4.27101 19.1159C5.41873 21.294 7.30033 23.0544 9.55153 24.052C11.8932 25.09 14.5815 25.2709 17.0427 24.563C19.4171 23.8804 21.5224 22.3821 22.9557 20.3709C25.9525 16.1661 25.5519 10.2598 22.0261 6.49213C19.9597 4.28405 17.0247 3.00977 14.0002 3.00977ZM19.2723 14.5869L16.2763 17.6552C15.5178 18.4322 14.3188 17.255 15.0743 16.4817L16.586 14.9336H9.42189C8.91313 14.9336 8.48865 14.5088 8.48865 14.0003C8.48865 13.4918 8.91341 13.0671 9.42189 13.0671H16.5501L15.0085 11.5257C14.2424 10.7596 15.4301 9.57157 16.1962 10.3376L19.2653 13.4064C19.5907 13.7315 19.5937 14.2579 19.2723 14.5869Z" fill="url(#paint0_linear_2106_2827)"/>
</g>
<defs>
<linearGradient id="paint0_linear_2106_2827" x1="13.987" y1="3.00977" x2="13.987" y2="24.9879" gradientUnits="userSpaceOnUse">
<stop stop-color="#D620FF"/>
<stop offset="1" stop-color="#0D6CFF"/>
</linearGradient>
</defs>
</svg>
