<svg width="12" height="12" viewBox="0 0 12 12" fill="none" xmlns="http://www.w3.org/2000/svg">
<g clip-path="url(#clip0_0_3912)">
<path d="M9.48378 7.4338C9.23811 7.178 8.94179 7.04124 8.62774 7.04124C8.31622 7.04124 8.01736 7.17547 7.76156 7.43127L6.96123 8.22907C6.89538 8.19361 6.82953 8.16068 6.76622 8.12776C6.67504 8.08217 6.58893 8.03911 6.51548 7.99353C5.76581 7.51738 5.08451 6.89687 4.43108 6.09401C4.1145 5.69385 3.90175 5.357 3.74726 5.01509C3.95494 4.82514 4.14742 4.62759 4.33484 4.43764C4.40576 4.36672 4.47667 4.29328 4.54759 4.22236C5.07945 3.6905 5.07945 3.00161 4.54759 2.46975L3.85616 1.77832C3.77765 1.69981 3.6966 1.61876 3.62062 1.53772C3.46866 1.38069 3.3091 1.2186 3.14448 1.06664C2.89881 0.823503 2.60502 0.694336 2.29603 0.694336C1.98704 0.694336 1.68819 0.823503 1.43492 1.06664C1.43239 1.06917 1.43239 1.06917 1.42985 1.07171L0.568742 1.94042C0.244558 2.2646 0.0596726 2.6597 0.0191496 3.11811C-0.0416347 3.85766 0.176176 4.54655 0.343333 4.99736C0.753628 6.10415 1.36654 7.12988 2.28084 8.22907C3.39015 9.55366 4.72487 10.5997 6.24955 11.3367C6.83207 11.6127 7.6096 11.9394 8.47831 11.9952C8.5315 11.9977 8.58721 12.0002 8.63787 12.0002C9.22292 12.0002 9.71426 11.79 10.0992 11.3721C10.1018 11.3671 10.1068 11.3645 10.1094 11.3595C10.2411 11.1999 10.393 11.0555 10.5526 10.901C10.6615 10.7972 10.7729 10.6883 10.8818 10.5743C11.1326 10.3135 11.2643 10.0095 11.2643 9.69802C11.2643 9.38397 11.13 9.08258 10.8742 8.82931L9.48378 7.4338ZM10.3905 10.1007C10.388 10.1007 10.388 10.1033 10.3905 10.1007C10.2917 10.2071 10.1904 10.3033 10.0815 10.4097C9.91687 10.5667 9.74972 10.7314 9.59269 10.9162C9.33689 11.1898 9.0355 11.3189 8.6404 11.3189C8.60241 11.3189 8.56189 11.3189 8.5239 11.3164C7.77169 11.2683 7.07267 10.9745 6.54841 10.7238C5.11491 10.0298 3.85616 9.04459 2.81017 7.79598C1.94652 6.75504 1.36907 5.79262 0.986634 4.75929C0.751095 4.12865 0.664984 3.63731 0.702974 3.17383C0.728301 2.87751 0.842272 2.63184 1.05248 2.42163L1.91613 1.55798C2.04023 1.44148 2.17193 1.37816 2.3011 1.37816C2.46066 1.37816 2.58982 1.4744 2.67087 1.55545C2.6734 1.55798 2.67593 1.56051 2.67847 1.56305C2.83296 1.70741 2.97986 1.85684 3.13435 2.0164C3.21286 2.09744 3.29391 2.17849 3.37495 2.26207L4.06638 2.95349C4.33484 3.22195 4.33484 3.47016 4.06638 3.73862C3.99293 3.81207 3.92201 3.88552 3.84857 3.95643C3.63582 4.17424 3.43321 4.37686 3.21286 4.5744C3.2078 4.57947 3.20273 4.582 3.2002 4.58707C2.98239 4.80488 3.02291 5.01762 3.0685 5.16199C3.07103 5.16959 3.07357 5.17718 3.0761 5.18478C3.25592 5.6204 3.50919 6.0307 3.89415 6.51951L3.89669 6.52204C4.59571 7.38315 5.33272 8.05431 6.14571 8.56844C6.24955 8.63429 6.35592 8.68748 6.45723 8.73813C6.54841 8.78372 6.63452 8.82678 6.70796 8.87237C6.71809 8.87743 6.72823 8.88503 6.73836 8.8901C6.82447 8.93315 6.90551 8.95341 6.98909 8.95341C7.1993 8.95341 7.331 8.82171 7.37406 8.77866L8.24024 7.91248C8.32635 7.82637 8.46311 7.72253 8.62267 7.72253C8.7797 7.72253 8.90886 7.8213 8.98738 7.90741C8.98991 7.90995 8.98991 7.90995 8.99244 7.91248L10.388 9.30799C10.6488 9.56632 10.6488 9.83225 10.3905 10.1007Z" fill="#0B0B2C"/>
<path d="M6.48511 2.85454C7.14867 2.96598 7.75145 3.28003 8.23266 3.76124C8.71387 4.24245 9.02539 4.84523 9.13936 5.50879C9.16722 5.67595 9.31159 5.79245 9.47621 5.79245C9.49647 5.79245 9.5142 5.78992 9.53446 5.78739C9.72188 5.75699 9.84598 5.57971 9.81559 5.39229C9.67882 4.58943 9.29892 3.85748 8.71894 3.2775C8.13895 2.69751 7.40701 2.31761 6.60415 2.18085C6.41673 2.15045 6.24197 2.27456 6.20905 2.45944C6.17612 2.64433 6.29769 2.82415 6.48511 2.85454Z" fill="#0B0B2C"/>
<path d="M11.9861 5.29345C11.7607 3.97139 11.1377 2.76837 10.1803 1.81102C9.22295 0.853661 8.01992 0.230621 6.69786 0.00521263C6.51298 -0.0277122 6.33822 0.0989219 6.3053 0.283808C6.2749 0.471226 6.399 0.645981 6.58642 0.678906C7.76665 0.878988 8.84304 1.43871 9.69909 2.29222C10.5551 3.14827 11.1123 4.22466 11.3124 5.40489C11.3403 5.57205 11.4846 5.68855 11.6493 5.68855C11.6695 5.68855 11.6872 5.68602 11.7075 5.68349C11.8924 5.65563 12.019 5.47834 11.9861 5.29345Z" fill="#0B0B2C"/>
</g>
<defs>
<clipPath id="clip0_0_3912">
<rect width="12" height="12" fill="white"/>
</clipPath>
</defs>
</svg>
