<svg width="25" height="24" viewBox="0 0 25 24" fill="none" xmlns="http://www.w3.org/2000/svg">
<g id="fi_481587" clip-path="url(#clip0_2106_2886)">
<g id="Group">
<g id="Group_2">
<g id="Group_3">
<path id="Vector" d="M13.4385 11.7607L10.4385 6.26077C10.3516 6.10013 10.1826 6 9.99999 6H3.99999C3.81737 6 3.64843 6.10008 3.56152 6.26077L0.561523 11.7607C0.479492 11.9097 0.479492 12.0903 0.561523 12.2393L3.56152 17.7392C3.64843 17.8999 3.81737 18 3.99999 18H9.99999C10.1826 18 10.3516 17.8999 10.4385 17.7392L13.4385 12.2393C13.5205 12.0903 13.5205 11.9097 13.4385 11.7607ZM9.70313 17H4.2969L1.56934 12L4.2969 6.99998H9.70313L12.4306 12L9.70313 17Z" fill="#D620FF"/>
<path id="Vector_2" d="M3.71668 11.761C3.58581 11.5183 3.2821 11.4299 3.03896 11.5613C2.79676 11.6936 2.70695 11.9973 2.83974 12.2395L4.74892 15.7395C4.83878 15.906 5.01062 16.0003 5.18738 16.0003C5.26843 16.0003 5.35046 15.9807 5.42663 15.9393C5.66884 15.8069 5.75865 15.5032 5.62585 15.261L3.71668 11.761Z" fill="#D620FF"/>
<path id="Vector_3" d="M8.8125 8H5.18752C4.91114 8 4.6875 8.22364 4.6875 8.50002C4.6875 8.77639 4.91114 9.00003 5.18752 9.00003H8.8125C9.08888 9.00003 9.31252 8.77639 9.31252 8.50002C9.31247 8.22364 9.08888 8 8.8125 8Z" fill="#D620FF"/>
<path id="Vector_4" d="M14.5652 11.248C14.655 11.4038 14.8201 11.5 14.9998 11.5H20.9998C21.1794 11.5 21.3445 11.4038 21.4343 11.248L24.4343 5.99803C24.5212 5.84423 24.5212 5.65575 24.4343 5.50195L21.4343 0.251953C21.3445 0.0961875 21.1794 0 20.9998 0H14.9998C14.8201 0 14.655 0.0961875 14.5652 0.251953L11.5652 5.50195C11.4783 5.65575 11.4783 5.84423 11.5652 5.99803L14.5652 11.248ZM15.2898 0.999984H20.7097L23.4236 5.74997L20.7097 10.5H15.2898L12.5759 5.75002L15.2898 0.999984Z" fill="#D620FF"/>
<path id="Vector_5" d="M21.4343 12.752C21.3445 12.5962 21.1794 12.5 20.9998 12.5H14.9998C14.8201 12.5 14.655 12.5962 14.5652 12.752L11.5652 18.002C11.4783 18.1557 11.4783 18.3442 11.5652 18.498L14.5652 23.748C14.655 23.9038 14.8201 24 14.9998 24H20.9998C21.1794 24 21.3445 23.9038 21.4343 23.748L24.4343 18.498C24.5212 18.3442 24.5212 18.1557 24.4343 18.002L21.4343 12.752ZM20.7097 23H15.2898L12.5759 18.25L15.2898 13.5H20.7097L23.4236 18.25L20.7097 23Z" fill="#D620FF"/>
<path id="Vector_6" d="M19.8389 21H16.1611C15.8848 21 15.6611 21.2236 15.6611 21.5C15.6611 21.7764 15.8848 22 16.1611 22H19.8389C20.1152 22 20.3389 21.7764 20.3389 21.5C20.3389 21.2236 20.1152 21 19.8389 21Z" fill="#D620FF"/>
<path id="Vector_7" d="M19.5912 14.5661C19.351 14.7033 19.268 15.0085 19.4047 15.2482L21.2621 18.4982C21.3549 18.6598 21.5238 18.7502 21.6967 18.7502C21.7817 18.7502 21.8666 18.7292 21.9448 18.6843C22.185 18.5471 22.268 18.2419 22.1313 18.0021L20.2739 14.7522C20.1352 14.5109 19.8285 14.4284 19.5912 14.5661Z" fill="#D620FF"/>
</g>
</g>
</g>
</g>
<defs>
<clipPath id="clip0_2106_2886">
<rect width="24" height="24" fill="white" transform="translate(0.5)"/>
</clipPath>
</defs>
</svg>
