<svg width="24" height="24" viewBox="0 0 24 24" fill="none" xmlns="http://www.w3.org/2000/svg">
<g id="fi_2756792" clip-path="url(#clip0_2106_2848)">
<g id="21-research">
<path id="Vector" d="M11.2012 16.3999H12.8012V17.1999H11.2012V16.3999Z" fill="#D620FF" stroke="#D620FF" stroke-width="0.2"/>
<path id="Vector_2" d="M22.0004 0.399902H2.00039C1.57619 0.400379 1.1695 0.569103 0.869546 0.869058C0.569591 1.16901 0.400867 1.5757 0.400391 1.9999V17.1999C0.400867 17.6241 0.569591 18.0308 0.869546 18.3307C1.1695 18.6307 1.57619 18.7994 2.00039 18.7999H9.20039V22.7999H8.00039V23.5999H16.0004V22.7999H14.8004V18.7999H22.0004C22.4246 18.7994 22.8313 18.6307 23.1312 18.3307C23.4312 18.0308 23.5999 17.6241 23.6004 17.1999V1.9999C23.5999 1.5757 23.4312 1.16901 23.1312 0.869058C22.8313 0.569103 22.4246 0.400379 22.0004 0.399902ZM1.20039 1.9999C1.20064 1.78781 1.28501 1.58447 1.43498 1.43449C1.58496 1.28452 1.78829 1.20015 2.00039 1.1999H22.0004C22.2125 1.20015 22.4158 1.28452 22.5658 1.43449C22.7158 1.58447 22.8001 1.78781 22.8004 1.9999V14.7999H1.20039V1.9999ZM14.0004 22.7999H10.0004V18.7999H14.0004V22.7999ZM22.0004 17.9999H2.00039C1.78829 17.9997 1.58496 17.9153 1.43498 17.7653C1.28501 17.6153 1.20064 17.412 1.20039 17.1999V15.5999H22.8004V17.1999C22.8001 17.412 22.7158 17.6153 22.5658 17.7653C22.4158 17.9153 22.2125 17.9997 22.0004 17.9999Z" fill="#D620FF" stroke="#D620FF" stroke-width="0.2"/>
<path id="Vector_3" d="M13.5995 2.7998C13.1701 2.79969 12.7464 2.89838 12.3612 3.08824C11.976 3.2781 11.6397 3.55404 11.3782 3.8947C11.1167 4.23537 10.9372 4.63162 10.8534 5.0528C10.7696 5.47399 10.7838 5.9088 10.8949 6.3236L9.64198 6.86061C9.47582 6.62044 9.25901 6.41964 9.00682 6.27236C8.75463 6.12509 8.4732 6.03493 8.18238 6.00823C7.89156 5.98153 7.59842 6.01895 7.32363 6.11784C7.04884 6.21674 6.79909 6.3747 6.59198 6.5806L4.36278 5.09481C4.4329 4.81999 4.40359 4.52923 4.28002 4.27395C4.15645 4.01866 3.94659 3.81529 3.68755 3.6998C3.42851 3.58431 3.13698 3.56414 2.8645 3.64285C2.59202 3.72156 2.35616 3.89409 2.19861 4.12993C2.04106 4.36576 1.97198 4.64971 2.00358 4.93157C2.03518 5.21342 2.16543 5.47502 2.3713 5.67011C2.57717 5.86519 2.84539 5.9812 3.12853 5.99762C3.41167 6.01403 3.6915 5.9298 3.91853 5.7598L6.14748 7.2459C6.03873 7.51224 5.9889 7.79895 6.00144 8.08636C6.01397 8.37376 6.08856 8.65505 6.22008 8.91091L5.27903 9.66391C4.89789 9.34647 4.41246 9.18187 3.91685 9.20203C3.42125 9.22218 2.95078 9.42565 2.59667 9.77298C2.24256 10.1203 2.03004 10.5868 2.00032 11.0819C1.97059 11.577 2.12578 12.0655 2.43579 12.4527C2.7458 12.8399 3.18854 13.0982 3.67818 13.1775C4.16781 13.2568 4.66945 13.1515 5.08583 12.8819C5.50221 12.6124 5.80367 12.1978 5.93175 11.7186C6.05982 11.2394 6.0054 10.7298 5.77903 10.2884L6.72008 9.53541C7.07363 9.83093 7.51859 9.99493 7.97935 9.99955C8.44012 10.0042 8.88828 9.84913 9.24768 9.56075L11.6745 11.583C11.5939 11.8003 11.578 12.0363 11.6286 12.2624C11.6793 12.4886 11.7943 12.6953 11.9599 12.8575C12.1255 13.0197 12.3345 13.1304 12.5616 13.1764C12.7888 13.2224 13.0244 13.2016 13.24 13.1165C13.4556 13.0314 13.642 12.8858 13.7766 12.6971C13.9112 12.5084 13.9882 12.2847 13.9985 12.0532C14.0087 11.8216 13.9516 11.5921 13.8342 11.3923C13.7168 11.1924 13.544 11.0309 13.3367 10.9272L13.6531 8.39846C14.3905 8.38384 15.0924 8.07884 15.6062 7.54972C16.12 7.0206 16.4042 6.3101 16.3971 5.5726C16.3901 4.8351 16.0923 4.13018 15.5685 3.61099C15.0446 3.0918 14.3371 2.80029 13.5995 2.7998ZM11.2106 7.0587C11.5829 7.6664 12.1721 8.11002 12.8591 8.29981L12.5427 10.8279C12.4173 10.8553 12.2971 10.9029 12.1868 10.9687L9.76053 8.94695C9.98309 8.53363 10.0531 8.05518 9.95838 7.59541L11.2106 7.0587ZM3.19953 5.19981C3.12042 5.19981 3.04308 5.17635 2.9773 5.13239C2.91152 5.08844 2.86025 5.02597 2.82998 4.95288C2.7997 4.87979 2.79178 4.79936 2.80722 4.72177C2.82265 4.64418 2.86075 4.5729 2.91669 4.51696C2.97263 4.46102 3.0439 4.42292 3.1215 4.40749C3.19909 4.39206 3.27951 4.39998 3.35261 4.43025C3.4257 4.46053 3.48817 4.5118 3.53212 4.57758C3.57607 4.64336 3.59953 4.72069 3.59953 4.79981C3.59941 4.90586 3.55723 5.00753 3.48224 5.08252C3.40725 5.1575 3.30558 5.19969 3.19953 5.19981ZM3.99953 12.3998C3.76219 12.3998 3.53019 12.3294 3.33285 12.1976C3.13551 12.0657 2.9817 11.8783 2.89088 11.659C2.80005 11.4398 2.77629 11.1985 2.82259 10.9657C2.86889 10.7329 2.98318 10.5191 3.151 10.3513C3.31883 10.1835 3.53265 10.0692 3.76542 10.0229C3.9982 9.97656 4.23948 10.0003 4.45875 10.0911C4.67802 10.182 4.86544 10.3358 4.9973 10.5331C5.12915 10.7305 5.19953 10.9625 5.19953 11.1998C5.19916 11.518 5.07261 11.823 4.84765 12.0479C4.62269 12.2729 4.31768 12.3994 3.99953 12.3998ZM7.99953 9.19981C7.76219 9.19981 7.53019 9.12943 7.33285 8.99757C7.13551 8.86571 6.9817 8.6783 6.89088 8.45903C6.80005 8.23975 6.77629 7.99847 6.82259 7.7657C6.86889 7.53292 6.98318 7.3191 7.151 7.15128C7.31883 6.98345 7.53265 6.86916 7.76542 6.82286C7.9982 6.77656 8.23948 6.80032 8.45875 6.89115C8.67802 6.98197 8.86544 7.13578 8.9973 7.33312C9.12915 7.53046 9.19953 7.76247 9.19953 7.9998C9.19916 8.31795 9.07261 8.62296 8.84765 8.84792C8.62269 9.07289 8.31768 9.19943 7.99953 9.19981ZM12.7995 12.3998C12.7204 12.3998 12.6431 12.3763 12.5773 12.3324C12.5115 12.2884 12.4603 12.226 12.43 12.1529C12.3997 12.0798 12.3918 11.9994 12.4072 11.9218C12.4227 11.8442 12.4607 11.7729 12.5167 11.717C12.5726 11.661 12.6439 11.6229 12.7215 11.6075C12.7991 11.5921 12.8795 11.6 12.9526 11.6303C13.0257 11.6605 13.0882 11.7118 13.1321 11.7776C13.1761 11.8434 13.1995 11.9207 13.1995 11.9998C13.1994 12.1059 13.1572 12.2075 13.0822 12.2825C13.0073 12.3575 12.9056 12.3997 12.7995 12.3998ZM13.5995 7.5998C13.204 7.5998 12.8173 7.48251 12.4884 7.26274C12.1595 7.04298 11.9031 6.73062 11.7518 6.36517C11.6004 5.99972 11.5608 5.59759 11.638 5.20962C11.7151 4.82166 11.9056 4.4653 12.1853 4.18559C12.465 3.90589 12.8214 3.7154 13.2094 3.63823C13.5973 3.56106 13.9994 3.60067 14.3649 3.75205C14.7304 3.90342 15.0427 4.15977 15.2625 4.48866C15.4822 4.81756 15.5995 5.20424 15.5995 5.59981C15.5989 6.13006 15.388 6.63842 15.0131 7.01336C14.6381 7.3883 14.1298 7.59921 13.5995 7.5998Z" fill="#D620FF" stroke="#D620FF" stroke-width="0.2"/>
<path id="Vector_4" d="M17.5996 2.7998H21.5996V3.5998H17.5996V2.7998Z" fill="#D620FF" stroke="#D620FF" stroke-width="0.2"/>
<path id="Vector_5" d="M17.5996 4.3999H19.1996V5.1999H17.5996V4.3999Z" fill="#D620FF" stroke="#D620FF" stroke-width="0.2"/>
<path id="Vector_6" d="M17.5996 6H20.7996V6.8H17.5996V6Z" fill="#D620FF" stroke="#D620FF" stroke-width="0.2"/>
<path id="Vector_7" d="M17.5996 7.59961H21.5996V8.39961H17.5996V7.59961Z" fill="#D620FF" stroke="#D620FF" stroke-width="0.2"/>
<path id="Vector_8" d="M17.5996 9.2002H19.9996V10.0002H17.5996V9.2002Z" fill="#D620FF" stroke="#D620FF" stroke-width="0.2"/>
<path id="Vector_9" d="M17.5996 10.7998H20.7996V11.5998H17.5996V10.7998Z" fill="#D620FF" stroke="#D620FF" stroke-width="0.2"/>
<path id="Vector_10" d="M17.5996 12.3999H21.5996V13.1999H17.5996V12.3999Z" fill="#D620FF" stroke="#D620FF" stroke-width="0.2"/>
</g>
</g>
<defs>
<clipPath id="clip0_2106_2848">
<rect width="24" height="24" fill="white"/>
</clipPath>
</defs>
</svg>
