<svg width="20" height="21" viewBox="0 0 20 21" fill="none" xmlns="http://www.w3.org/2000/svg">
<g clip-path="url(#clip0_0_3994)">
<path d="M20 10.6562C20 13.0686 18.037 15.0312 15.625 15.0312H12.5C12.1545 15.0312 11.875 14.7514 11.875 14.4062C11.875 14.0611 12.1545 13.7812 12.5 13.7812H15.625C17.348 13.7812 18.75 12.3792 18.75 10.6562C18.75 8.93328 17.348 7.53125 15.625 7.53125H15C14.6545 7.53125 14.375 7.25141 14.375 6.90625C14.375 4.49391 12.412 2.53125 10 2.53125C7.58797 2.53125 5.625 4.49391 5.625 6.90625C5.625 7.25141 5.34547 7.53125 5 7.53125H4.375C2.65203 7.53125 1.25 8.93328 1.25 10.6562C1.25 12.3792 2.65203 13.7812 4.375 13.7812H7.5C7.84547 13.7812 8.125 14.0611 8.125 14.4062C8.125 14.7514 7.84547 15.0312 7.5 15.0312H4.375C1.96297 15.0312 0 13.0686 0 10.6562C0 8.24391 1.96297 6.28125 4.375 6.28125H4.40984C4.72172 3.47266 7.10938 1.28125 10 1.28125C12.8906 1.28125 15.2783 3.47266 15.5902 6.28125H15.625C18.0372 6.28125 20 8.24391 20 10.6562ZM12.0581 16.4644L10.625 17.8975V10.0312C10.625 9.68609 10.3455 9.40625 10 9.40625C9.65453 9.40625 9.375 9.68609 9.375 10.0312V17.8975L7.94187 16.4644C7.69766 16.2202 7.30219 16.2202 7.05813 16.4644C6.81406 16.7086 6.81391 17.1041 7.05813 17.3481L9.55813 19.8481C9.68016 19.9702 9.84016 20.0312 10 20.0312C10.1598 20.0312 10.3198 19.9702 10.4419 19.8481L12.9419 17.3481C13.1861 17.1039 13.1861 16.7084 12.9419 16.4644C12.6977 16.2203 12.3022 16.2202 12.0581 16.4644Z" fill="#0D6CFF"/>
</g>
<defs>
<clipPath id="clip0_0_3994">
<rect width="20" height="20" fill="white" transform="translate(0 0.5)"/>
</clipPath>
</defs>
</svg>
