<svg width="24" height="24" viewBox="0 0 24 24" fill="none" xmlns="http://www.w3.org/2000/svg">
<g id="fi_1876519" clip-path="url(#clip0_2106_2912)">
<path id="Vector" d="M2.25 21.375H3V22.125H2.25V21.375Z" fill="#D620FF"/>
<path id="Vector_2" d="M20.25 0.180176L16.7985 4.1248H18.375V5.67955C17.274 4.99855 15.996 4.58418 14.625 4.51893V4.1248H16.2015L12.75 0.180176L9.2985 4.1248H10.875V5.27043C10.0328 5.67243 9.27038 6.21393 8.625 6.87393V3.3748H6.375V9.3748H5.625V4.8748H3.375V9.3748H2.625V6.3748H0.375V10.1248H6.7065C6.4935 10.8384 6.375 11.5926 6.375 12.3748C6.375 14.1722 7.00012 15.9058 8.13075 17.3061L7.74113 17.6248H4.875V16.8748H0.375V23.6248H4.875V22.8748H12.954C13.0961 22.8748 13.2382 22.8587 13.3755 22.8268L17.6651 21.8368C18.0079 21.7573 18.3199 21.5844 18.5677 21.3366L21.7073 18.1971C21.9765 17.9286 22.125 17.5704 22.125 17.1861C22.1254 16.8024 21.9761 16.4417 21.705 16.1706C21.5839 16.0494 21.441 15.9598 21.2884 15.8927C21.8363 14.7996 22.125 13.5932 22.125 12.3748V4.1248H23.7015L20.25 0.180176ZM1.875 9.3748H1.125V7.1248H1.875V9.3748ZM11.8597 18.0261C12.168 18.4614 12.483 18.8259 12.774 19.1248H12.4541C12.2314 19.1248 12.0157 19.0592 11.8301 18.9358L11.25 18.5492L11.8597 18.0261ZM13.8716 19.1248C13.4835 18.7978 12.9454 18.2724 12.4324 17.5348L13.3853 16.7173C13.4618 16.6517 13.5296 16.5786 13.5896 16.4998H16.689C16.0601 17.7527 15.24 18.6099 14.6287 19.1248H13.8716ZM10.0328 15.7498H7.98938C7.48913 14.8269 7.1985 13.8051 7.14225 12.7498H10.1392C10.1696 13.6449 10.3076 14.5082 10.5525 15.3246L10.0328 15.7498ZM7.97738 8.9998H10.6789C10.3774 9.86155 10.1707 10.8587 10.1332 11.9998H7.14412C7.20075 10.9198 7.49063 9.90093 7.97738 8.9998ZM14.2507 5.32893C14.6989 5.65293 15.8396 6.59793 16.6733 8.2498H11.8309C12.6649 6.60205 13.8038 5.65405 14.2507 5.32893ZM17.0081 8.9998C17.3374 9.8458 17.5654 10.8444 17.6085 11.9998H10.8915C10.9346 10.8452 11.1641 9.84655 11.4949 8.9998H17.0081ZM11.184 14.8078C11.0122 14.1504 10.9148 13.4616 10.8889 12.7498H17.6126C17.5714 13.9063 17.3456 14.9027 17.0194 15.7498H13.8641C13.8668 15.7168 13.875 15.6853 13.875 15.6519C13.875 14.8791 13.2457 14.2498 12.4725 14.2498H12.3668C12.0443 14.2498 11.7289 14.3623 11.4791 14.5667L11.184 14.8078ZM17.5046 16.4998H19.3436L17.049 18.7952C16.8394 19.0048 16.5495 19.1248 16.2536 19.1248H15.7241C16.2919 18.5379 16.9736 17.6672 17.5046 16.4998ZM20.514 15.7498H17.8114C18.1166 14.8881 18.3229 13.8868 18.3619 12.7498H21.3622C21.3064 13.7957 21.0157 14.8213 20.514 15.7498ZM18.3668 11.9998C18.3289 10.8587 18.1226 9.86155 17.8211 8.9998H20.5226C21.0094 9.90093 21.2992 10.9198 21.3559 11.9998H18.3668ZM17.5226 8.2498C16.9189 6.9103 16.1074 5.9623 15.4672 5.36155C17.3505 5.6878 18.9803 6.75243 20.0486 8.2498H17.5226ZM10.9515 3.3748L12.75 1.31943L14.5485 3.3748H13.875V4.51893C13.0894 4.55605 12.3345 4.70755 11.625 4.95955V3.3748H10.9515ZM13.0328 5.36155C12.393 5.9623 11.5811 6.9103 10.9774 8.2498H8.45138C9.51937 6.7528 11.1491 5.6878 13.0328 5.36155ZM7.875 4.1248V7.77018C7.58663 8.16843 7.33575 8.59368 7.125 9.04255V4.1248H7.875ZM4.125 5.6248H4.875V9.3748H4.125V5.6248ZM8.45513 16.4998H9.11625L8.71087 16.8317C8.62275 16.7226 8.53613 16.6131 8.45513 16.4998ZM4.125 22.8748H1.125V17.6248H2.25V20.6248H3V17.6248H4.125V22.8748ZM21.1777 17.6664L18.0379 20.8063C17.8894 20.9548 17.7019 21.0583 17.4967 21.1059L13.2071 22.0959C13.1243 22.1154 13.0391 22.1248 12.954 22.1248H4.875V18.3748H8.00887L11.9539 15.1472C12.0701 15.0523 12.2164 14.9998 12.3668 14.9998H12.4725C12.8325 14.9998 13.125 15.2923 13.125 15.6519C13.125 15.8428 13.0418 16.0236 12.8974 16.1477L10.5 18.2023V18.9504L11.4142 19.5598C11.7232 19.7661 12.0829 19.8748 12.4537 19.8748H16.2533C16.7539 19.8748 17.2249 19.6794 17.5789 19.3254L20.2031 16.7004C20.4592 16.4447 20.9164 16.4428 21.174 16.7004C21.3041 16.8302 21.375 17.0023 21.375 17.1891C21.375 17.3698 21.3049 17.5393 21.1777 17.6664ZM19.125 6.20193V3.3748H18.4515L20.25 1.31943L22.0485 3.3748H21.375V9.04255C20.8519 7.92918 20.0798 6.95755 19.125 6.20193Z" fill="#D620FF"/>
</g>
<defs>
<clipPath id="clip0_2106_2912">
<rect width="24" height="24" fill="white"/>
</clipPath>
</defs>
</svg>
