<svg width="25" height="24" viewBox="0 0 25 24" fill="none" xmlns="http://www.w3.org/2000/svg">
<g id="fi_4257483" clip-path="url(#clip0_2106_2917)">
<g id="Group">
<g id="Page-1_17_">
<g id="_x30_19---Technology-Engineering">
<path id="Shape_65_" d="M1.4944 9.90131C1.00384 9.98088 0.624354 10.3742 0.562397 10.8673C0.480025 11.6142 0.479196 12.3678 0.559989 13.1149C0.616299 13.6157 0.998111 14.0182 1.49519 14.1009L2.76797 14.3093C3.01233 15.3501 3.42482 16.344 3.98915 17.252L3.23998 18.2984C2.94145 18.7032 2.94867 19.2571 3.25759 19.654C3.49602 19.9457 3.74973 20.2247 4.01758 20.4896C4.2632 20.7357 4.53476 20.9829 4.86077 21.2568C5.25451 21.5596 5.80087 21.5659 6.20155 21.2724L7.25313 20.518C8.16021 21.0823 9.15322 21.4949 10.1931 21.7396L10.4019 23.0144C10.4813 23.5051 10.8747 23.8848 11.3679 23.9468C11.5959 23.9724 11.8275 23.9904 12.0607 24H12.0947C12.3032 23.9998 12.5036 23.9196 12.6547 23.776C12.8117 23.6259 12.9003 23.418 12.8999 23.2008V19.9952C12.8975 19.5669 12.5594 19.2158 12.1315 19.1972C8.30296 18.9973 5.30122 15.8348 5.30122 12.0011C5.30122 8.16738 8.30296 5.00485 12.1315 4.80496C12.5601 4.78616 12.8984 4.434 12.8999 4.00497V0.801008C12.9005 0.583547 12.8117 0.375444 12.6542 0.225428C12.4971 0.0712264 12.2825 -0.0101589 12.0626 0.0010163C11.8299 0.0102171 11.599 0.0269996 11.3622 0.0510084C10.8693 0.114545 10.4778 0.496554 10.4022 0.987788L10.1939 2.26136C9.15397 2.50627 8.16096 2.919 7.25388 3.48337L6.2023 2.73056C5.79791 2.43483 5.24625 2.44364 4.85153 2.75216C4.56153 2.98956 4.28397 3.24174 4.01995 3.50777C3.74783 3.77376 3.49167 4.05559 3.25277 4.35175C2.94757 4.746 2.93975 5.29453 3.23358 5.69735L3.98757 6.75015C3.42371 7.65806 3.01177 8.65194 2.76797 9.69253L1.4944 9.90131ZM3.4916 10.1245C3.72414 8.99474 4.17028 7.91979 4.806 6.95734C4.8971 6.81894 4.89343 6.63871 4.7968 6.50414L3.88442 5.23017C3.80008 5.11885 3.79763 4.96571 3.87842 4.85175C4.09766 4.58003 4.33289 4.32158 4.58281 4.07774C4.82559 3.83252 5.08056 3.59966 5.34679 3.38014C5.46139 3.29279 5.62021 3.29279 5.7348 3.38014L7.0068 4.29295C7.14153 4.38934 7.32176 4.39266 7.46 4.30136C8.42162 3.66541 9.49598 3.21911 10.6252 2.98656C10.7875 2.95312 10.9124 2.82296 10.9392 2.65936L11.1908 1.11897C11.2089 0.980798 11.315 0.870626 11.4524 0.847368C11.664 0.825373 11.8784 0.809775 12.1 0.800969L12.0912 4.00532C7.83265 4.22282 4.49207 7.74031 4.49444 12.0044C4.49677 16.2685 7.84122 19.7823 12.1 19.9951L12.0944 23.2007C11.8796 23.1919 11.6668 23.1751 11.4568 23.1515C11.3188 23.1313 11.2106 23.0225 11.1912 22.8843L10.9392 21.3431C10.9124 21.1795 10.7876 21.0494 10.6252 21.0159C9.49598 20.7832 8.42162 20.3368 7.46 19.7007C7.32168 19.6095 7.14149 19.613 7.0068 19.7095L5.73362 20.6231C5.62503 20.7075 5.47418 20.7116 5.36121 20.6331C5.06722 20.3855 4.8124 20.1531 4.58281 19.9239C4.33755 19.6816 4.10485 19.4269 3.88561 19.1607C3.79933 19.0455 3.79933 18.8872 3.88561 18.7719L4.79719 17.4991C4.8937 17.3645 4.89722 17.1842 4.806 17.0459C4.17024 16.0837 3.7241 15.0088 3.4916 13.8792C3.45819 13.7169 3.32823 13.5921 3.16479 13.5651L1.62479 13.3127C1.48145 13.289 1.37139 13.1728 1.3556 13.0283C1.28069 12.3403 1.28148 11.6462 1.35801 10.9584C1.37791 10.8202 1.48658 10.7117 1.62479 10.692L3.16436 10.44C3.32843 10.4131 3.4587 10.2875 3.4916 10.1245Z" fill="#D620FF"/>
<path id="Shape_64_" d="M23.2996 10.8008C22.7929 10.8028 22.3421 11.123 22.1732 11.6007H12.8997V10.4007H19.2996C19.9623 10.4007 20.4996 9.8635 20.4996 9.20077V7.1272C21.0506 6.93241 21.3811 6.36895 21.2823 5.79294C21.1834 5.21692 20.684 4.79586 20.0996 4.79586C19.5151 4.79586 19.0157 5.21692 18.9169 5.79294C18.818 6.36895 19.1485 6.93241 19.6995 7.1272V9.20077C19.6995 9.42167 19.5205 9.60079 19.2995 9.60079H12.8997V8.40078H17.2996C17.5205 8.40078 17.6996 8.2217 17.6996 8.00076C17.6996 7.77983 17.5205 7.60075 17.2996 7.60075H12.8997V6.80076H15.2996C15.9624 6.80076 16.4997 6.26352 16.4997 5.60075V3.12724C17.0507 2.93245 17.3812 2.36899 17.2824 1.79298C17.1835 1.21696 16.6841 0.795898 16.0996 0.795898C15.5152 0.795898 15.0158 1.21696 14.9169 1.79298C14.8181 2.36899 15.1486 2.93245 15.6996 3.12724V5.60083C15.6996 5.82172 15.5205 6.00084 15.2996 6.00084H12.794C12.6564 5.74508 12.3818 5.5936 12.0921 5.61366C8.7213 5.82717 6.09668 8.62329 6.09668 12.0008C6.09668 15.3783 8.7213 18.1744 12.0921 18.3879H12.1389C12.4121 18.3902 12.6642 18.2412 12.794 18.0008H15.2996C15.5205 18.0008 15.6996 18.1798 15.6996 18.4008V20.8744C15.1486 21.0692 14.8181 21.6326 14.9169 22.2086C15.0158 22.7846 15.5152 23.2057 16.0996 23.2057C16.6841 23.2057 17.1835 22.7846 17.2824 22.2086C17.3812 21.6326 17.0507 21.0692 16.4997 20.8744V18.4008C16.4997 17.738 15.9624 17.2008 15.2996 17.2008H12.8997V16.4008H17.2996C17.5205 16.4008 17.6996 16.2217 17.6996 16.0008C17.6996 15.7799 17.5205 15.6008 17.2996 15.6008H12.8997V14.4008H19.2996C19.5205 14.4008 19.6996 14.5799 19.6996 14.8008V16.8744C19.1486 17.0692 18.8181 17.6326 18.9169 18.2086C19.0158 18.7846 19.5152 19.2057 20.0996 19.2057C20.6841 19.2057 21.1835 18.7846 21.2824 18.2086C21.3812 17.6326 21.0507 17.0692 20.4997 16.8744V14.8008C20.4997 14.1381 19.9624 13.6008 19.2997 13.6008H12.8997V12.4007H22.1732C22.3776 12.9746 22.98 13.3036 23.5733 13.1655C24.1666 13.0274 24.5618 12.4661 24.4918 11.8609C24.4217 11.2559 23.9087 10.7997 23.2996 10.8008ZM20.0996 5.60083C20.3205 5.60083 20.4996 5.77991 20.4996 6.00084C20.4996 6.22178 20.3205 6.40086 20.0996 6.40086C19.8787 6.40086 19.6996 6.22178 19.6996 6.00084C19.6996 5.77991 19.8787 5.60083 20.0996 5.60083ZM16.0996 1.60087C16.3205 1.60087 16.4997 1.77995 16.4997 2.00088C16.4997 2.22182 16.3206 2.40086 16.0996 2.40086C15.8787 2.40086 15.6997 2.22178 15.6997 2.00088C15.6997 1.77998 15.8787 1.60087 16.0996 1.60087ZM16.0996 22.4007C15.8787 22.4007 15.6997 22.2216 15.6997 22.0006C15.6997 21.7797 15.8787 21.6006 16.0996 21.6006C16.3205 21.6006 16.4997 21.7797 16.4997 22.0006C16.4997 22.2216 16.3205 22.4007 16.0996 22.4007ZM20.0996 18.4007C19.8787 18.4007 19.6996 18.2216 19.6996 18.0007C19.6996 17.7797 19.8787 17.6007 20.0996 17.6007C20.3205 17.6007 20.4996 17.7798 20.4996 18.0007C20.4996 18.2216 20.3205 18.4007 20.0996 18.4007ZM6.89971 12.0008C6.90307 9.06454 9.17119 6.62827 12.0997 6.41523V17.5863C9.17119 17.3733 6.90307 14.9369 6.89971 12.0008ZM23.2996 12.4007C23.0787 12.4007 22.8996 12.2217 22.8996 12.0007C22.8996 11.7798 23.0786 11.6007 23.2996 11.6007C23.5205 11.6007 23.6996 11.7798 23.6996 12.0007C23.6996 12.2216 23.5205 12.4007 23.2996 12.4007Z" fill="#D620FF"/>
</g>
</g>
</g>
</g>
<defs>
<clipPath id="clip0_2106_2917">
<rect width="24" height="24" fill="white" transform="translate(0.5)"/>
</clipPath>
</defs>
</svg>
