<svg width="20" height="21" viewBox="0 0 20 21" fill="none" xmlns="http://www.w3.org/2000/svg">
<g id="fi_5388630" clip-path="url(#clip0_0_1500)">
<g id="Group">
<g id="XMLID_17_">
<path id="Vector" d="M19.1083 18.4403C19.0341 18.3661 18.9325 18.321 18.8196 18.321H18.3728V16.9435V16.2226V15.5661C18.8325 15.5661 19.1906 15.171 19.1486 14.7145L17.9083 1.4129C17.8615 0.895161 17.426 0.5 16.9067 0.5H3.75347C2.91476 0.5 2.21314 1.13871 2.13573 1.97419L0.774435 16.6839C0.730886 17.7339 1.3325 18.8258 2.24056 19.1371H3.10508H3.10669C3.21153 19.6161 3.38895 20.0694 3.64056 20.5L4.57121 19.5161L5.50185 20.5C5.75347 20.0694 5.93089 19.6161 6.03734 19.1371H18.8196C19.0454 19.1371 19.2277 18.9548 19.2277 18.729C19.2277 18.6161 19.1825 18.5145 19.1083 18.4403Z" fill="#53B79A"/>
<g id="Group_2">
<path id="Vector_2" d="M18.373 16.9434V18.3208H6.14877C6.17296 17.8788 6.14232 17.4192 6.06006 16.9434H18.373Z" fill="#D6EAE8"/>
<path id="Vector_3" d="M3.08418 16.9436C3.00192 17.421 2.97127 17.8791 2.99547 18.321H2.24063C1.40353 17.5291 1.1745 16.3323 2.05192 15.5936L18.3729 15.5662V16.2226V16.9436H6.05998H3.08418Z" fill="#E7F2F1"/>
<path id="Vector_4" d="M15.4228 8.5498C15.4809 9.39174 14.5519 9.83851 14.0422 9.2127L11.747 6.39012V8.80948C11.747 9.00141 11.6777 9.17561 11.5648 9.30141C11.4519 9.42722 11.2954 9.50464 11.1228 9.50464C10.7728 9.50464 10.4922 9.18367 10.4986 8.79335L10.5906 4.04819C10.6003 3.40464 11.3341 3.14174 11.6793 3.65625L14.0132 7.13206V3.93528C14.0132 3.78367 14.0745 3.64657 14.1728 3.54819C14.2712 3.4498 14.4083 3.38851 14.5599 3.38851C14.847 3.38851 15.0857 3.61109 15.1051 3.89819L15.4228 8.5498Z" fill="#FFC05A"/>
<path id="Vector_5" d="M9.15025 5.8354C9.43412 5.8354 9.66477 6.06443 9.66477 6.3483C9.66477 6.49024 9.6067 6.61927 9.51315 6.71282C9.42122 6.80476 9.29219 6.86282 9.15025 6.86282H6.2438L6.09541 8.19831H9.00993C9.37122 8.19831 9.66477 8.49024 9.66477 8.85153C9.66477 9.21282 9.37122 9.50637 9.00993 9.50637H5.57445C5.11315 9.50637 4.75348 9.10637 4.80348 8.64669L5.29703 4.07734C5.33896 3.68379 5.67122 3.38379 6.06799 3.38379H9.13735C9.42767 3.38379 9.66477 3.62089 9.66477 3.91121C9.66477 4.05798 9.60509 4.18863 9.50993 4.28379C9.41477 4.38056 9.28251 4.43863 9.13735 4.43863H6.51477L6.35832 5.8354H9.15025Z" fill="#FFC05A"/>
<path id="Vector_6" d="M6.05986 16.9434C6.14212 17.4192 6.17276 17.8788 6.14857 18.3208C6.13405 18.5998 6.09696 18.8724 6.03728 19.1369C5.93083 19.6159 5.75341 20.0692 5.5018 20.4998L4.57115 19.5159L3.64051 20.4998C3.38889 20.0692 3.21147 19.6159 3.10664 19.1369C3.04696 18.8724 3.00986 18.5998 2.99534 18.3208C2.97115 17.8788 3.0018 17.4208 3.08405 16.9434H6.05986Z" fill="#E15C63"/>
</g>
<g id="XMLID_45_">
<g id="Group_3">
<path id="Vector_7" d="M19.1486 14.7145C19.1906 15.171 18.8325 15.5661 18.3728 15.5661L2.05185 15.5935C1.17443 16.3323 1.40347 17.529 2.24056 18.321H2.9954C3.00992 18.6 3.04702 18.8726 3.10669 19.1371H3.10508H2.24056C1.3325 18.8258 0.730886 17.7339 0.774435 16.6839L0.909918 15.2258C0.909918 15.2258 1.35669 13.7774 3.5196 13.7774C5.04863 13.7774 10.8809 14.0629 14.168 9.33871C14.6906 9.76774 15.476 9.32742 15.4228 8.55L15.3293 7.17097C16.0277 5.44355 16.4519 3.26452 16.4519 0.517742V0.5H16.9067C17.426 0.5 17.8615 0.895161 17.9083 1.4129L19.1486 14.7145Z" fill="#4AAF8F"/>
</g>
<g id="Group_4">
<path id="Vector_8" d="M17.5164 16.0613H2.42252C2.33333 16.0613 2.26123 16.1334 2.26123 16.2226C2.26123 16.3118 2.33333 16.3839 2.42252 16.3839H17.5164C17.6056 16.3839 17.6777 16.3118 17.6777 16.2226C17.6777 16.1334 17.6056 16.0613 17.5164 16.0613Z" fill="#D6EAE8"/>
<path id="Vector_9" d="M2.59934 16.7822H2.11466C2.02547 16.7822 1.95337 16.8543 1.95337 16.9435C1.95337 17.0327 2.02547 17.1048 2.11466 17.1048H2.59934C2.68853 17.1048 2.76063 17.0327 2.76063 16.9435C2.76063 16.8543 2.68853 16.7822 2.59934 16.7822Z" fill="#D6EAE8"/>
<path id="Vector_10" d="M11.9711 17.4807H6.61735C6.52815 17.4807 6.45605 17.5528 6.45605 17.642C6.45605 17.7312 6.52815 17.8033 6.61735 17.8033H11.9711C12.0602 17.8033 12.1323 17.7312 12.1323 17.642C12.1323 17.5528 12.0602 17.4807 11.9711 17.4807Z" fill="#C3DDDA"/>
</g>
</g>
</g>
</g>
</g>
<defs>
<clipPath id="clip0_0_1500">
<rect width="20" height="20" fill="white" transform="translate(0 0.5)"/>
</clipPath>
</defs>
</svg>
