<svg width="16" height="16" viewBox="0 0 16 16" fill="none" xmlns="http://www.w3.org/2000/svg">
<g id="facebook">
<path id="facebook_2" fill-rule="evenodd" clip-rule="evenodd" d="M0 8C0 3.58172 3.58172 0 8 0C12.4183 0 16 3.58172 16 8C16 12.4183 12.4183 16 8 16C3.58172 16 0 12.4183 0 8ZM8 4C10.2 4 12 5.8 12 8C12 10 10.55 11.7 8.55 12V9.15H9.5L9.7 8H8.6V7.25C8.6 6.95 8.75 6.65 9.25 6.65H9.75V5.65C9.75 5.65 9.3 5.55 8.85 5.55C7.95 5.55 7.35 6.1 7.35 7.1V8H6.35V9.15H7.35V11.95C5.45 11.65 4 10 4 8C4 5.8 5.8 4 8 4Z" fill="white"/>
</g>
</svg>
