<svg width="70" height="70" viewBox="0 0 70 70" fill="none" xmlns="http://www.w3.org/2000/svg">
<g id="fi_16829855">
<g id="Click Review">
<path id="Vector" d="M43.6144 29.3999C43.6034 26.7749 43.6034 24.2046 43.6034 22.0827C43.6034 19.7749 41.055 17.5327 38.3534 17.4452C36.7925 17.4305 35.2896 18.0364 34.1753 19.1296C33.7419 19.5158 33.39 19.9846 33.1402 20.5087C32.8905 21.0327 32.7478 21.6013 32.7206 22.1811C32.7206 23.1546 32.7644 32.8561 32.7972 38.8171C32.2175 39.2218 31.7144 39.5609 31.3206 39.8233C30.5985 39.2513 29.7995 38.7837 28.9472 38.4342C28.1134 38.0936 27.238 37.8656 26.3441 37.7561C20.0003 33.1077 8.505 23.0671 10.5612 12.5999C11.3487 8.61863 15.6253 5.89519 20.0769 5.89519C21.5558 5.88667 23.0188 6.20018 24.3644 6.81394C26.6413 7.81769 28.6032 9.42047 30.0409 11.4514C30.0679 11.4988 30.1068 11.5381 30.1539 11.5655C30.201 11.5929 30.2545 11.6073 30.3089 11.6073C30.3634 11.6073 30.4168 11.5929 30.4639 11.5655C30.511 11.5381 30.55 11.4988 30.5769 11.4514C31.516 10.0545 32.7336 8.86662 34.1534 7.96238C34.8195 7.52052 35.522 7.13631 36.2534 6.81394C41.8316 4.25456 49.0175 7.31706 50.0566 12.5999C51.2487 18.6702 47.891 24.5875 43.6144 29.3999Z" fill="white"/>
<path id="Vector_2" d="M59.682 55.4421C59.7498 57.5707 59.323 59.6861 58.4351 61.6218C58.0753 62.3652 57.5127 62.9917 56.8121 63.4291C56.1116 63.8665 55.3016 64.0969 54.4757 64.0937L36.6476 64.1046C36.6476 64.1046 34.5476 64.1046 32.732 61.4796C28.5655 55.12 25.107 48.3239 22.4179 41.2124C22.3761 41.1139 22.3556 41.0076 22.3576 40.9005C22.3595 40.7935 22.384 40.6881 22.4294 40.5911C22.4748 40.4941 22.5401 40.4078 22.621 40.3377C22.7019 40.2676 22.7967 40.2154 22.8992 40.1843C24.6171 39.6971 26.448 39.7933 28.1054 40.4577C29.1177 40.8956 30.0338 41.5285 30.8014 42.3205C31.5689 43.1125 32.1729 44.0479 32.5789 45.0734C33.1366 46.3312 35.0617 44.6359 35.0179 43.2031C35.007 42.4593 34.9961 40.1187 34.9851 37.2421C34.9523 31.2921 34.9086 23.0781 34.9086 22.1812C34.9086 21.1421 36.5054 19.5781 38.2882 19.6327C39.9945 19.6874 41.4164 21.164 41.4164 22.0827C41.4164 24.839 41.4273 28.3171 41.4273 31.7077C41.4382 36.3124 41.4492 40.7312 41.4492 42.864C41.4526 43.0677 41.5359 43.2619 41.6812 43.4047C41.8264 43.5476 42.022 43.6276 42.2257 43.6276C42.4295 43.6276 42.625 43.5476 42.7703 43.4047C42.9156 43.2619 42.9989 43.0677 43.0023 42.864C43.0023 38.6859 43.0023 40.6109 42.9804 34.1796C43.5507 33.8591 44.1956 33.6952 44.8497 33.7045C45.5037 33.7138 46.1437 33.8959 46.7046 34.2325C47.2656 34.569 47.7275 35.048 48.0435 35.6208C48.3595 36.1935 48.5183 36.8397 48.5039 37.4937C48.5039 37.7234 48.6132 43.4874 48.6132 43.6406C48.6132 43.848 48.6956 44.0469 48.8423 44.1935C48.989 44.3402 49.1879 44.4226 49.3953 44.4226C49.6027 44.4226 49.8016 44.3402 49.9482 44.1935C50.0949 44.0469 50.1773 43.848 50.1773 43.6406C50.1445 38.3031 50.2976 36.914 49.6961 35.4702C50.212 35.1949 50.7916 35.061 51.3761 35.0823C51.9605 35.1037 52.5289 35.2794 53.0234 35.5916C53.5179 35.9039 53.9208 36.3415 54.1913 36.8601C54.4618 37.3786 54.5901 37.9595 54.5632 38.5437C54.5632 39.0468 54.6179 44.5156 54.6179 44.5702C54.6179 45.4124 56.0945 45.489 56.182 44.5265C56.0945 38.6202 56.2039 38.2374 55.9304 37.1109C56.4154 37.0958 56.8983 37.1792 57.3501 37.3562C57.8018 37.5332 58.213 37.8 58.5586 38.1405C58.9042 38.4811 59.1771 38.8882 59.3608 39.3372C59.5445 39.7863 59.6352 40.2679 59.6273 40.7531C59.6382 45.6531 59.6711 50.5968 59.682 55.4421Z" fill="white"/>
</g>
</g>
</svg>
