<svg width="12" height="12" viewBox="0 0 12 12" fill="none" xmlns="http://www.w3.org/2000/svg">
<path d="M8.87501 0.499756C7.54395 0.499756 6.44459 1.73608 6 2.31958C5.55541 1.73608 4.45605 0.499756 3.12499 0.499756C1.40187 0.499756 0 2.08399 0 4.03101C0 5.09327 0.421641 6.08325 1.15966 6.76076C1.1704 6.77932 1.18359 6.7964 1.19897 6.81178L5.82349 11.4268C5.87231 11.4753 5.93604 11.4998 6 11.4998C6.06396 11.4998 6.12792 11.4753 6.17677 11.4265L10.9551 6.64992L11.0044 6.60206C11.0435 6.56519 11.082 6.52783 11.1252 6.48C11.1433 6.46218 11.1582 6.44215 11.1697 6.42042C11.7056 5.76417 12 4.91772 12 4.03101C12 2.08399 10.5982 0.499756 8.87501 0.499756ZM10.7537 6.13917C10.7468 6.14723 10.7405 6.15576 10.7349 6.16455C10.7114 6.19141 10.6858 6.21508 10.6604 6.23927L5.99977 10.8965L1.60938 6.5149C1.59523 6.48705 1.57545 6.46167 1.55128 6.44044C0.883055 5.85694 0.499992 4.97876 0.499992 4.03101C0.499992 2.35961 1.67749 0.999771 3.12499 0.999771C4.55616 0.999771 5.77758 2.86647 5.78979 2.88527C5.88209 3.02784 6.11791 3.02784 6.21021 2.88527C6.22242 2.86647 7.44384 0.999771 8.87501 0.999771C10.3225 0.999771 11.5 2.35964 11.5 4.03101C11.5 4.81861 11.2349 5.56739 10.7537 6.13917Z" fill="#74759A"/>
</svg>
