<svg width="17" height="16" viewBox="0 0 17 16" fill="none" xmlns="http://www.w3.org/2000/svg">
<g id="instagram">
<g id="instagram_2">
<path d="M8.66602 9.4C7.91602 9.4 7.26602 8.8 7.26602 8C7.26602 7.25 7.86602 6.6 8.66602 6.6C9.41602 6.6 10.066 7.2 10.066 8C10.066 8.75 9.41602 9.4 8.66602 9.4Z" fill="white"/>
<path fill-rule="evenodd" clip-rule="evenodd" d="M10.366 4.6H6.96602C6.56602 4.65 6.36602 4.7 6.21602 4.75C6.01602 4.8 5.86602 4.9 5.71602 5.05C5.59732 5.16869 5.54124 5.28739 5.47346 5.43085C5.45559 5.46866 5.43687 5.50829 5.41602 5.55C5.40828 5.5732 5.39935 5.59761 5.38978 5.62376C5.33747 5.76666 5.26602 5.96188 5.26602 6.3V9.7C5.31602 10.1 5.36602 10.3 5.41602 10.45C5.46602 10.65 5.56602 10.8 5.71602 10.95C5.83471 11.0687 5.9534 11.1248 6.09687 11.1926C6.13471 11.2104 6.17427 11.2291 6.21602 11.25C6.23922 11.2577 6.26362 11.2667 6.28977 11.2762C6.43268 11.3285 6.62789 11.4 6.96602 11.4H10.366C10.766 11.35 10.966 11.3 11.116 11.25C11.316 11.2 11.466 11.1 11.616 10.95C11.7347 10.8313 11.7908 10.7126 11.8586 10.5691C11.8764 10.5313 11.8951 10.4917 11.916 10.45C11.9238 10.4268 11.9327 10.4024 11.9423 10.3762C11.9946 10.2333 12.066 10.0381 12.066 9.7V6.3C12.016 5.9 11.966 5.7 11.916 5.55C11.866 5.35 11.766 5.2 11.616 5.05C11.4973 4.93131 11.3786 4.87523 11.2352 4.80744C11.1974 4.78959 11.1577 4.77083 11.116 4.75C11.0928 4.74226 11.0684 4.73333 11.0423 4.72376C10.8994 4.67145 10.7041 4.6 10.366 4.6ZM8.66602 5.85C7.46602 5.85 6.51602 6.8 6.51602 8C6.51602 9.2 7.46602 10.15 8.66602 10.15C9.86602 10.15 10.816 9.2 10.816 8C10.816 6.8 9.86602 5.85 8.66602 5.85ZM11.366 5.8C11.366 6.07614 11.1422 6.3 10.866 6.3C10.5899 6.3 10.366 6.07614 10.366 5.8C10.366 5.52386 10.5899 5.3 10.866 5.3C11.1422 5.3 11.366 5.52386 11.366 5.8Z" fill="white"/>
<path fill-rule="evenodd" clip-rule="evenodd" d="M0.666016 8C0.666016 3.58172 4.24774 0 8.66602 0C13.0843 0 16.666 3.58172 16.666 8C16.666 12.4183 13.0843 16 8.66602 16C4.24774 16 0.666016 12.4183 0.666016 8ZM6.96602 3.85H10.366C10.816 3.9 11.116 3.95 11.366 4.05C11.666 4.2 11.866 4.3 12.116 4.55C12.366 4.8 12.516 5.05 12.616 5.3C12.716 5.55 12.816 5.85 12.816 6.3V9.7C12.766 10.15 12.716 10.45 12.616 10.7C12.466 11 12.366 11.2 12.116 11.45C11.866 11.7 11.616 11.85 11.366 11.95C11.116 12.05 10.816 12.15 10.366 12.15H6.96602C6.51602 12.1 6.21602 12.05 5.96602 11.95C5.66602 11.8 5.46602 11.7 5.21602 11.45C4.96602 11.2 4.81602 10.95 4.71602 10.7C4.61602 10.45 4.51602 10.15 4.51602 9.7V6.3C4.56602 5.85 4.61602 5.55 4.71602 5.3C4.86602 5 4.96602 4.8 5.21602 4.55C5.46602 4.3 5.71602 4.15 5.96602 4.05C6.21602 3.95 6.51602 3.85 6.96602 3.85Z" fill="white"/>
</g>
</g>
</svg>
