<svg width="17" height="16" viewBox="0 0 17 16" fill="none" xmlns="http://www.w3.org/2000/svg">
<g id="linkedin">
<path id="linkedin_2" fill-rule="evenodd" clip-rule="evenodd" d="M0.666016 8C0.666016 3.58172 4.24774 0 8.66602 0C13.0843 0 16.666 3.58172 16.666 8C16.666 12.4183 13.0843 16 8.66602 16C4.24774 16 0.666016 12.4183 0.666016 8ZM4.76601 6.65V12H6.46602V6.65H4.76601ZM4.66602 4.95C4.66602 5.5 5.06602 5.9 5.61602 5.9C6.16602 5.9 6.56602 5.5 6.56602 4.95C6.56602 4.4 6.16602 4 5.61602 4C5.11602 4 4.66602 4.4 4.66602 4.95ZM10.966 12H12.566V8.7C12.566 7.05 11.566 6.5 10.616 6.5C9.76601 6.5 9.16602 7.05 9.01601 7.4V6.65H7.41602V12H9.11601V9.15C9.11601 8.4 9.61601 8 10.116 8C10.616 8 10.966 8.25 10.966 9.1V12Z" fill="white"/>
</g>
</svg>
