<svg width="24" height="24" viewBox="0 0 24 24" fill="none" xmlns="http://www.w3.org/2000/svg">
<g id="fi_9302930">
<g id="Group">
<path id="Vector" d="M16.4403 1.55664H3.78992C3.1828 1.55732 2.60075 1.79879 2.17145 2.22809C1.74215 2.65738 1.50068 3.23944 1.5 3.84656V20.6674C1.50049 21.1381 1.68771 21.5895 2.02058 21.9224C2.35346 22.2553 2.8048 22.4426 3.27557 22.4431H16.4403C16.7467 22.4427 17.0405 22.3208 17.2571 22.1042C17.4738 21.8875 17.5957 21.5938 17.5961 21.2874V2.7124C17.5957 2.40599 17.4738 2.11223 17.2571 1.89557C17.0405 1.6789 16.7467 1.55701 16.4403 1.55664ZM4.63367 13.7123L6.89813 10.2977C6.99252 10.1543 7.121 10.0365 7.27207 9.9549C7.42314 9.87329 7.59208 9.83041 7.76379 9.83008C7.93549 9.82975 8.10459 9.872 8.25597 9.95303C8.40735 10.0341 8.53628 10.1514 8.63122 10.2944L10.435 13.0175L9.16589 14.5344C9.10439 14.611 9.07539 14.7087 9.08511 14.8064C9.09483 14.9042 9.14249 14.9942 9.21786 15.0572C9.29323 15.1202 9.3903 15.1511 9.48822 15.1434C9.58614 15.1356 9.67711 15.0897 9.74159 15.0156L12.6962 11.4835C12.7945 11.3679 12.9168 11.2751 13.0545 11.2114C13.1923 11.1477 13.3422 11.1147 13.494 11.1146C13.6457 11.1146 13.7957 11.1475 13.9335 11.211C14.0713 11.2746 14.1937 11.3673 14.2921 11.4828L16.8461 14.5409V18.892H4.63367V13.7123ZM16.8461 2.7124V13.371L14.8674 11.0016C14.6982 10.8027 14.4877 10.6429 14.2506 10.5333C14.0135 10.4238 13.7554 10.3671 13.4942 10.3671C13.233 10.3671 12.975 10.4239 12.7379 10.5336C12.5008 10.6432 12.2904 10.803 12.1212 11.002L10.9369 12.4176L9.25635 9.88061C9.09306 9.6342 8.87124 9.43211 8.61073 9.29241C8.35021 9.15271 8.05914 9.07976 7.76353 9.08009C7.46793 9.08041 7.17701 9.154 6.91681 9.29428C6.6566 9.43455 6.43523 9.63714 6.27248 9.88391L4.63369 12.3552V2.30664H16.4403C16.5479 2.30676 16.651 2.34954 16.7271 2.42561C16.8032 2.50168 16.846 2.60482 16.8461 2.7124ZM2.25 3.84656C2.25081 3.63655 2.29434 3.4289 2.37794 3.23625C2.46154 3.04359 2.58345 2.86996 2.73627 2.72591C2.88909 2.58186 3.06962 2.47041 3.26687 2.39833C3.46413 2.32625 3.67398 2.29506 3.88367 2.30665V18.892C3.34631 18.8682 2.67788 18.876 2.25 19.219V3.84656ZM16.4403 21.6931H3.27557C3.00537 21.6904 2.74717 21.5811 2.55707 21.3891C2.36697 21.197 2.26034 20.9377 2.26035 20.6675C2.26036 20.3973 2.367 20.138 2.55711 19.946C2.74722 19.7539 3.00542 19.6447 3.27562 19.642H16.8461V20.2924H5.35785C5.25969 20.2943 5.16622 20.3347 5.0975 20.4048C5.02878 20.4749 4.99029 20.5692 4.99029 20.6674C4.99029 20.7655 5.02879 20.8598 5.09752 20.9299C5.16624 21 5.25972 21.0404 5.35788 21.0424H16.8461V21.2873C16.846 21.3949 16.8032 21.4981 16.7271 21.5741C16.651 21.6502 16.5479 21.693 16.4403 21.6931Z" fill="#D620FF"/>
<path id="Vector_2" d="M22.4975 6.08538C22.4969 6.04408 22.4894 6.00317 22.4753 5.96434L21.3632 3.06763C21.3115 2.93293 21.2201 2.81707 21.1013 2.73534C20.9824 2.65361 20.8415 2.60986 20.6972 2.60986C20.5529 2.60986 20.412 2.65361 20.2931 2.73534C20.1742 2.81707 20.0829 2.93293 20.0312 3.06763L18.9191 5.96436C18.8323 6.17398 18.9293 19.9385 18.8941 20.1372C18.8945 20.4702 19.027 20.7894 19.2625 21.0249C19.498 21.2603 19.8173 21.3928 20.1503 21.3932H21.2441C21.5771 21.3928 21.8964 21.2603 22.1319 21.0248C22.3674 20.7894 22.4998 20.4701 22.5002 20.1371C22.4991 20.1321 22.5043 6.0909 22.4975 6.08538ZM19.6442 18.3745V6.47376H20.3224V18.3745H19.6442ZM21.0724 6.47375H21.7502V18.3745H21.0724L21.0724 6.47375ZM20.6974 3.42541L21.5796 5.72375H19.8148L20.6974 3.42541ZM21.2441 20.6432H20.1503C20.0161 20.643 19.8874 20.5897 19.7926 20.4948C19.6977 20.3999 19.6443 20.2713 19.6442 20.1371V19.1245H21.7502V20.1371C21.7501 20.2713 21.6967 20.3999 21.6018 20.4948C21.507 20.5897 21.3783 20.643 21.2441 20.6432Z" fill="#D620FF"/>
<path id="Vector_3" d="M13.843 8.31409C14.2907 8.30998 14.7187 8.12924 15.0339 7.81119C15.349 7.49314 15.5258 7.06351 15.5258 6.61577C15.5258 6.16802 15.349 5.7384 15.0338 5.42035C14.7187 5.10231 14.2907 4.92158 13.843 4.91748C13.3952 4.92159 12.9672 5.10233 12.6521 5.42038C12.337 5.73843 12.1602 6.16806 12.1602 6.6158C12.1602 7.06354 12.337 7.49317 12.6521 7.81122C12.9673 8.12926 13.3953 8.30999 13.843 8.31409ZM13.843 5.66748C14.0925 5.67054 14.3307 5.7718 14.5061 5.94931C14.6814 6.12682 14.7797 6.36628 14.7797 6.6158C14.7797 6.86531 14.6814 7.10476 14.506 7.28227C14.3307 7.45978 14.0925 7.56103 13.843 7.56409C13.5935 7.56103 13.3552 7.45977 13.1799 7.28226C13.0046 7.10474 12.9062 6.86528 12.9062 6.61577C12.9062 6.36626 13.0046 6.1268 13.1799 5.9493C13.3553 5.77179 13.5935 5.67054 13.843 5.66748Z" fill="#D620FF"/>
</g>
</g>
</svg>
