<svg width="46" height="46" viewBox="0 0 46 46" fill="none" xmlns="http://www.w3.org/2000/svg">
<circle cx="23" cy="23" r="23" fill="#D620FF"/>
<path d="M22.3241 10.8887C22.0402 10.8866 21.8087 11.1151 21.8067 11.3984C21.8046 11.6817 22.0325 11.9132 22.3164 11.9153C22.5997 11.9173 22.8312 11.6894 22.8333 11.4061C22.8353 11.1227 22.6074 10.8913 22.3241 10.8887Z" fill="white"/>
<path d="M22.2998 13.9688C20.3179 13.9548 18.6948 15.5537 18.6798 17.5349C18.6649 19.5161 20.2646 21.14 22.2459 21.1549C22.2551 21.155 22.2642 21.155 22.2734 21.155C24.242 21.155 25.851 19.5609 25.8659 17.5888C25.8808 15.6078 24.2811 13.9838 22.2998 13.9688ZM22.2733 20.1285C22.2668 20.1285 22.26 20.1284 22.2536 20.1284C20.8384 20.1177 19.6957 18.9577 19.7063 17.5426C19.717 16.1339 20.8661 14.9953 22.2724 14.9953C22.2788 14.9953 22.2856 14.9953 22.2921 14.9954C23.7073 15.0061 24.85 16.166 24.8393 17.5811C24.8286 18.9899 23.6795 20.1285 22.2733 20.1285Z" fill="white"/>
<path d="M24.5131 11.2797C24.2461 11.1849 23.9525 11.3248 23.8578 11.592C23.763 11.8592 23.9029 12.1526 24.1701 12.2473C26.431 13.0486 27.9378 15.202 27.9197 17.6056C27.9176 17.889 28.1457 18.1206 28.4292 18.1227C28.4305 18.1227 28.4318 18.1227 28.4331 18.1227C28.7147 18.1227 28.9442 17.8955 28.9463 17.6133C28.9677 14.7723 27.1861 12.227 24.5131 11.2797Z" fill="white"/>
<path d="M25.4226 28.1586C28.8367 23.764 30.9703 21.4724 30.9991 17.6276C31.0352 12.7901 27.1094 8.83594 22.2723 8.83594C17.4917 8.83594 13.5835 12.7076 13.5472 17.4967C13.5178 21.4458 15.6911 23.7343 19.1287 28.1579C15.7089 28.669 13.5472 29.9531 13.5472 31.5237C13.5472 32.5758 14.5197 33.5199 16.2856 34.1821C17.8929 34.7848 20.0193 35.1168 22.2731 35.1168C24.527 35.1168 26.6534 34.7848 28.2607 34.1821C30.0266 33.5199 30.9991 32.5758 30.9991 31.5237C30.9991 29.9539 28.8394 28.6701 25.4226 28.1586ZM14.5737 17.5045C14.6057 13.2785 18.0538 9.86253 22.2724 9.86253C26.541 9.86253 30.0044 13.3523 29.9726 17.62C29.9453 21.2713 27.6825 23.5214 24.0701 28.2306C23.4257 29.0701 22.834 29.8639 22.2739 30.6403C21.7154 29.8634 21.1355 29.0839 20.4815 28.2303C16.7198 23.3239 14.5459 21.2438 14.5737 17.5045ZM22.2731 34.0902C17.8664 34.0902 14.5737 32.7353 14.5737 31.5237C14.5737 30.6253 16.5421 29.4902 19.8518 29.0972C20.5834 30.0571 21.2248 30.9292 21.8539 31.8199C21.95 31.9559 22.1061 32.0369 22.2727 32.037C22.2728 32.037 22.273 32.037 22.2731 32.037C22.4396 32.037 22.5956 31.9563 22.6919 31.8206C23.315 30.9415 23.974 30.0479 24.6993 29.0978C28.0059 29.4912 29.9726 30.6259 29.9726 31.5238C29.9725 32.7353 26.6799 34.0902 22.2731 34.0902Z" fill="white"/>
</svg>
