<svg width="103" height="58" viewBox="0 0 103 58" fill="none" xmlns="http://www.w3.org/2000/svg">
<g id="Group">
<g id="Group_2">
<g id="Group_3">
<g id="Group_4">
<path id="Vector" d="M16.6543 48.228H18.0205V57.8899H16.6543V48.228Z" fill="url(#paint0_linear_2106_2796)"/>
<path id="Vector_2" d="M29.6186 49.4289H26.3398V48.228H34.2501V49.4289H30.9712V57.8899H29.6186V49.4289Z" fill="url(#paint1_linear_2106_2796)"/>
<path id="Vector_3" d="M67.1481 48.228V57.8899H65.7821V53.5835H60.29V57.8899H58.9238V48.228H60.29V52.3826H65.7821V48.228H67.1481Z" fill="url(#paint2_linear_2106_2796)"/>
<path id="Vector_4" d="M77.8323 56.8962C77.1219 56.1601 76.7666 55.1017 76.7666 53.7214V48.228H78.1328V53.6662C78.1328 55.7366 79.0297 56.772 80.8241 56.772C81.6985 56.772 82.3679 56.5166 82.8324 56.0059C83.2968 55.4952 83.529 54.7154 83.529 53.6664V48.228H84.8542V53.7214C84.8542 55.1111 84.4991 56.1715 83.7887 56.903C83.0783 57.6344 82.0854 58.0003 80.8105 58.0003C79.5351 58.0005 78.5427 57.6324 77.8323 56.8962Z" fill="url(#paint3_linear_2106_2796)"/>
<path id="Vector_5" d="M102.232 53.7283C102.55 54.1379 102.71 54.6555 102.71 55.2811C102.71 56.1187 102.398 56.7627 101.774 57.2136C101.15 57.6646 100.242 57.8899 99.0484 57.8899H94.4854V48.228H98.7751C99.8681 48.228 100.713 48.4489 101.309 48.8905C101.906 49.3322 102.204 49.9442 102.204 50.7264C102.204 51.2325 102.088 51.6697 101.856 52.0376C101.624 52.4057 101.312 52.6863 100.92 52.8796C101.476 53.0361 101.913 53.319 102.232 53.7283ZM95.8517 49.3461V52.4379H98.6524C99.3537 52.4379 99.8933 52.3068 100.271 52.0446C100.649 51.7823 100.838 51.3982 100.838 50.8921C100.838 50.3861 100.649 50.0017 100.271 49.7394C99.8932 49.4772 99.3537 49.3461 98.6524 49.3461H95.8517ZM100.743 56.3854C101.134 56.128 101.33 55.723 101.33 55.1709C101.33 54.0942 100.552 53.5558 98.9941 53.5558H95.8518V56.772H98.9941C99.7679 56.772 100.351 56.6432 100.743 56.3854Z" fill="url(#paint4_linear_2106_2796)"/>
</g>
<g id="Group_5">
<path id="Vector_6" d="M46.3268 48.228H44.9742L40.6436 57.8899H42.0506L45.6437 49.636L49.2369 57.8899H50.6713L46.3268 48.228Z" fill="url(#paint5_linear_2106_2796)"/>
</g>
<path id="Vector_7" d="M48.9458 56.6841H45.0182L44.4932 57.8904H49.4708L48.9458 56.6841Z" fill="url(#paint6_linear_2106_2796)"/>
<g id="Group_6">
<path id="Vector_8" d="M8.11553 48.229H6.38031L2.33957 52.1444L1.39453 53.0599L2.33957 53.9756L6.38031 57.8909H8.11553L3.25997 53.0599L8.11553 48.229Z" fill="url(#paint7_linear_2106_2796)"/>
<path id="Vector_9" d="M1.3662 48.229H0V57.8909H1.3662V48.229Z" fill="url(#paint8_linear_2106_2796)"/>
</g>
</g>
</g>
<g id="Group_7">
<path id="Vector_10" d="M66.3239 15.0786V20.4017C66.6759 20.5957 66.9141 20.9728 66.9141 21.4057C66.9141 21.7829 66.731 22.115 66.452 22.3235L66.9141 24.5342H64.6547L65.1169 22.3235C64.8378 22.1152 64.6547 21.7829 64.6547 21.4057C64.6547 20.9728 64.893 20.5958 65.2449 20.4017V15.7071L62.5731 17.266V29.3993H40.1364V17.266L33.1611 13.1982V31.9009L51.3548 42.5095L69.5485 31.9009V13.1982L66.3239 15.0786ZM47.2147 33.3503L49.1807 30.7731H53.5287L55.4947 33.3503H47.2147Z" fill="url(#paint9_linear_2106_2796)"/>
<path id="Vector_11" d="M69.5487 10.6112L51.3553 0L33.1611 10.6112L51.3548 21.2236L69.5487 10.6112Z" fill="url(#paint10_linear_2106_2796)"/>
</g>
</g>
<defs>
<linearGradient id="paint0_linear_2106_2796" x1="17.3374" y1="48.2428" x2="17.3374" y2="57.5844" gradientUnits="userSpaceOnUse">
<stop offset="0.0056" stop-color="#E2E8F0"/>
<stop offset="1" stop-color="#94A3B8"/>
</linearGradient>
<linearGradient id="paint1_linear_2106_2796" x1="30.2949" y1="48.2428" x2="30.2949" y2="57.5844" gradientUnits="userSpaceOnUse">
<stop offset="0.0056" stop-color="#E2E8F0"/>
<stop offset="1" stop-color="#94A3B8"/>
</linearGradient>
<linearGradient id="paint2_linear_2106_2796" x1="63.0359" y1="48.2428" x2="63.0359" y2="57.5844" gradientUnits="userSpaceOnUse">
<stop offset="0.0056" stop-color="#E2E8F0"/>
<stop offset="1" stop-color="#94A3B8"/>
</linearGradient>
<linearGradient id="paint3_linear_2106_2796" x1="80.8104" y1="48.2428" x2="80.8104" y2="57.5844" gradientUnits="userSpaceOnUse">
<stop offset="0.0056" stop-color="#E2E8F0"/>
<stop offset="1" stop-color="#94A3B8"/>
</linearGradient>
<linearGradient id="paint4_linear_2106_2796" x1="98.5977" y1="48.2428" x2="98.5977" y2="57.5844" gradientUnits="userSpaceOnUse">
<stop offset="0.0056" stop-color="#E2E8F0"/>
<stop offset="1" stop-color="#94A3B8"/>
</linearGradient>
<linearGradient id="paint5_linear_2106_2796" x1="45.6574" y1="48.2428" x2="45.6574" y2="57.5844" gradientUnits="userSpaceOnUse">
<stop offset="0.0056" stop-color="#E2E8F0"/>
<stop offset="1" stop-color="#94A3B8"/>
</linearGradient>
<linearGradient id="paint6_linear_2106_2796" x1="46.982" y1="48.2434" x2="46.982" y2="57.5849" gradientUnits="userSpaceOnUse">
<stop offset="0.0056" stop-color="#E2E8F0"/>
<stop offset="1" stop-color="#94A3B8"/>
</linearGradient>
<linearGradient id="paint7_linear_2106_2796" x1="4.75506" y1="48.2438" x2="4.75506" y2="57.5854" gradientUnits="userSpaceOnUse">
<stop offset="0.0056" stop-color="#E2E8F0"/>
<stop offset="1" stop-color="#94A3B8"/>
</linearGradient>
<linearGradient id="paint8_linear_2106_2796" x1="0.68313" y1="48.2438" x2="0.68313" y2="57.5854" gradientUnits="userSpaceOnUse">
<stop offset="0.0056" stop-color="#E2E8F0"/>
<stop offset="1" stop-color="#94A3B8"/>
</linearGradient>
<linearGradient id="paint9_linear_2106_2796" x1="71.3275" y1="16.962" x2="33.34" y2="30.9063" gradientUnits="userSpaceOnUse">
<stop stop-color="#D620FF"/>
<stop offset="1" stop-color="#0D6CFF"/>
</linearGradient>
<linearGradient id="paint10_linear_2106_2796" x1="66.8638" y1="4.80095" x2="28.8763" y2="18.7453" gradientUnits="userSpaceOnUse">
<stop stop-color="#D620FF"/>
<stop offset="1" stop-color="#0D6CFF"/>
</linearGradient>
</defs>
</svg>
