<svg width="24" height="24" viewBox="0 0 24 24" fill="none" xmlns="http://www.w3.org/2000/svg">
<g id="fi_3290118" clip-path="url(#clip0_2106_2862)">
<g id="Group">
<path id="Vector" d="M5.625 17.3385V3C5.625 1.5525 4.4475 0.375 3 0.375C1.5525 0.375 0.375 1.5525 0.375 3V17.3385L2.12175 20.832C2.289 21.1669 2.62575 21.375 3 21.375C3.37425 21.375 3.711 21.1669 3.87825 20.8324L5.625 17.3385ZM1.125 16.875V4.875H1.875V16.875H1.125ZM2.625 4.875H3.375V16.875H2.625V4.875ZM4.125 4.875H4.875V16.875H4.125V4.875ZM3 1.125C4.03387 1.125 4.875 1.96613 4.875 3V4.125H1.125V3C1.125 1.96613 1.96613 1.125 3 1.125ZM3.20738 20.4967C3.12825 20.655 2.87175 20.655 2.793 20.4967L1.35675 17.625H4.64325L3.20738 20.4967Z" fill="#D620FF"/>
<path id="Vector_2" d="M20.6252 20.6252V11.0957L9.9043 20.6252H20.6252ZM19.8752 19.8752H11.8772L19.8752 12.766V19.8752Z" fill="#D620FF"/>
<path id="Vector_3" d="M9.375 7.125H19.875C20.2886 7.125 20.625 6.78863 20.625 6.375V2.625C20.625 2.21137 20.2886 1.875 19.875 1.875H9.375C8.96137 1.875 8.625 2.21137 8.625 2.625V6.375C8.625 6.78863 8.96137 7.125 9.375 7.125ZM9.375 2.625H19.875L19.8754 6.375H9.375V2.625Z" fill="#D620FF"/>
<path id="Vector_4" d="M22.4722 5.625H22.4224C22.3207 5.625 22.2218 5.643 22.125 5.66887V2.25C22.125 1.21613 21.2839 0.375 20.25 0.375H9C7.96613 0.375 7.125 1.21613 7.125 2.25V18.9341L4.13325 21.6143C3.88988 21.8325 3.75 22.1456 3.75 22.4726C3.75 23.1079 4.26713 23.625 4.90275 23.625H22.4726C23.1079 23.625 23.625 23.1079 23.625 22.4726V6.77775C23.625 6.14212 23.1079 5.625 22.4722 5.625ZM7.875 2.25C7.875 1.62975 8.37975 1.125 9 1.125H20.25C20.8703 1.125 21.375 1.62975 21.375 2.25V6.16838L19.47 7.875H9.375C8.96137 7.875 8.625 8.21137 8.625 8.625V17.5905L7.875 18.2625V2.25ZM18.6326 8.625L9.375 16.9185V8.625H18.6326ZM22.875 22.4726C22.875 22.6946 22.6946 22.875 22.4722 22.875H22.125V21.375H21.375V22.875H20.625V22.125H19.875V22.875H19.125V21.375H18.375V22.875H17.625V22.125H16.875V22.875H16.125V21.375H15.375V22.875H14.625V22.125H13.875V22.875H13.125V21.375H12.375V22.875H11.625V22.125H10.875V22.875H10.125V21.375H9.375V22.875H8.625V22.125H7.875V22.875H7.125V21.375H6.375V22.875H4.90275C4.68038 22.875 4.5 22.6946 4.5 22.4726C4.5 22.3582 4.54875 22.2487 4.63388 22.1726L22.1535 6.47775C22.2278 6.41138 22.323 6.375 22.4224 6.375H22.4722C22.6946 6.375 22.875 6.55537 22.875 6.77775V22.4726Z" fill="#D620FF"/>
<path id="Vector_5" d="M10.875 11.625H11.625C12.0386 11.625 12.375 11.2886 12.375 10.875V10.125C12.375 9.71137 12.0386 9.375 11.625 9.375H10.875C10.4614 9.375 10.125 9.71137 10.125 10.125V10.875C10.125 11.2886 10.4614 11.625 10.875 11.625ZM10.875 10.125H11.625L11.6254 10.875H10.875V10.125Z" fill="#D620FF"/>
<path id="Vector_6" d="M13.875 11.625H14.625C15.0386 11.625 15.375 11.2886 15.375 10.875V10.125C15.375 9.71137 15.0386 9.375 14.625 9.375H13.875C13.4614 9.375 13.125 9.71137 13.125 10.125V10.875C13.125 11.2886 13.4614 11.625 13.875 11.625ZM13.875 10.125H14.625L14.6254 10.875H13.875V10.125Z" fill="#D620FF"/>
<path id="Vector_7" d="M10.875 14.625H11.625C12.0386 14.625 12.375 14.2886 12.375 13.875V13.125C12.375 12.7114 12.0386 12.375 11.625 12.375H10.875C10.4614 12.375 10.125 12.7114 10.125 13.125V13.875C10.125 14.2886 10.4614 14.625 10.875 14.625ZM10.875 13.125H11.625L11.6254 13.875H10.875V13.125Z" fill="#D620FF"/>
</g>
</g>
<defs>
<clipPath id="clip0_2106_2862">
<rect width="24" height="24" fill="white"/>
</clipPath>
</defs>
</svg>
