<svg width="20" height="21" viewBox="0 0 20 21" fill="none" xmlns="http://www.w3.org/2000/svg">
<g id="fi_5405264" clip-path="url(#clip0_0_1462)">
<g id="31 - 40">
<g id="Math">
<path id="Vector" d="M17.5 0.5H2.5C1.11929 0.5 0 1.61929 0 3V18C0 19.3807 1.11929 20.5 2.5 20.5H17.5C18.8807 20.5 20 19.3807 20 18V3C20 1.61929 18.8807 0.5 17.5 0.5Z" fill="#00CF66"/>
<path id="Vector_2" d="M10 10.5V20.5H2.5C1.83696 20.5 1.20108 20.2366 0.732234 19.7678C0.263392 19.2989 0 18.663 0 18V10.5H10Z" fill="#FD3730"/>
<path id="Vector_3" d="M20 10.5V18C20 18.663 19.7366 19.2989 19.2678 19.7678C18.7989 20.2366 18.163 20.5 17.5 20.5H10V10.5H20Z" fill="#009AE0"/>
<path id="Vector_4" d="M20 3V10.5H10V0.5H17.5C18.163 0.5 18.7989 0.763392 19.2678 1.23223C19.7366 1.70108 20 2.33696 20 3Z" fill="#FAC100"/>
<path id="Vector_5" d="M0 8.5H10V10.5H0V8.5Z" fill="#00B157"/>
<path id="Vector_6" d="M2.50005 20.5H10.0001V18.5H0.0500488C0.165314 19.0647 0.47214 19.5722 0.918598 19.9367C1.36506 20.3011 1.92372 20.5001 2.50005 20.5Z" fill="#D3241F"/>
<path id="Vector_7" d="M19.95 18.5H10V20.5H17.5C18.0763 20.5001 18.635 20.3011 19.0815 19.9367C19.5279 19.5722 19.8347 19.0647 19.95 18.5Z" fill="#0081BD"/>
<path id="Vector_8" d="M10 8.5H20V10.5H10V8.5Z" fill="#FF9500"/>
<g id="Group">
<path id="Vector_9" d="M6.75 5H5.5V3.75C5.5 3.61739 5.44732 3.49022 5.35356 3.39645C5.25979 3.30268 5.13261 3.25 5 3.25C4.86739 3.25 4.74022 3.30268 4.64645 3.39645C4.55268 3.49022 4.5 3.61739 4.5 3.75V5H3.25C3.11739 5 2.99022 5.05268 2.89645 5.14645C2.80268 5.24022 2.75 5.36739 2.75 5.5C2.75 5.63261 2.80268 5.75979 2.89645 5.85356C2.99022 5.94732 3.11739 6 3.25 6H4.5V7.25C4.5 7.38261 4.55268 7.50979 4.64645 7.60356C4.74022 7.69733 4.86739 7.75 5 7.75C5.13261 7.75 5.25979 7.69733 5.35356 7.60356C5.44732 7.50979 5.5 7.38261 5.5 7.25V6H6.75C6.88261 6 7.00979 5.94732 7.10356 5.85356C7.19733 5.75979 7.25 5.63261 7.25 5.5C7.25 5.36739 7.19733 5.24022 7.10356 5.14645C7.00979 5.05268 6.88261 5 6.75 5Z" fill="#EAEFF0"/>
<path id="Vector_10" d="M6.59099 13.909C6.49723 13.8153 6.37008 13.7626 6.23749 13.7626C6.10491 13.7626 5.97776 13.8153 5.88399 13.909L4.99999 14.793L4.11599 13.909C4.06987 13.8612 4.0147 13.8231 3.95369 13.7969C3.89269 13.7707 3.82708 13.7569 3.76069 13.7564C3.6943 13.7558 3.62846 13.7684 3.56701 13.7936C3.50557 13.8187 3.44974 13.8558 3.40279 13.9028C3.35585 13.9497 3.31872 14.0056 3.29358 14.067C3.26844 14.1285 3.25579 14.1943 3.25637 14.2607C3.25694 14.3271 3.27074 14.3927 3.29694 14.4537C3.32315 14.5147 3.36124 14.5699 3.40899 14.616L4.29299 15.5L3.40899 16.384C3.36124 16.4301 3.32315 16.4853 3.29694 16.5463C3.27074 16.6073 3.25694 16.6729 3.25637 16.7393C3.25579 16.8057 3.26844 16.8715 3.29358 16.933C3.31872 16.9944 3.35585 17.0502 3.40279 17.0972C3.44974 17.1441 3.50557 17.1813 3.56701 17.2064C3.62846 17.2315 3.6943 17.2442 3.76069 17.2436C3.82708 17.243 3.89269 17.2293 3.95369 17.203C4.0147 17.1768 4.06987 17.1388 4.11599 17.091L4.99999 16.207L5.88399 17.091C5.93012 17.1388 5.98529 17.1768 6.04629 17.203C6.10729 17.2293 6.1729 17.243 6.23929 17.2436C6.30568 17.2442 6.37152 17.2315 6.43297 17.2064C6.49442 17.1813 6.55025 17.1441 6.59719 17.0972C6.64414 17.0502 6.68126 16.9944 6.70641 16.933C6.73155 16.8715 6.7442 16.8057 6.74362 16.7393C6.74304 16.6729 6.72925 16.6073 6.70305 16.5463C6.67684 16.4853 6.63875 16.4301 6.59099 16.384L5.70699 15.5L6.59099 14.616C6.68473 14.5222 6.73739 14.3951 6.73739 14.2625C6.73739 14.1299 6.68473 14.0028 6.59099 13.909Z" fill="#EAEFF0"/>
<path id="Vector_11" d="M13.25 6H16.75C16.8826 6 17.0098 5.94732 17.1036 5.85355C17.1973 5.75979 17.25 5.63261 17.25 5.5C17.25 5.36739 17.1973 5.24022 17.1036 5.14645C17.0098 5.05268 16.8826 5 16.75 5H13.25C13.1174 5 12.9902 5.05268 12.8964 5.14645C12.8027 5.24022 12.75 5.36739 12.75 5.5C12.75 5.63261 12.8027 5.75979 12.8964 5.85355C12.9902 5.94732 13.1174 6 13.25 6Z" fill="#EAEFF0"/>
<path id="Vector_12" d="M16.75 14H13.25C13.1174 14 12.9902 14.0527 12.8964 14.1464C12.8027 14.2402 12.75 14.3674 12.75 14.5C12.75 14.6326 12.8027 14.7598 12.8964 14.8536C12.9902 14.9473 13.1174 15 13.25 15H16.75C16.8826 15 17.0098 14.9473 17.1036 14.8536C17.1973 14.7598 17.25 14.6326 17.25 14.5C17.25 14.3674 17.1973 14.2402 17.1036 14.1464C17.0098 14.0527 16.8826 14 16.75 14Z" fill="#EAEFF0"/>
<path id="Vector_13" d="M16.75 16H13.25C13.1174 16 12.9902 16.0527 12.8964 16.1464C12.8027 16.2402 12.75 16.3674 12.75 16.5C12.75 16.6326 12.8027 16.7598 12.8964 16.8536C12.9902 16.9473 13.1174 17 13.25 17H16.75C16.8826 17 17.0098 16.9473 17.1036 16.8536C17.1973 16.7598 17.25 16.6326 17.25 16.5C17.25 16.3674 17.1973 16.2402 17.1036 16.1464C17.0098 16.0527 16.8826 16 16.75 16Z" fill="#EAEFF0"/>
</g>
</g>
</g>
</g>
<defs>
<clipPath id="clip0_0_1462">
<rect width="20" height="20" fill="white" transform="translate(0 0.5)"/>
</clipPath>
</defs>
</svg>
