<svg width="12" height="12" viewBox="0 0 12 12" fill="none" xmlns="http://www.w3.org/2000/svg">
<path fill-rule="evenodd" clip-rule="evenodd" d="M10.8488 7.91697C10.8488 8.93032 10.0245 9.75332 9.0124 9.75332H2.98763C1.97557 9.75332 1.15125 8.93029 1.15125 7.91697V4.08349C1.15125 3.74529 1.24385 3.42764 1.40459 3.15501L4.34431 6.09473C4.78411 6.53582 5.37307 6.77887 6.00063 6.77887C6.62691 6.77887 7.21587 6.53582 7.65567 6.09473L10.5954 3.15501C10.7561 3.42764 10.8487 3.74526 10.8487 4.08349V7.91697H10.8488ZM9.01238 2.24714H2.98763C2.56969 2.24714 2.18388 2.38858 1.87526 2.62392L4.84456 5.5945C5.15191 5.90055 5.56212 6.07031 6.00063 6.07031C6.43786 6.07031 6.84809 5.90055 7.15542 5.5945L10.1247 2.62392C9.81612 2.38858 9.43034 2.24714 9.01238 2.24714ZM9.01238 1.53857H2.98763C1.58463 1.53857 0.442688 2.68052 0.442688 4.08351V7.917C0.442688 9.32128 1.58463 10.4619 2.98763 10.4619H9.01238C10.4154 10.4619 11.5573 9.32128 11.5573 7.917V4.08349C11.5573 2.6805 10.4154 1.53857 9.01238 1.53857Z" fill="#0B0B2C"/>
</svg>
