<svg width="20" height="20" viewBox="0 0 20 20" fill="none" xmlns="http://www.w3.org/2000/svg">
<path d="M6.04163 6.66669C6.04163 6.32151 6.32145 6.04169 6.66663 6.04169H9.99996C10.3451 6.04169 10.625 6.32151 10.625 6.66669C10.625 7.01186 10.3451 7.29169 9.99996 7.29169H6.66663C6.32145 7.29169 6.04163 7.01186 6.04163 6.66669Z" fill="#0B0B2C"/>
<path d="M6.04163 10C6.04163 9.65483 6.32145 9.375 6.66663 9.375H13.3333C13.6785 9.375 13.9583 9.65483 13.9583 10C13.9583 10.3452 13.6785 10.625 13.3333 10.625H6.66663C6.32145 10.625 6.04163 10.3452 6.04163 10Z" fill="#0B0B2C"/>
<path fill-rule="evenodd" clip-rule="evenodd" d="M8.30533 1.04169H11.6946C12.8377 1.04169 13.7339 1.04168 14.4542 1.10053C15.1876 1.16045 15.7935 1.2845 16.342 1.56395C17.2436 2.02334 17.9766 2.75637 18.436 3.65798C18.7155 4.20643 18.8395 4.81235 18.8995 5.5458C18.9583 6.26609 18.9583 7.16228 18.9583 8.30537V9.32019V9.4426C18.9585 10.7331 18.9586 11.5204 18.7647 12.1816C18.3055 13.7476 17.0809 14.9723 15.5149 15.4314C14.8536 15.6254 14.0664 15.6252 12.7759 15.625C12.7355 15.625 12.6948 15.625 12.6535 15.625H12.1961L12.1459 15.6251C11.4232 15.6297 10.7193 15.8554 10.1285 16.2716L10.0875 16.3008L7.91197 17.8548C6.65821 18.7503 5.01069 17.457 5.58291 16.0264C5.65982 15.8342 5.51822 15.625 5.31113 15.625H4.80968C2.72863 15.625 1.04163 13.938 1.04163 11.8569V8.30539C1.04163 7.16229 1.04162 6.2661 1.10047 5.5458C1.16039 4.81235 1.28444 4.20643 1.56388 3.65798C2.02328 2.75637 2.75631 2.02334 3.65792 1.56395C4.20637 1.2845 4.81228 1.16045 5.54574 1.10053C6.26603 1.04168 7.16223 1.04169 8.30533 1.04169ZM5.64753 2.34638C4.99138 2.39999 4.56827 2.50301 4.22541 2.6777C3.559 3.01725 3.01719 3.55906 2.67764 4.22547C2.50295 4.56833 2.39993 4.99144 2.34632 5.64759C2.29211 6.31104 2.29163 7.15626 2.29163 8.33335V11.8569C2.29163 13.2477 3.41899 14.375 4.80968 14.375H5.31113C6.40255 14.375 7.14885 15.4774 6.74351 16.4907C6.63493 16.7621 6.94753 17.0075 7.18542 16.8376L9.40846 15.2498C10.2077 14.6866 11.1601 14.3814 12.1379 14.3751L12.1961 14.375H12.6535C14.105 14.375 14.6969 14.3687 15.1631 14.2319C16.3206 13.8925 17.2258 12.9874 17.5652 11.8299C17.702 11.3636 17.7083 10.7718 17.7083 9.32019V8.33335C17.7083 7.15626 17.7078 6.31104 17.6536 5.64759C17.6 4.99144 17.497 4.56833 17.3223 4.22547C16.9827 3.55906 16.4409 3.01725 15.7745 2.6777C15.4316 2.50301 15.0085 2.39999 14.3524 2.34638C13.689 2.29217 12.8437 2.29169 11.6666 2.29169H8.33329C7.1562 2.29169 6.31098 2.29217 5.64753 2.34638Z" fill="#0B0B2C"/>
</svg>
