<svg width="14" height="14" viewBox="0 0 14 14" fill="none" xmlns="http://www.w3.org/2000/svg">
<path d="M2.6582 0.60498C1.45216 0.60498 0.498047 1.6841 0.498047 2.98193V7.90576C0.498047 9.2036 1.45216 10.2827 2.6582 10.2827H8.26758L11.8994 13.3354C11.947 13.3756 12.0009 13.394 12.0537 13.3951C12.2013 13.3983 12.3398 13.2661 12.3057 13.0952L11.7041 10.146C12.7135 9.93713 13.502 9.05489 13.502 7.90576V2.98193C13.502 1.6841 12.5488 0.60498 11.3428 0.60498H2.6582ZM2.6582 1.10303H11.3428C12.2498 1.10303 13 1.92489 13 2.98193V7.90576C13 8.93497 12.2854 9.73951 11.4131 9.78076C11.2602 9.78796 11.1496 9.92954 11.1797 10.0796L11.6748 12.4897L8.52246 9.83936C8.47708 9.80123 8.41963 9.78046 8.36035 9.78076H2.6582C1.75122 9.78076 1.00098 8.96281 1.00098 7.90576V2.98193C1.00098 1.92489 1.75122 1.10303 2.6582 1.10303ZM4.49902 4.70166C4.07692 4.70166 3.73145 5.05104 3.73145 5.47314C3.73145 5.89525 4.07692 6.24072 4.49902 6.24072C4.92113 6.24072 5.27051 5.89525 5.27051 5.47314C5.27051 5.05104 4.92113 4.70166 4.49902 4.70166ZM6.99805 4.70166C6.57594 4.70166 6.23047 5.05104 6.23047 5.47314C6.23047 5.89525 6.57594 6.24072 6.99805 6.24072C7.42015 6.24072 7.76953 5.89525 7.76953 5.47314C7.76953 5.05104 7.42015 4.70166 6.99805 4.70166ZM9.50098 4.70166C9.07887 4.70166 8.72949 5.05104 8.72949 5.47314C8.72949 5.89525 9.07887 6.24072 9.50098 6.24072C9.92308 6.24072 10.2686 5.89525 10.2686 5.47314C10.2686 5.05104 9.92308 4.70166 9.50098 4.70166ZM4.49902 5.20361C4.65091 5.20361 4.76856 5.32126 4.76856 5.47314C4.76856 5.62503 4.65091 5.74268 4.49902 5.74268C4.34714 5.74268 4.23047 5.62503 4.23047 5.47314C4.23047 5.32126 4.34714 5.20361 4.49902 5.20361ZM6.99805 5.20361C7.14993 5.20361 7.27148 5.32126 7.27148 5.47314C7.27148 5.62503 7.14993 5.74268 6.99805 5.74268C6.84616 5.74268 6.72852 5.62503 6.72852 5.47314C6.72852 5.32126 6.84616 5.20361 6.99805 5.20361ZM9.50098 5.20361C9.65286 5.20361 9.77051 5.32126 9.77051 5.47314C9.77051 5.62503 9.65286 5.74268 9.50098 5.74268C9.34909 5.74268 9.23144 5.62503 9.23144 5.47314C9.23144 5.32126 9.34909 5.20361 9.50098 5.20361Z" fill="#74759A"/>
</svg>
