<svg width="797" height="423" viewBox="0 0 797 423" fill="none" xmlns="http://www.w3.org/2000/svg">
<g clip-path="url(#clip0_0_2372)">
<path d="M615.994 405.375C610.281 412.783 603.567 418.288 605.04 420.789C605.04 420.789 608.081 423 616.474 423C630.863 423 645.003 421.903 642.68 420.446C639.463 418.426 630.148 417.695 621.246 414.615C619.046 413.853 626.062 409.591 624.144 408.896C620.179 407.452 617.089 406.203 615.994 405.375Z" fill="#E5A57F"/>
<path d="M764.245 420.348C764.245 420.348 766.135 423 773.391 423C785.832 423 798.8 421.311 796.793 420.049C794.011 418.306 772.205 413.755 772.205 413.755L767.317 407.684L759.024 412.27L764.245 420.348Z" fill="#E5A57F"/>
<path d="M724.828 237.023C715.905 237.023 709.157 235.24 708.593 235.089C703.939 233.818 701.194 229.017 702.465 224.364C703.731 219.714 708.517 216.977 713.165 218.225C713.47 218.306 733.116 223.338 744.583 213.5C752.258 206.912 755.174 194.506 753.251 176.626L752.637 170.922L770.304 160.914C774.508 158.535 779.836 160.01 782.212 164.207C784.591 168.404 783.115 173.735 778.917 176.111L771.107 180.537C772.341 201.598 767.223 217.16 755.861 226.842C746.282 235.004 734.325 237.023 724.828 237.023Z" fill="#E5A57F"/>
<path d="M755.063 188.556C754.731 201.26 751.356 210.451 744.951 215.943C732.372 226.74 710.827 221.234 710.457 221.136C705.35 219.759 700.097 222.772 698.707 227.872C697.313 232.98 700.325 238.254 705.434 239.649C706.054 239.814 713.47 243.514 723.259 243.166C760.431 241.847 782.865 209.787 783.28 191.096L755.063 188.556Z" fill="#E1F3F6"/>
<path d="M703.952 144.098C700.621 142.605 697.349 140.989 694.125 139.293C663.325 156.831 623.973 179.298 623.192 180.081C623.192 180.081 642.752 211.218 644.002 212.466C644.805 213.269 693.303 178.485 728.192 153.282C720.143 150.166 711.841 147.635 703.952 144.098Z" fill="#0147B3"/>
<path d="M704.456 143.202C712.521 146.76 720.994 149.342 729.193 152.563C748.402 138.683 763.251 127.883 763.251 127.883L730.419 118.659C730.419 118.659 714.621 127.625 695.155 138.706C698.209 140.299 701.304 141.81 704.456 143.202Z" fill="#0D6CFF"/>
<path d="M647.859 102.327L667.188 154.65L704.975 168.513L657.11 81.0908L647.859 102.327Z" fill="#003FA0"/>
<path d="M707.032 181.365H679.036L703.954 224.89L741.942 240.901L707.032 181.365Z" fill="#006091"/>
<path d="M741.942 240.902L719.654 202.887L624.307 258.777L605.557 226.798L617.332 36.6719L660.179 11.5576L737.301 143.092L763.251 127.883L784.832 164.688L758.882 179.898L781.169 217.909L741.942 240.902ZM655.444 93.3774L653.033 94.7926L646.479 196.325L698.076 166.084L655.444 93.3774Z" fill="#0454CE"/>
<path d="M573.86 218.096L605.557 226.797L624.307 258.776L590.816 250.294L573.86 218.096Z" fill="#003FA0"/>
<path d="M573.86 218.096L605.557 226.797L617.332 36.6717L588.25 29.7134L573.86 218.096Z" fill="#0D6CFF"/>
<path d="M588.25 29.7135L617.332 36.6718L660.179 11.5575L630.729 2.99658L588.25 29.7135Z" fill="#0D6CFF"/>
<path d="M652.018 293.858C652.018 293.858 656.677 344.1 656.677 361.699C656.677 361.699 620.087 390.214 611.128 405.129C614.976 408.058 622.582 411.945 627.564 411.794C651.978 388.485 678.775 371.849 678.775 371.849C678.775 371.849 690.336 338.323 693.934 309.937L652.018 293.858Z" fill="#0454CE"/>
<path d="M678.098 296.23C686.337 296.288 694.756 294.87 701.843 291.023C699.464 280.989 704.531 251.386 710.894 235.566C710.894 235.566 715.912 224.551 712.394 221.168C699.378 208.65 688.301 209.676 684.857 209.538C672.908 219.621 650.676 249.38 651.568 288.71C657.707 295.16 670.177 296.176 678.098 296.23Z" fill="#E1F3F6"/>
<path d="M758.81 413.652C763.574 412.328 768.142 410.126 771.073 406.23C756.944 383.318 705.133 299.162 702.327 292.574C702.256 292.405 702.191 292.209 702.124 292.017C694.516 296.118 685.436 297.562 676.635 297.223C668.969 296.929 657.872 295.855 651.613 290.18C651.628 290.586 651.63 290.987 651.65 291.397C652.732 313.365 725.613 386.608 754.294 414.615C755.872 414.383 757.406 414.04 758.81 413.652Z" fill="#0D6CFF"/>
<path d="M608.362 273.451C606.337 273.451 604.394 273.161 602.537 272.537C598.685 271.249 593.586 268.004 591.179 259.882C589.808 255.255 592.445 250.392 597.073 249.023C601.699 247.65 606.558 250.294 607.929 254.916C608.092 255.456 608.241 255.799 608.348 255.999C609.28 256.04 612.74 255.736 621.162 250.788C628.685 246.371 637.586 239.787 646.193 233.422C660.737 222.661 674.473 212.502 685.817 208.914C690.414 207.456 695.325 210.01 696.78 214.606C698.236 219.206 695.688 224.114 691.089 225.567C682.522 228.278 669.337 238.035 656.584 247.463C637.914 261.273 621.451 273.451 608.362 273.451Z" fill="#E5A57F"/>
<path d="M624.706 266.921C623.636 261.777 622.515 256.098 619.258 251.872C612.216 255.772 609.207 256.035 608.348 255.999C608.241 255.799 608.092 255.456 607.929 254.916C606.558 250.294 601.699 247.65 597.073 249.023C592.445 250.392 589.808 255.255 591.179 259.882C593.586 268.004 598.685 271.249 602.537 272.537C604.394 273.161 606.337 273.451 608.362 273.451C613.438 273.451 619.022 271.615 625.045 268.566C624.931 268.017 624.82 267.469 624.706 266.921Z" fill="#E5A57F"/>
<path d="M696.78 214.606C695.325 210.01 690.414 207.456 685.817 208.914C674.473 212.502 660.737 222.661 646.193 233.422C637.586 239.787 628.685 246.371 621.162 250.788C620.818 250.994 620.495 251.172 620.167 251.359C623.433 255.674 629.086 276.955 629.187 277.441C638.449 272.595 682.884 238.775 692.516 228.567C695.829 225.059 698.236 219.206 696.78 214.606Z" fill="#E1F3F6"/>
<path d="M596.007 266.395C595.49 266.395 594.969 266.239 594.516 265.918C587.661 261.019 584.086 251.591 583.936 251.194C583.442 249.866 584.115 248.386 585.446 247.886C586.772 247.396 588.252 248.065 588.749 249.393C588.783 249.478 591.941 257.765 597.503 261.736C598.658 262.561 598.926 264.166 598.101 265.316C597.599 266.02 596.81 266.395 596.007 266.395Z" fill="#E5A57F"/>
<path d="M596.012 260.132C595.205 260.132 594.411 259.753 593.912 259.044C590.633 254.399 588.005 243.362 587.715 242.123C587.396 240.741 588.254 239.359 589.636 239.038C591.023 238.708 592.401 239.578 592.722 240.959C593.446 244.066 595.822 252.839 598.107 256.08C598.928 257.239 598.651 258.843 597.492 259.659C597.042 259.98 596.525 260.132 596.012 260.132Z" fill="#E5A57F"/>
<path d="M599.556 258.687C598.542 258.687 597.581 258.085 597.175 257.087C594.821 251.319 593.903 239.221 593.865 238.708C593.76 237.295 594.821 236.065 596.237 235.958C597.659 235.842 598.883 236.916 598.99 238.329C599.231 241.597 600.234 250.984 601.932 255.148C602.47 256.463 601.839 257.961 600.526 258.496C600.207 258.625 599.879 258.687 599.556 258.687Z" fill="#E5A57F"/>
<path d="M603.411 257.448C602.265 257.448 601.224 256.682 600.923 255.523C599.307 249.246 600.78 242.845 600.845 242.578C601.17 241.196 602.559 240.344 603.934 240.665C605.314 240.991 606.17 242.372 605.847 243.754C605.82 243.875 604.616 249.255 605.901 254.239C606.255 255.616 605.426 257.016 604.053 257.368C603.839 257.426 603.622 257.448 603.411 257.448Z" fill="#E5A57F"/>
<path d="M706.709 228.567C705.532 228.567 704.338 228.313 703.203 227.778C699.097 225.839 697.342 220.936 699.284 216.835C701.313 212.542 704.975 208.147 705.387 207.656C708.319 204.189 713.502 203.752 716.973 206.68C720.441 209.604 720.883 214.784 717.962 218.257C716.932 219.478 714.989 222.081 714.15 223.86C712.746 226.829 709.79 228.567 706.709 228.567Z" fill="#E5A57F"/>
<path d="M707.895 224.337C708.867 225.411 709.888 226.423 710.949 227.386C712.296 226.579 713.428 225.385 714.15 223.86C714.989 222.081 716.932 219.478 717.962 218.257C720.882 214.784 720.441 209.604 716.972 206.68C713.502 203.752 708.319 204.189 705.387 207.656C705.225 207.853 704.556 208.655 703.682 209.814C703.756 214.994 704.3 220.374 707.895 224.337Z" fill="#E79B6E"/>
<path d="M734.895 215.266C731.623 223.2 722.539 226.985 714.601 223.713C706.665 220.441 702.882 211.356 706.154 203.417L710.267 193.445C713.54 185.506 722.628 181.726 730.564 184.998C738.5 188.27 742.281 197.355 739.008 205.289L734.895 215.266Z" fill="#E5A57F"/>
<path d="M707.893 202.258C706.629 207.598 698.956 205.887 696.076 203.096C692.106 199.258 689.736 188.395 698.533 188.974C692.197 179.412 713.687 169.041 715.943 180.092C717.621 177.241 719.338 174.68 723.076 174.439C725.767 174.268 730.479 176.349 730.089 179.646C734.086 176.488 739.907 176.733 743.861 179.924C745.125 180.948 747.406 183.22 746.264 184.878C745.638 185.792 742.399 186.073 741.315 186.402C743.186 185.556 750.843 187.263 749.336 190.446C748.634 191.93 744.886 190.597 743.79 190.281C743.79 190.281 743.779 190.628 743.79 190.615C747.88 192.857 749.566 195.13 749.075 200.221C748.85 202.561 747.742 206.983 744.958 207.318C743.531 207.487 741.884 206.586 741.909 205.093C745.326 208.503 740.486 217.633 736.17 213.13C734.479 211.365 735.294 208.405 736.899 206.881C734.347 205.414 728.81 197.654 732.749 195.576C730.907 195.621 722.381 192.728 725.093 190.276C725.809 193.12 722.287 196.802 719.485 195.34C721.228 199.133 716.101 201.964 712.951 202.098C714.879 204.523 708.936 207.402 707.122 203.885L707.893 202.258Z" fill="#00396A"/>
<path d="M415.83 171.237C415.83 171.237 410.841 152.14 435.592 147.604L433.706 170.55L415.83 171.237Z" fill="#E79B6E"/>
<path d="M316.655 219.456C311.236 219.456 306.198 218.359 301.553 216.162C279.069 205.539 276.57 173.626 276.476 172.273C276.137 167.459 279.764 163.284 284.577 162.946C289.381 162.611 293.552 166.222 293.902 171.025C294.39 177.446 298.062 195.224 309.054 200.386C318.131 204.648 332.211 200.31 349.775 187.838C353.707 185.043 359.162 185.97 361.955 189.902C364.748 193.838 363.823 199.29 359.889 202.085C343.6 213.648 329.125 219.456 316.655 219.456Z" fill="#CDE5E8"/>
<path d="M363.141 235.847C365.571 229.472 367.822 223 370.446 216.697C368.678 216.558 366.895 216.331 365.085 215.988C356.609 214.37 349.434 210.924 343.559 205.646C337.679 200.373 333.14 193.686 329.939 185.6C326.736 177.511 324.874 168.317 324.353 158.009C323.827 147.706 324.66 136.828 326.847 125.374C329.079 113.695 332.327 103.223 336.591 93.948C340.856 84.6761 345.965 76.8674 351.926 70.5299C357.882 64.1911 364.565 59.6543 371.975 56.9151C379.381 54.1793 387.323 53.6144 395.799 55.2335C402.509 56.5161 408.418 59.0458 413.561 62.7781C416.037 57.8378 418.699 52.987 421.234 48.1492C424.228 42.4268 427.007 36.5996 429.669 30.7199C430.806 28.2048 431.791 25.616 432.823 23.0495C424.234 18.1538 414.608 14.6803 403.937 12.6409C388.819 9.75465 374.588 10.3006 361.248 14.2791C347.902 18.2608 335.891 24.9229 325.202 34.2737C314.513 43.6259 305.443 55.3661 297.999 69.4858C290.549 83.6119 285.168 99.3785 281.844 116.779C278.518 134.185 277.707 150.825 279.428 166.696C281.14 182.569 285.244 196.82 291.733 209.453C298.222 222.086 306.929 232.713 317.87 241.325C328.053 249.349 340.051 254.885 353.863 257.943C357.133 250.65 360.296 243.322 363.141 235.847Z" fill="#0D6CFF"/>
<path d="M481.456 104.526C479.737 88.6547 475.637 74.3992 469.15 61.7673C462.661 49.1345 453.947 38.5141 443.015 29.8954C440.07 27.5775 436.97 25.4734 433.724 23.5688C432.701 26.1342 431.722 28.7196 430.565 31.2237C427.852 37.0833 425.135 42.9317 422.13 48.6518C419.571 53.5195 416.885 58.4041 414.395 63.3821C415.28 64.0574 416.145 64.7597 416.98 65.5096C422.854 70.7875 427.451 77.4794 430.768 85.5889C434.085 93.6984 436.018 102.851 436.564 113.042C437.108 123.236 436.265 134.168 434.036 145.846C431.849 157.3 428.61 167.72 424.326 177.103C420.039 186.492 414.856 194.342 408.784 200.658C402.709 206.975 395.97 211.508 388.565 214.241C383.103 216.26 377.417 217.098 371.507 216.772C368.6 223.668 366.153 230.769 363.502 237.75C360.878 244.655 357.931 251.426 354.897 258.162C355.58 258.304 356.259 258.447 356.948 258.581C372.062 261.469 386.289 260.921 399.633 256.94C412.972 252.964 424.99 246.3 435.679 236.948C446.37 227.596 455.434 215.859 462.882 201.732C470.327 187.615 475.715 171.847 479.041 154.444C482.365 137.042 483.168 120.401 481.456 104.526Z" fill="#003FA0"/>
<path d="M383.64 267.652C368.524 264.763 355.497 259.009 344.563 250.397C333.622 241.784 324.915 231.157 318.428 218.524C311.936 205.892 307.835 191.64 306.12 175.766C304.401 159.896 305.213 143.256 308.537 125.85C311.86 108.45 317.241 92.6844 324.694 78.5583C332.137 64.4375 341.208 52.6961 351.897 43.3451C362.586 33.9942 374.597 27.331 387.943 23.3493C401.282 19.372 415.511 18.8249 430.63 21.7122C445.744 24.5987 458.767 30.3512 469.705 38.9655C480.642 47.5856 489.354 58.2058 495.843 70.8375C502.334 83.4705 506.429 97.726 508.15 113.597C509.862 129.473 509.06 146.114 505.734 163.514C502.408 180.919 497.022 196.682 489.576 210.804C482.127 224.93 473.063 236.667 462.373 246.019C451.684 255.371 439.667 262.035 426.327 266.012C412.981 269.988 398.757 270.54 383.64 267.652ZM391.779 225.059C400.025 226.633 407.847 226.053 415.257 223.312C422.663 220.579 429.404 216.046 435.478 209.729C441.548 203.413 446.731 195.563 451.018 186.175C455.305 176.791 458.541 166.371 460.728 154.919C462.96 143.238 463.802 132.307 463.256 122.112C462.712 111.922 460.777 102.769 457.465 94.6602C454.146 86.5496 449.547 79.8588 443.675 74.5809C437.794 69.3074 430.737 65.8796 422.493 64.3048C414.016 62.6846 406.073 63.2506 398.67 65.9855C391.258 68.7257 384.577 73.2624 378.618 79.6013C372.657 85.9388 367.548 93.7464 363.286 103.019C359.019 112.295 355.773 122.766 353.542 134.446C351.353 145.9 350.521 156.777 351.045 167.08C351.569 177.388 353.428 186.581 356.634 194.672C359.835 202.758 364.371 209.444 370.252 214.717C376.126 219.995 383.302 223.441 391.779 225.059Z" fill="#004DC4"/>
<path d="M537.752 139.389L538.418 171.5C538.418 171.5 529.247 179.717 521.031 171.5L524.06 135.337L537.752 139.389Z" fill="#00396A"/>
<path d="M499.924 395.537C499.401 395.122 495.821 393.455 495.326 393.041C493.404 395.92 492.06 397.507 489.748 399.896C495.41 404.831 493.955 410.826 493.955 410.826C493.955 410.826 489.949 414.272 488.382 415.048C483.386 417.508 474.171 420.927 474.171 420.927L497.379 422.746L514.593 405.116C508.491 401.711 503.814 398.613 499.924 395.537Z" fill="#E5A57F"/>
<path d="M408.996 396.794C405.299 396.147 400.634 398.978 397.627 396.794C396.929 403.248 397.063 406.77 397.063 406.77L362.726 420.927H406.577C406.971 416.256 406.133 411.771 406.764 407.443C407.085 405.219 408.592 398.938 408.996 396.794Z" fill="#E5A57F"/>
<path d="M448.967 240.978L410.168 314.689C410.168 314.689 425.888 327.986 441.368 332.417L470.455 245.569L448.967 240.978Z" fill="#CDE5E8"/>
<path d="M491.451 401.742C493.779 399.361 495.7 396.522 497.615 393.638C487.579 385.039 482.668 376.177 469.03 360.928C463.388 354.616 478.335 318.473 481.964 312.411C488.484 301.516 489.492 293.618 494.59 274.971L456.698 289.124C447.679 321.429 437.17 353.738 447.706 369.148C458.838 385.44 478.596 398.564 488.13 405.116C488.493 405.366 491.135 401.501 491.451 401.742Z" fill="#0454CE"/>
<path d="M427.647 167.445C427.128 167.445 426.606 167.29 426.151 166.964C424.999 166.137 424.736 164.53 425.563 163.38C428.615 159.128 429.286 155.628 429.292 155.594C429.549 154.205 430.875 153.276 432.273 153.522C433.664 153.771 434.593 155.088 434.355 156.48C434.321 156.666 433.526 161.099 429.738 166.374C429.237 167.073 428.447 167.445 427.647 167.445Z" fill="#E5A57F"/>
<path d="M491.899 282.781C503.179 251.818 512.809 203.23 516.416 183.839C514.401 183.002 512.424 182.373 510.854 181.936C507.508 181.013 503.498 179.925 500.067 180.991C498.326 181.535 496.775 182.431 495.254 183.385C493.848 187.593 493.268 191.141 493.268 191.141C493.268 191.141 469.041 237.447 453.256 269.025C466.663 272.029 479.773 276.433 491.899 282.781Z" fill="#F6EE9E"/>
<path d="M452.802 269.974C452.795 269.97 452.79 269.97 452.784 269.965C451.386 272.765 450.057 275.444 448.825 277.953H448.813C445.708 283.454 442.362 288.54 439.121 293.426C407.946 340.423 396.173 377.88 394.093 395.608C397.069 397.93 408.327 399.245 412.078 399.896C417.83 370.512 432.797 351.754 459.612 329.591C468.584 322.173 475.296 312.75 481.195 304.926C484.71 300.264 488.199 292.788 491.547 283.735C479.394 277.365 466.232 272.97 452.802 269.974Z" fill="#0D6CFF"/>
<path d="M422.549 282.901C418.929 282.901 415.545 280.637 414.294 277.026C412.714 272.466 415.128 267.492 419.687 265.914C430.287 262.24 446.542 247.753 457.503 232.214C479.746 200.681 495.361 183.198 496.017 182.467C499.238 178.877 504.762 178.576 508.353 181.798C511.942 185.016 512.243 190.539 509.022 194.128C508.868 194.302 493.375 211.664 471.781 242.279C460.963 257.618 441.834 276.723 425.409 282.416C424.464 282.746 423.499 282.901 422.549 282.901Z" fill="#E5A57F"/>
<path d="M510.281 186.732C510.081 186.732 509.878 186.724 509.673 186.71C505.145 186.376 501.743 182.44 502.073 177.91C502.421 173.176 504.254 167.755 504.463 167.151C505.945 162.861 510.625 160.582 514.918 162.065C519.207 163.545 521.485 168.219 520.01 172.509C519.492 174.02 518.616 177.15 518.474 179.109C518.157 183.434 514.55 186.728 510.281 186.732Z" fill="#E5A57F"/>
<path d="M512.689 178.061C514.142 179.731 515.73 181.218 517.41 182.578C518.001 181.544 518.38 180.373 518.474 179.109C518.616 177.15 519.492 174.02 520.01 172.509C521.485 168.219 519.207 163.545 514.918 162.065C511.358 160.835 507.537 162.199 505.488 165.145C506.246 169.788 510.038 175.019 512.689 178.061Z" fill="#E79B6E"/>
<path d="M533.873 160.263C533.681 168.843 526.568 175.643 517.983 175.452C509.401 175.258 502.6 168.145 502.794 159.564L503.034 148.778C503.226 140.195 510.342 133.395 518.924 133.589C527.506 133.783 534.308 140.893 534.116 149.476L533.873 160.263Z" fill="#E5A57F"/>
<path d="M410.213 280.49C406.628 280.49 402.526 279.527 397.936 277.597C396.63 277.048 396.015 275.542 396.563 274.236C397.114 272.925 398.619 272.31 399.927 272.858C406.691 275.702 412.074 276.108 415.5 274.035C416.718 273.3 418.294 273.692 419.029 274.904C419.763 276.117 419.375 277.695 418.16 278.43C415.89 279.803 413.235 280.49 410.213 280.49Z" fill="#E5A57F"/>
<path d="M413.291 284.225C409.203 284.225 405.922 283.432 402.19 282.527L401.033 282.251C399.653 281.921 398.801 280.534 399.133 279.153C399.461 277.775 400.85 276.915 402.23 277.253L403.398 277.534C409.629 279.041 413.748 280.039 422.859 277.686C424.241 277.334 425.634 278.158 425.989 279.531C426.343 280.909 425.516 282.309 424.143 282.665C419.751 283.797 416.303 284.225 413.291 284.225Z" fill="#E5A57F"/>
<path d="M410.036 275.43C401.971 275.43 396.445 270.469 396.169 270.215C395.123 269.257 395.052 267.634 396.01 266.586C396.967 265.543 398.585 265.472 399.633 266.421C399.889 266.653 405.799 271.86 413.748 269.814C415.13 269.457 416.523 270.286 416.878 271.659C417.232 273.032 416.405 274.436 415.03 274.789C413.285 275.239 411.61 275.43 410.036 275.43Z" fill="#E5A57F"/>
<path d="M415.422 272.671C415.322 272.671 415.222 272.662 415.121 272.653C406.37 271.628 402.812 265.329 402.665 265.062C401.982 263.818 402.437 262.258 403.681 261.572C404.916 260.894 406.47 261.34 407.159 262.57C407.279 262.78 409.707 266.845 415.717 267.549C417.128 267.714 418.135 268.989 417.97 270.398C417.819 271.704 416.709 272.671 415.422 272.671Z" fill="#E5A57F"/>
<path d="M446.127 171.152C445.989 171.152 445.849 171.141 445.706 171.116C441.453 170.412 429.818 168.582 427.115 168.582C425.694 168.582 424.544 167.432 424.544 166.012C424.544 164.595 425.694 163.442 427.115 163.442C430.73 163.442 444.937 165.78 446.544 166.048C447.944 166.28 448.894 167.601 448.66 169.001C448.452 170.258 447.362 171.152 446.127 171.152Z" fill="#E5A57F"/>
<path d="M444.482 176.546C444.259 176.546 444.03 176.517 443.804 176.454C443.682 176.421 431.464 173.096 425.779 172.772C424.361 172.692 423.28 171.477 423.36 170.062C423.441 168.645 424.664 167.528 426.071 167.644C432.295 167.998 444.638 171.357 445.16 171.5C446.528 171.874 447.333 173.285 446.959 174.653C446.649 175.797 445.612 176.546 444.482 176.546Z" fill="#E5A57F"/>
<path d="M443.245 182.195C442.982 182.195 442.717 182.155 442.456 182.074C430.886 178.34 428.035 178.111 426.504 177.988C425.839 177.934 425.215 177.883 424.361 177.658C422.99 177.295 422.172 175.891 422.533 174.518C422.899 173.147 424.303 172.331 425.677 172.69C426.085 172.799 426.379 172.824 426.914 172.866C428.777 173.015 431.894 173.267 444.034 177.183C445.383 177.618 446.125 179.067 445.69 180.417C445.338 181.504 444.33 182.195 443.245 182.195Z" fill="#E5A57F"/>
<path d="M438.162 186.309C438.102 186.309 438.04 186.304 437.977 186.3C426.39 185.471 425.908 179.182 425.893 178.467L431.031 178.346C431.031 178.346 431.038 178.286 431.018 178.179C431.022 178.206 431.553 180.691 438.345 181.178C439.758 181.276 440.824 182.507 440.724 183.92C440.626 185.275 439.5 186.309 438.162 186.309Z" fill="#E5A57F"/>
<path d="M428.461 183.224C428.461 183.224 426.232 182.195 422.756 182.195C419.834 182.195 415.864 177.237 415.864 172.093C415.864 172.093 414.437 156.925 430.452 163.786L428.461 183.224Z" fill="#E5A57F"/>
<path d="M478.894 228.313L456.442 338.836C456.442 338.836 491.213 347.212 512.539 334.931L517.934 181.366C517.934 181.366 494.068 173.015 478.894 228.313Z" fill="#CDE5E8"/>
<path d="M484.093 289.124L505.6 287.97C505.6 287.97 506.115 320.854 493.268 319.57C493.268 319.57 475.689 323.412 484.093 289.124Z" fill="#E1F3F6"/>
<path d="M511.097 178.739C508.737 176.621 505.691 175.456 502.521 175.456C498.877 175.456 495.388 177.009 492.958 179.72C492.301 180.455 476.589 198.024 454.146 229.842C452.677 231.924 451.061 234.05 449.34 236.163L447.057 238.963L449.545 241.584C452.193 244.383 454.973 247.111 457.659 249.746C459.117 251.177 460.575 252.607 462.015 254.052L465.189 257.234L468.076 253.789C470.653 250.717 473.029 247.641 475.143 244.651C496.603 214.223 511.931 197.048 512.085 196.874C516.811 191.605 516.367 183.465 511.097 178.739Z" fill="#E1F3F6"/>
<path d="M452.101 229.082L443.422 238.741L466.03 259.049L474.709 249.39L452.101 229.082Z" fill="#F8FDFF"/>
<path d="M487.189 166.431L506.944 174.172C506.944 174.172 515.344 133.307 509.214 127.179C509.214 127.179 487.189 125.094 487.189 166.431Z" fill="#00396A"/>
<path d="M510.355 134.295C511.055 135.337 526.383 145.564 538.418 142.735C538.418 142.735 536.361 124.67 508.266 127.273L510.355 134.295Z" fill="#00396A"/>
<path d="M522.19 153.561C522.19 158.305 518.342 162.15 513.598 162.15C508.855 162.15 505.009 158.305 505.009 153.561C505.009 148.818 508.855 144.974 513.598 144.974C518.342 144.974 522.19 148.818 522.19 153.561Z" stroke="#0D6CFF" stroke-width="0.86795" stroke-miterlimit="10"/>
<path d="M541.591 155.245C541.591 159.371 538.247 162.716 534.12 162.716C529.994 162.716 526.648 159.371 526.648 155.245C526.648 151.118 529.994 147.774 534.12 147.774C538.247 147.774 541.591 151.118 541.591 155.245Z" stroke="#0D6CFF" stroke-width="0.75498" stroke-miterlimit="10"/>
<path d="M522.19 153.561C522.19 153.561 525.041 152.446 526.739 154.144" stroke="#0D6CFF" stroke-width="0.86795" stroke-miterlimit="10"/>
<path d="M272.256 168.604C272.056 168.604 271.855 168.595 271.65 168.58C267.12 168.25 263.719 164.309 264.048 159.781C264.396 155.049 266.229 149.627 266.438 149.025C267.918 144.734 272.6 142.453 276.893 143.937C281.182 145.418 283.46 150.092 281.985 154.38C281.468 155.893 280.591 159.021 280.449 160.982C280.132 165.306 276.525 168.602 272.256 168.604Z" fill="#E79B6E"/>
<path d="M267.374 396.745C280.993 403.03 292.168 402.901 293.068 403.03C301.947 387.232 328.695 344.452 304.361 309.344L269.945 290.849C269.945 290.849 304.361 326.751 267.374 396.745Z" fill="#0454CE"/>
<path d="M285.19 410.729C285.19 410.729 288.369 404.278 290.852 399.945C288.989 399.718 280.654 399.379 277.23 398.064C274.015 404.626 267.013 414.241 262.067 420.834H308.314L285.19 410.729Z" fill="#E5A57F"/>
<path d="M342.4 311.399C336.649 300.237 294.874 266.622 291.089 247.316C290.754 245.609 290.467 243.853 290.219 242.056C283.509 245.604 274.8 246.567 267.898 246.919C260.072 247.316 255.393 247.802 247.818 244.115C248.46 256.098 246.509 267.665 253.5 279.803C267.374 303.883 313.477 324.504 318.619 332.461C328.76 348.161 332.267 382.239 335.72 403.03C341.148 403.03 354.017 402.794 359.307 400.917C357.521 390.254 360.419 346.369 342.4 311.399Z" fill="#0D6CFF"/>
<path d="M356.799 408.86C356.799 408.86 355.299 402.78 354.848 399.945C349.556 401.804 346.478 399.932 341.034 399.945C341.859 405.103 341.248 414.74 341.725 420.397H385.576L356.799 408.86Z" fill="#E5A57F"/>
<path d="M268.219 253.227C274.898 252.919 288.926 251.061 294.555 245.435C293.403 236.27 289.305 221.524 290.748 209.658C295.639 169.425 275.99 157.366 275.99 157.366C275.99 157.366 266.944 151.04 259.613 158.594C248.56 169.977 237.775 202.165 238.856 249.75C246.476 253.682 260.212 253.592 268.219 253.227Z" fill="#CDE5E8"/>
<path d="M368.988 265.926C368.335 265.926 367.67 265.855 367.006 265.699C335.343 258.353 308.528 239.386 289.459 210.844C275.17 189.46 270.235 170.269 270.029 169.462C268.85 164.784 271.688 160.038 276.367 158.861C281.042 157.681 285.786 160.512 286.969 165.183C287.061 165.533 291.61 182.796 304.317 201.634C321.083 226.481 343.502 242.314 370.954 248.685C375.656 249.772 378.58 254.466 377.49 259.164C376.554 263.198 372.96 265.926 368.988 265.926Z" fill="#E5A57F"/>
<path d="M349.741 239.685C332.295 231.425 317.442 218.333 305.596 200.77C293.044 182.163 288.505 164.969 288.465 164.804C287.308 160.241 283.213 157.051 278.509 157.051C277.665 157.051 276.815 157.157 275.99 157.366C273.329 158.035 271.086 159.703 269.679 162.058C268.271 164.414 267.865 167.178 268.536 169.839L268.578 170.029C269.929 175.908 275.33 196.588 288.177 215.81C303.554 238.829 324.417 256.057 348.511 265.641C348.693 265.713 348.887 265.748 349.081 265.748C349.384 265.748 349.688 265.659 349.946 265.481C350.368 265.196 350.622 264.719 350.622 264.206V241.075C350.622 240.478 350.278 239.939 349.741 239.685Z" fill="#E1F3F6"/>
<path d="M375.477 266.551C372.677 266.551 369.706 266.239 366.567 265.61C365.174 265.334 364.273 263.979 364.55 262.588C364.828 261.197 366.179 260.292 367.575 260.573C375.225 262.102 381.608 261.545 386.548 258.915C387.8 258.246 389.356 258.723 390.023 259.976C390.689 261.229 390.214 262.784 388.962 263.448C385.081 265.517 380.569 266.551 375.477 266.551Z" fill="#E5A57F"/>
<path d="M375.841 260.8C374.617 260.8 373.357 260.72 372.078 260.533C370.673 260.328 369.701 259.022 369.906 257.618C370.112 256.213 371.411 255.242 372.82 255.447C381.037 256.65 388.645 252.384 388.723 252.34C389.956 251.64 391.523 252.063 392.228 253.294C392.932 254.524 392.511 256.089 391.282 256.797C390.959 256.98 384.216 260.8 375.841 260.8Z" fill="#E5A57F"/>
<path d="M373.56 255.745C373.161 255.745 372.753 255.732 372.336 255.705C370.919 255.616 369.844 254.399 369.933 252.982C370.022 251.564 371.244 250.49 372.66 250.579C378.739 250.953 381.928 247.262 381.957 247.227C382.851 246.121 384.472 245.956 385.571 246.852C386.672 247.744 386.842 249.362 385.946 250.463C385.763 250.69 381.558 255.745 373.56 255.745Z" fill="#E5A57F"/>
<path d="M364.674 251.413C363.257 251.413 362.104 250.263 362.104 248.845C362.104 247.432 363.248 246.282 364.661 246.278C364.891 246.273 369.964 246.157 372.867 241.976C373.676 240.808 375.277 240.523 376.442 241.33C377.608 242.136 377.898 243.737 377.089 244.905C372.622 251.341 364.996 251.413 364.674 251.413Z" fill="#E5A57F"/>
<path d="M356.275 193.432C355.475 193.432 354.686 193.062 354.184 192.362C350.394 187.085 349.598 182.654 349.565 182.467C349.324 181.071 350.263 179.742 351.663 179.501C353.054 179.258 354.387 180.197 354.63 181.597C354.634 181.615 355.307 185.114 358.359 189.367C359.186 190.522 358.923 192.126 357.769 192.951C357.318 193.276 356.792 193.432 356.275 193.432Z" fill="#E5A57F"/>
<path d="M356.812 194.569C356.652 194.569 356.487 194.556 356.324 194.524C350.704 193.446 339.552 193.432 339.438 193.432C338.02 193.432 336.87 192.282 336.87 190.865C336.87 189.447 338.02 188.297 339.438 188.297C339.915 188.297 351.192 188.31 357.292 189.478C358.685 189.741 359.599 191.087 359.331 192.483C359.097 193.713 358.018 194.569 356.812 194.569Z" fill="#E5A57F"/>
<path d="M338.029 199.918C336.752 199.918 335.644 198.964 335.481 197.667C335.307 196.258 336.306 194.975 337.715 194.801C339.346 194.596 353.778 192.839 358.446 193.669C359.844 193.914 360.774 195.247 360.526 196.646C360.279 198.041 358.941 198.978 357.548 198.723C354.605 198.206 344.21 199.169 338.35 199.896C338.241 199.909 338.134 199.918 338.029 199.918Z" fill="#E5A57F"/>
<path d="M341.368 205.727C340.162 205.727 339.086 204.875 338.849 203.645C338.58 202.25 339.494 200.903 340.887 200.636C347.111 199.437 348.771 198.906 351.785 197.935C353.196 197.48 354.953 196.918 357.572 196.156C358.932 195.764 360.361 196.548 360.755 197.908C361.15 199.272 360.365 200.698 359.001 201.09C356.456 201.831 354.81 202.361 353.359 202.825C350.261 203.823 348.388 204.425 341.859 205.682C341.694 205.713 341.529 205.727 341.368 205.727Z" fill="#E5A57F"/>
<path d="M346.903 209.81C345.675 209.81 344.587 208.927 344.373 207.674C344.135 206.275 345.075 204.946 346.473 204.71C354.795 203.284 356.453 200.181 356.462 200.15C356.908 198.799 358.359 198.068 359.708 198.514C361.054 198.96 361.785 200.413 361.342 201.759C361.012 202.753 358.794 207.813 347.34 209.774C347.193 209.796 347.048 209.81 346.903 209.81Z" fill="#E5A57F"/>
<path d="M356.808 206.716L354.848 185.779C354.848 185.779 364.035 186.447 364.015 196.071C364.008 199.285 363.083 202.865 356.808 206.716Z" fill="#E5A57F"/>
<path d="M298.987 138.507C301.305 147.27 296.078 156.259 287.31 158.576C278.54 160.895 269.552 155.671 267.232 146.904L264.316 135.883C261.998 127.116 267.225 118.128 275.993 115.811C284.762 113.49 293.75 118.717 296.071 127.484L298.987 138.507Z" fill="#E5A57F"/>
<path d="M297.446 132.68C296.2 136.158 294.433 139.603 291.722 141.946C285.112 147.649 274.976 149.187 266.933 145.768L267.232 146.904C269.552 155.671 278.54 160.895 287.31 158.576C296.078 156.259 301.305 147.27 298.987 138.507L297.446 132.68Z" fill="#00396A"/>
<path d="M267.183 146.297C261.015 142.338 254.354 127.288 264.098 123.994C270.125 121.955 267.698 140.532 267.698 145.785L267.183 146.297Z" fill="#00396A"/>
<path d="M262.232 125.234C254.777 119.835 264.015 104.556 282.435 104.556C293.82 104.556 293.737 113.276 285.864 117.984C279.33 121.888 269.198 119.602 264.289 126.26L262.232 125.234Z" fill="#00396A"/>
<path d="M297.442 136.049C294.832 132.092 289.689 124.075 287.689 119.562C286.421 116.694 284.682 111.805 290.427 115.279C295.235 118.185 297.845 128.431 297.393 133.625L297.442 136.049Z" fill="#00396A"/>
<path d="M167.277 172.58C164.441 175.204 161.32 177.649 158.764 180.573L121.674 258.036L149.285 222.402L178.61 161.793C174.86 165.417 171.107 169.041 167.277 172.58Z" fill="#003FA0"/>
<path d="M145.279 159.863C147.97 156.184 150.558 151.861 153.619 148.06L88.6998 116.37L27.1048 122.536L135.029 172.295C138.569 168.261 142.127 164.175 145.279 159.863Z" fill="#003FA0"/>
<path d="M154.543 148.513C151.093 152.83 148.293 157.908 144.98 161.94C142.006 165.56 139.022 169.173 135.97 172.73L185.035 195.349L202.848 172.093L154.543 148.513Z" fill="#003FA0"/>
<path d="M80.6612 238.405L99.6919 198.661L0 150.948L16.0102 117.513L180.177 20.8462L224.975 42.2887L159.127 179.811L186.258 192.799L167.834 231.278L140.703 218.293L121.674 258.037L80.6612 238.405ZM154.512 84.1658L151.989 82.9578L64.1696 134.36L118.116 160.183L154.512 84.1658Z" fill="#004DC4"/>
<path d="M186.258 192.799L202.848 172.093L189.829 200.952L167.221 232.526L186.258 192.799Z" fill="#003FA0"/>
<path d="M179.905 160.64L244.643 18.7524L224.975 42.2887L159.127 179.811C160.964 178.041 178.857 161.688 179.905 160.64Z" fill="#003FA0"/>
<path d="M16.0102 117.513L45.2639 92.0513L205.675 0L180.177 20.8461L16.0102 117.513Z" fill="#003FA0"/>
<path d="M180.177 20.8461L224.975 42.2886L244.643 18.7523L205.675 0L180.177 20.8461Z" fill="#0D6CFF"/>
<path d="M125.199 124.483C119.688 120.567 115.894 122.281 113.248 122.691C110.35 123.139 108.205 121.557 108.194 121.55C107.004 120.778 105.412 121.117 104.641 122.307C103.867 123.496 104.208 125.089 105.399 125.86C105.519 125.939 107.762 127.365 111.678 128.392C107.405 132.286 103.049 136.989 102.806 137.251C101.843 138.292 101.908 139.918 102.951 140.881C103.444 141.338 104.07 141.563 104.692 141.563C105.385 141.563 106.074 141.286 106.58 140.737C106.629 140.685 109.665 137.41 113.056 134.143C109.908 138.082 106.955 142.177 106.415 142.932C105.588 144.085 105.854 145.69 107.006 146.517C107.459 146.842 107.982 146.997 108.502 146.997C109.3 146.997 110.089 146.626 110.59 145.926C112.271 143.58 114.645 140.408 116.91 137.561C116.068 139.227 114.998 141.114 112.855 144.562C112.106 145.769 112.474 147.351 113.68 148.1C114.101 148.362 114.572 148.487 115.033 148.487C115.894 148.487 116.732 148.058 117.22 147.274C118.101 145.855 118.812 144.681 119.407 143.67C118.959 144.787 119.345 146.098 120.39 146.779C120.823 147.061 121.309 147.194 121.79 147.194C122.63 147.194 123.453 146.782 123.946 146.025C126.353 142.322 127.521 139.299 128.023 136.918L128.128 136.997C129.556 129.776 127.818 126.344 125.199 124.483ZM120.051 142.557C120.9 141.064 121.482 139.935 122.026 138.811C121.565 139.904 120.921 141.152 120.051 142.557Z" fill="#E5A57F"/>
<path d="M46.5054 153.619C38.3713 153.159 26.5676 169.079 38.6431 173.412C27.7111 173.153 25.0362 188.604 35.0586 192.871C17.5081 189.456 19.5499 212.194 27.8517 220.423C22.225 219.523 16.5384 224.899 17.3898 230.751C18.2481 236.644 20.5845 244.815 35.1677 249.193C49.7535 253.57 58.6681 245.372 65.9241 237.643C70.5696 247.133 93.5327 234.309 90.987 222.955C99.6519 226.026 107.416 216.193 107.59 208.338C107.759 200.671 102.389 194.818 97.2823 189.839C100.88 186.545 101.562 180.437 100.615 175.77C99.0411 168.016 89.3307 167.245 89.3307 161.074C89.3307 158.914 89.7452 152.206 87.904 149.259C84.9748 144.57 79.8744 139.928 73.4586 142.22C46.5054 129.436 46.5054 153.619 46.5054 153.619Z" fill="#00396A"/>
<path d="M62.2213 403.03C54.8092 401.737 53.6121 402.107 46.2892 400.32L29.334 421.039H95.1087L56.9113 410.764L62.2213 403.03Z" fill="#E5A57F"/>
<path d="M184.691 408.967L180.803 403.863C177.295 406.132 173.643 408.071 169.68 409.449L180.066 421.039H218.606L184.691 408.967Z" fill="#E5A57F"/>
<path d="M39.3252 403.097C46.6928 404.902 54.0602 406.779 61.5192 408.045L115.834 341.234L106.585 314.689L68.5568 270.848L79.511 332.978L39.3252 403.097Z" fill="#0454CE"/>
<path d="M113.194 252.451C98.2921 248.497 78.0889 253.499 63.5901 258.968C63.5901 258.968 72.4823 294.366 78.3206 304.926C95.3228 335.671 168.86 412.404 168.86 412.404C172.897 411.031 180.679 405.335 184.241 403.03L113.194 252.451Z" fill="#0D6CFF"/>
<path d="M61.6194 272.814C76.0088 267.411 104.875 258.299 119.688 261.999C119.688 261.999 100.071 215.93 91.1676 205.767C85.1574 198.911 52.3482 179.608 52.3482 204.844C52.3482 239.422 61.6194 272.814 61.6194 272.814Z" fill="#CDE5E8"/>
<path d="M74.4105 202.691C74.219 202.758 74.0272 202.816 73.8266 202.874C69.444 204.055 64.932 201.461 63.7482 197.079C62.511 192.496 62.4533 186.773 62.4487 186.135C62.4286 181.593 66.0958 177.898 70.6365 177.881C75.1752 177.861 78.8691 181.521 78.8935 186.055C78.9047 187.655 79.112 190.896 79.6223 192.79C80.7527 196.981 78.4388 201.282 74.4105 202.691Z" fill="#E5A57F"/>
<path d="M79.8944 194.565C79.8655 193.976 79.7831 193.383 79.6223 192.79C79.112 190.896 78.9047 187.655 78.8935 186.055C78.8691 181.521 75.1752 177.861 70.6365 177.881C66.0958 177.898 62.4286 181.593 62.4487 186.135C62.4487 186.238 62.4533 186.487 62.4599 186.831C66.5126 191.404 73.189 193.557 79.8944 194.565Z" fill="#E79B6E"/>
<path d="M87.9351 169.919C90.588 178.084 86.1183 186.848 77.9528 189.505C69.7872 192.153 61.0177 187.686 58.3648 179.523L55.0323 169.262C52.3795 161.098 56.8491 152.33 65.0124 149.678C73.1779 147.025 81.9476 151.493 84.6003 159.658L87.9351 169.919Z" fill="#E5A57F"/>
<path d="M179.49 161.671C179.165 161.396 178.788 161.229 178.4 161.142C178.775 160.733 179.176 160.293 179.644 159.787C180.605 158.743 180.538 157.118 179.495 156.156C179.366 156.038 179.23 155.936 179.085 155.849C179.803 154.82 179.682 153.397 178.739 152.514C178.008 151.832 176.992 151.668 176.111 151.984C177.282 150.802 178.01 149.98 178.097 149.88C179.036 148.816 178.933 147.192 177.868 146.254C176.804 145.316 175.179 145.418 174.243 146.485C174.183 146.55 168.597 152.847 162.852 156.122C160.36 152.354 157.016 151.033 156.824 150.96C155.507 150.461 154.051 151.121 153.536 152.432C153.023 153.742 153.676 155.227 154.98 155.755C155.094 155.801 157.058 156.633 158.585 158.982C158.373 159.564 158.128 160.39 157.988 161.358C120.176 212.529 70.0392 194.364 67.7676 193.503C63.2758 191.783 58.2333 194.012 56.4923 198.501C54.7469 202.998 56.9805 208.058 61.479 209.8C62.0899 210.037 74.3637 214.704 91.8698 214.704C95.3897 214.704 99.1235 214.517 103.013 214.062C121.888 211.873 149.804 201.001 172.114 172.26C172.48 172.05 172.997 171.729 173.679 171.232C174.138 170.936 174.602 170.61 175.075 170.218L175.014 170.174C176.334 169.063 177.961 167.492 179.809 165.288C180.721 164.2 180.578 162.58 179.49 161.671Z" fill="#E5A57F"/>
<path d="M109.886 193.637L107.757 194.096C102.565 195.215 97.1907 195.786 91.7805 195.786C78.5258 195.786 69.3192 192.443 68.3205 192.064C67.1367 191.609 65.8972 191.382 64.6401 191.382C60.3621 191.382 56.6016 193.954 55.0544 197.943C54.0625 200.502 53.8863 203.413 55.2329 205.802C60.2507 214.704 74.0293 218.301 91.8697 218.301C95.6638 218.301 99.4714 218.083 103.19 217.655C105.463 217.392 107.851 217 110.285 216.487L111.781 216.095C111.781 216.095 109.641 209.609 109.186 203.02C109.01 200.511 109.886 193.637 109.886 193.637Z" fill="#E1F3F6"/>
<path d="M54.6843 177.511C60.0813 174.083 61.9449 167.659 61.3519 161.237C66.0846 164.419 69.8273 162.477 72.7832 157.012C81.7492 169.574 95.4141 150.885 76.7802 144.118C61.8757 138.704 47.2678 153.442 51.0866 168.261L54.6843 177.511Z" fill="#00396A"/>
</g>
<defs>
<clipPath id="clip0_0_2372">
<rect width="797" height="423" fill="white"/>
</clipPath>
</defs>
</svg>
