<svg width="345" height="117" viewBox="0 0 345 117" fill="none" xmlns="http://www.w3.org/2000/svg">
<path d="M49.016 93.536C39.7147 93.536 31.3093 91.5307 23.8 87.52C16.376 83.5093 10.5307 78.0053 6.264 71.008C2.08267 63.9253 -0.0079999 55.9893 -0.0079999 47.2C-0.0079999 38.4107 2.08267 30.5173 6.264 23.52C10.5307 16.4373 16.376 10.8907 23.8 6.88C31.3093 2.86933 39.7147 0.863998 49.016 0.863998C58.3173 0.863998 66.68 2.86933 74.104 6.88C81.528 10.8907 87.3733 16.4373 91.64 23.52C95.9067 30.5173 98.04 38.4107 98.04 47.2C98.04 55.9893 95.9067 63.9253 91.64 71.008C87.3733 78.0053 81.528 83.5093 74.104 87.52C66.68 91.5307 58.3173 93.536 49.016 93.536ZM49.016 75.872C54.3067 75.872 59.0853 74.6773 63.352 72.288C67.6187 69.8133 70.9467 66.4 73.336 62.048C75.8107 57.696 77.048 52.7467 77.048 47.2C77.048 41.6533 75.8107 36.704 73.336 32.352C70.9467 28 67.6187 24.6293 63.352 22.24C59.0853 19.7653 54.3067 18.528 49.016 18.528C43.7253 18.528 38.9467 19.7653 34.68 22.24C30.4133 24.6293 27.0427 28 24.568 32.352C22.1787 36.704 20.984 41.6533 20.984 47.2C20.984 52.7467 22.1787 57.696 24.568 62.048C27.0427 66.4 30.4133 69.8133 34.68 72.288C38.9467 74.6773 43.7253 75.872 49.016 75.872ZM152.92 22.112C159.32 22.112 165.123 23.6053 170.328 26.592C175.619 29.4933 179.757 33.632 182.744 39.008C185.731 44.2987 187.224 50.4853 187.224 57.568C187.224 64.6507 185.731 70.88 182.744 76.256C179.757 81.5467 175.619 85.6853 170.328 88.672C165.123 91.5733 159.32 93.024 152.92 93.024C144.131 93.024 137.219 90.2507 132.184 84.704V116.832H112.216V23.136H131.288V31.072C136.237 25.0987 143.448 22.112 152.92 22.112ZM149.464 76.64C154.584 76.64 158.765 74.9333 162.008 71.52C165.336 68.0213 167 63.3707 167 57.568C167 51.7653 165.336 47.1573 162.008 43.744C158.765 40.2453 154.584 38.496 149.464 38.496C144.344 38.496 140.12 40.2453 136.792 43.744C133.549 47.1573 131.928 51.7653 131.928 57.568C131.928 63.3707 133.549 68.0213 136.792 71.52C140.12 74.9333 144.344 76.64 149.464 76.64ZM241.295 22.112C247.695 22.112 253.498 23.6053 258.703 26.592C263.994 29.4933 268.132 33.632 271.119 39.008C274.106 44.2987 275.599 50.4853 275.599 57.568C275.599 64.6507 274.106 70.88 271.119 76.256C268.132 81.5467 263.994 85.6853 258.703 88.672C253.498 91.5733 247.695 93.024 241.295 93.024C232.506 93.024 225.594 90.2507 220.559 84.704V116.832H200.591V23.136H219.663V31.072C224.612 25.0987 231.823 22.112 241.295 22.112ZM237.839 76.64C242.959 76.64 247.14 74.9333 250.383 71.52C253.711 68.0213 255.375 63.3707 255.375 57.568C255.375 51.7653 253.711 47.1573 250.383 43.744C247.14 40.2453 242.959 38.496 237.839 38.496C232.719 38.496 228.495 40.2453 225.167 43.744C221.924 47.1573 220.303 51.7653 220.303 57.568C220.303 63.3707 221.924 68.0213 225.167 71.52C228.495 74.9333 232.719 76.64 237.839 76.64ZM312.134 93.024C306.417 93.024 300.827 92.3413 295.366 90.976C289.905 89.5253 285.553 87.7333 282.31 85.6L288.966 71.264C292.038 73.2267 295.75 74.848 300.102 76.128C304.454 77.3227 308.721 77.92 312.902 77.92C321.35 77.92 325.574 75.8293 325.574 71.648C325.574 69.6853 324.422 68.2773 322.118 67.424C319.814 66.5707 316.273 65.8453 311.494 65.248C305.862 64.3947 301.211 63.4133 297.542 62.304C293.873 61.1947 290.673 59.232 287.942 56.416C285.297 53.6 283.974 49.5893 283.974 44.384C283.974 40.032 285.211 36.192 287.686 32.864C290.246 29.4507 293.915 26.8053 298.694 24.928C303.558 23.0507 309.275 22.112 315.846 22.112C320.71 22.112 325.531 22.6667 330.31 23.776C335.174 24.8 339.185 26.2507 342.342 28.128L335.686 42.336C329.627 38.9227 323.014 37.216 315.846 37.216C311.579 37.216 308.379 37.8133 306.246 39.008C304.113 40.2027 303.046 41.7387 303.046 43.616C303.046 45.7493 304.198 47.2427 306.502 48.096C308.806 48.9493 312.475 49.76 317.51 50.528C323.142 51.4667 327.75 52.4907 331.334 53.6C334.918 54.624 338.033 56.544 340.678 59.36C343.323 62.176 344.646 66.1013 344.646 71.136C344.646 75.4027 343.366 79.2 340.806 82.528C338.246 85.856 334.491 88.4587 329.542 90.336C324.678 92.128 318.875 93.024 312.134 93.024Z" fill="#D8E7FF"/>
</svg>
