<svg width="25" height="24" viewBox="0 0 25 24" fill="none" xmlns="http://www.w3.org/2000/svg">
<g id="fi_3247939" clip-path="url(#clip0_2106_2873)">
<g id="Group">
<g id="Group_2">
<path id="Vector" d="M23.2492 0H1.75161C1.0647 0 0.505859 0.558844 0.505859 1.24575V15.4133C0.505859 16.1002 1.0647 16.659 1.75161 16.659H4.97614L3.16016 22.262C3.0508 22.5994 3.07934 22.9592 3.24064 23.2751C3.40194 23.5911 3.67653 23.8253 4.01394 23.9346C4.1487 23.9783 4.28708 24 4.4248 24C4.63184 24 4.83739 23.951 5.02709 23.8541C5.34298 23.6929 5.57722 23.4182 5.68658 23.0808L6.36284 20.9943H18.638L18.7729 21.4106C18.8328 21.5954 19.0311 21.6966 19.2158 21.6367C19.4005 21.5768 19.5018 21.3785 19.4419 21.1938L17.9721 16.659H19.2853L21.1715 22.4788C21.223 22.6375 21.2096 22.8067 21.1337 22.9553C21.0578 23.1039 20.9287 23.2141 20.77 23.2656C20.4423 23.3717 20.0894 23.1916 19.9832 22.8641L19.9489 22.758C19.889 22.5733 19.691 22.4721 19.506 22.5319C19.3212 22.5917 19.22 22.79 19.2799 22.9748L19.3142 23.0808C19.4961 23.6418 20.0181 23.9994 20.5783 23.9994C20.7137 23.9994 20.8513 23.9785 20.9869 23.9346C21.3243 23.8252 21.5989 23.591 21.7602 23.2751C21.9214 22.9591 21.95 22.5994 21.8406 22.262L20.0247 16.659H23.2493C23.9362 16.659 24.495 16.1002 24.495 15.4133V1.24575C24.495 0.558844 23.9361 0 23.2492 0ZM5.01753 22.864C4.96611 23.0227 4.85591 23.1519 4.70731 23.2278C4.55872 23.3036 4.38945 23.3171 4.23078 23.2656C4.07206 23.2142 3.94292 23.104 3.86703 22.9554C3.79114 22.8068 3.77773 22.6376 3.8292 22.4789L5.7155 16.6591H7.02866L5.01753 22.864ZM6.59075 20.2911L6.89741 19.3449H18.1033L18.41 20.2911H6.59075ZM7.12536 18.6417L7.76797 16.6591H17.2328L17.8753 18.6417H7.12536ZM23.7917 15.4133C23.7917 15.7125 23.5483 15.9558 23.2492 15.9558H1.75161C1.4525 15.9558 1.20917 15.7124 1.20917 15.4133V1.24575C1.20917 0.946641 1.45255 0.703313 1.75161 0.703313H23.2492C23.5483 0.703313 23.7917 0.946641 23.7917 1.24575V15.4133Z" fill="#D620FF"/>
<path id="Vector_2" d="M22.3883 1.48833H8.96306C8.76885 1.48833 8.6114 1.64578 8.6114 1.83998C8.6114 2.03419 8.76885 2.19164 8.96306 2.19164H22.3576V14.4678H2.64374V2.19159H7.32229C7.51649 2.19159 7.67395 2.03414 7.67395 1.83994C7.67395 1.64573 7.51649 1.48828 7.32229 1.48828H2.61299C2.24216 1.48828 1.94043 1.79002 1.94043 2.16084V14.4984C1.94043 14.8693 2.24216 15.171 2.61299 15.171H22.3883C22.7592 15.171 23.0609 14.8693 23.0609 14.4984V2.16089C23.0609 1.79002 22.7592 1.48833 22.3883 1.48833Z" fill="#D620FF"/>
<path id="Vector_3" d="M6.18204 6.3893C6.37624 6.3893 6.5337 6.23189 6.5337 6.03769C6.5337 5.84349 6.37624 5.68604 6.18204 5.68604H4.26865C4.07445 5.68604 3.91699 5.84349 3.91699 6.03769V10.5787C3.91699 10.7729 4.07445 10.9303 4.26865 10.9303H6.18204C6.37624 10.9303 6.5337 10.7729 6.5337 10.5787C6.5337 10.3845 6.37624 10.227 6.18204 10.227H4.62031V8.65979H6.04095C6.23515 8.65979 6.3926 8.50233 6.3926 8.30813C6.3926 8.11393 6.23515 7.95647 6.04095 7.95647H4.62031V6.38925L6.18204 6.3893Z" fill="#D620FF"/>
<path id="Vector_4" d="M17.4398 8.12328C17.655 8.12328 17.8625 8.18661 18.0398 8.30637C18.2007 8.41508 18.4193 8.37275 18.528 8.21183C18.6366 8.05091 18.5944 7.83233 18.4334 7.72358C18.1394 7.52492 17.7958 7.41992 17.4398 7.41992C16.4601 7.41992 15.6631 8.21694 15.6631 9.19662C15.6631 10.1763 16.4601 10.9733 17.4398 10.9733C17.8312 10.9733 18.1826 10.8447 18.4558 10.6014C18.5093 10.5538 18.5601 10.5013 18.6071 10.4454C18.7319 10.2965 18.7124 10.0748 18.5636 9.95C18.4147 9.82522 18.1929 9.84467 18.0681 9.99345C18.0432 10.0233 18.0162 10.0511 17.9881 10.0761C17.8436 10.2048 17.6592 10.2701 17.4398 10.2701C16.8479 10.2701 16.3664 9.78852 16.3664 9.19662C16.3664 8.60483 16.8479 8.12328 17.4398 8.12328Z" fill="#D620FF"/>
<path id="Vector_5" d="M14.2189 9.14219V10.6C14.2189 10.7942 14.3763 10.9517 14.5705 10.9517C14.7648 10.9517 14.9222 10.7942 14.9222 10.6V9.14997C14.9507 8.4932 14.8383 8.05563 14.5684 7.77344C14.3576 7.55284 14.0584 7.441 13.6789 7.441C13.2889 7.441 12.9661 7.5783 12.7367 7.82205C12.5335 7.55898 12.2345 7.42628 11.8409 7.42628C11.5817 7.42628 11.3477 7.49748 11.1489 7.62639C11.1039 7.48403 10.9708 7.38086 10.8136 7.38086C10.6194 7.38086 10.4619 7.53827 10.4619 7.73247V10.6C10.4619 10.7942 10.6194 10.9517 10.8136 10.9517C11.0078 10.9517 11.1652 10.7942 11.1652 10.6V9.12217C11.1652 9.12048 11.1655 9.11889 11.1655 9.1172C11.1655 8.51725 11.4306 8.12959 11.8409 8.12959C12.0466 8.12959 12.3282 8.12959 12.3533 8.97925C12.3541 9.00592 12.3544 9.03348 12.3547 9.06128L12.3542 10.6C12.3542 10.7942 12.5116 10.9517 12.7058 10.9517C12.9 10.9517 13.0575 10.7942 13.0575 10.6L13.0583 8.92394C13.0583 8.5683 13.166 8.14431 13.6789 8.14431C13.95 8.14431 14.0329 8.23098 14.0601 8.25944C14.1464 8.34977 14.2441 8.57345 14.2192 9.12634C14.219 9.13164 14.2189 9.13689 14.2189 9.14219Z" fill="#D620FF"/>
<path id="Vector_6" d="M9.13075 8.18896H7.76767C7.57347 8.18896 7.41602 8.34642 7.41602 8.54062C7.41602 8.73482 7.57347 8.89223 7.76767 8.89223H9.13075C9.32495 8.89223 9.48241 8.73482 9.48241 8.54062C9.48241 8.34642 9.32495 8.18896 9.13075 8.18896Z" fill="#D620FF"/>
<path id="Vector_7" d="M9.13075 9.44043H7.76767C7.57347 9.44043 7.41602 9.59788 7.41602 9.79209C7.41602 9.98629 7.57347 10.1437 7.76767 10.1437H9.13075C9.32495 10.1437 9.48241 9.98629 9.48241 9.79209C9.48241 9.59788 9.32495 9.44043 9.13075 9.44043Z" fill="#D620FF"/>
<path id="Vector_8" d="M20.9639 6.76332C21.0002 6.58683 20.9913 6.40477 20.9101 6.2251C20.7637 5.90077 20.4325 5.68604 20.0765 5.68604C19.6407 5.68604 19.2634 5.99611 19.1795 6.42333C19.1421 6.61388 19.2662 6.79875 19.4568 6.83616C19.6475 6.87347 19.8322 6.74944 19.8696 6.55889C19.8889 6.4606 19.9759 6.38925 20.0765 6.38925C20.187 6.38925 20.278 6.47475 20.2867 6.58308L20.2819 6.62053C20.2634 6.68968 20.2178 6.80152 20.1063 6.96075C19.7593 7.4565 19.5524 7.72749 19.4412 7.87308C19.3012 8.05641 19.2086 8.17758 19.2666 8.36611C19.3009 8.47758 19.3883 8.5665 19.5008 8.60405C19.5473 8.61952 19.5823 8.63114 20.021 8.63114C20.1909 8.63114 20.4214 8.62941 20.7365 8.62543C20.9307 8.62299 21.0862 8.46357 21.0837 8.26941C21.0813 8.07671 20.9244 7.92221 20.7322 7.92221C20.7307 7.92221 20.7292 7.92221 20.7277 7.92221C20.5796 7.92408 20.4248 7.92549 20.2802 7.92638C20.3873 7.78046 20.52 7.59619 20.6825 7.36402C20.8104 7.18144 20.9201 6.9765 20.9639 6.76332Z" fill="#D620FF"/>
</g>
</g>
</g>
<defs>
<clipPath id="clip0_2106_2873">
<rect width="24" height="24" fill="white" transform="translate(0.5)"/>
</clipPath>
</defs>
</svg>
