<svg width="16" height="16" viewBox="0 0 16 16" fill="none" xmlns="http://www.w3.org/2000/svg">
<g clip-path="url(#clip0_0_1991)">
<path d="M5.56942 11.7641L4.23613 10.4308C4.16794 10.3609 4.07207 10.3252 3.97479 10.3334C3.87817 10.3404 3.78933 10.3891 3.73146 10.4668L0.0669384 15.4666C-0.0435263 15.6139 -0.0136836 15.8228 0.133592 15.9332C0.252119 16.0221 0.41505 16.0221 0.533577 15.9332L5.53339 12.2667C5.68189 12.1579 5.7141 11.9493 5.60533 11.8009C5.59523 11.7871 5.58414 11.7741 5.57208 11.7621L5.56942 11.7641Z" fill="#CFD8DC"/>
<path d="M9.90257 9.43094L6.56938 6.09775C6.00862 5.66118 5.30996 5.44003 4.60011 5.47443C3.6709 5.44193 2.76812 5.78702 2.09755 6.43105C1.55623 6.97238 1.61222 7.809 2.2642 8.91831C2.87993 9.88377 3.60712 10.7734 4.43077 11.5689C5.75673 12.8942 7.43066 14.2714 8.65062 14.2714C8.99445 14.2801 9.32659 14.1465 9.56858 13.9021C10.9565 12.5148 10.6105 10.1396 9.90257 9.43094Z" fill="#D32F2F"/>
<path d="M12.5691 6.76431L9.23591 3.43109C9.10576 3.30097 8.89477 3.30097 8.76459 3.43109L6.09803 6.09764C5.66204 6.53363 5.69804 7.49759 7.09799 8.9022C8.01196 9.81616 8.74059 10.1488 9.25791 10.1488C9.49734 10.1573 9.72992 10.0683 9.90254 9.90216L12.5691 7.2356C12.6993 7.10545 12.6993 6.89446 12.5691 6.76431Z" fill="#F44336"/>
<path d="M15.9743 5.87303C15.9228 5.74838 15.8012 5.66707 15.6663 5.66704C14.9437 5.66704 13.3571 4.88573 12.2358 3.76445C11.1145 2.64318 10.3332 1.05721 10.3332 0.333926C10.3335 0.149839 10.1846 0.000344254 10.0005 5.1722e-07C9.91173 -0.000155727 9.82658 0.035093 9.7639 0.0979344C8.4026 1.45988 7.9773 3.78245 10.0972 5.90238C10.9037 6.79862 12.0389 7.32992 13.2438 7.37498C14.2459 7.36348 15.2023 6.95356 15.9017 6.23568C15.9969 6.14059 16.0255 5.99753 15.9743 5.87303Z" fill="#D32F2F"/>
<path d="M13.9025 2.09775C12.4905 0.686463 11.2139 0.000488281 9.99996 0.000488281C9.81587 0.000488281 9.66663 0.149733 9.66663 0.33382C9.66663 1.32913 10.6079 3.07972 11.7639 4.23633C12.9198 5.39294 14.6718 6.3336 15.6664 6.3336C15.8505 6.3336 15.9997 6.18435 15.9997 6.00027C15.9997 4.78566 15.3138 3.50901 13.9025 2.09775Z" fill="#F44336"/>
</g>
<defs>
<clipPath id="clip0_0_1991">
<rect width="16" height="16" fill="white"/>
</clipPath>
</defs>
</svg>
