<svg width="24" height="24" viewBox="0 0 24 24" fill="none" xmlns="http://www.w3.org/2000/svg">
<g id="fi_1491202" clip-path="url(#clip0_2106_2900)">
<g id="Page-1">
<g id="038---Mind-Map">
<path id="Shape" d="M20.5427 11.9702C20.6389 12.0151 20.7491 12.02 20.8489 11.9837C20.9487 11.9473 21.0299 11.8728 21.0747 11.7766C21.4476 10.9776 21.6443 10.1078 21.6515 9.22615C21.6647 8.38496 21.594 7.54455 21.4407 6.71735C21.414 6.57695 21.3144 6.46146 21.1794 6.4144C21.0445 6.36734 20.8947 6.39586 20.7864 6.4892C20.6782 6.58255 20.628 6.72655 20.6547 6.86695C20.7982 7.64073 20.8641 8.42689 20.8515 9.21375C20.8461 9.98333 20.6749 10.7427 20.3495 11.4402C20.2572 11.6399 20.3435 11.8767 20.5427 11.9702Z" fill="#D620FF"/>
<path id="Shape_2" d="M0.588441 14.9566C0.719954 15.048 0.858832 15.1283 1.00364 15.1966C1.17644 15.285 1.46644 15.433 1.48684 15.5366C1.51198 15.6734 1.49554 15.8145 1.43964 15.9418C1.38004 16.0698 1.31764 16.1798 1.26364 16.2746C1.11724 16.5334 0.872041 16.967 1.24164 17.269C1.32804 17.349 1.47724 17.4646 1.61324 17.569C1.51312 17.7441 1.46784 17.9452 1.48324 18.1462C1.50447 18.3046 1.59034 18.4471 1.72044 18.5398C1.80924 18.6022 1.90404 18.6566 1.99724 18.7098C2.23404 18.8442 2.32644 18.907 2.35724 19.0326C2.37947 19.1936 2.36581 19.3575 2.31724 19.5126C2.29364 19.6194 2.27084 19.7266 2.25724 19.8326C2.21752 20.1972 2.26256 20.566 2.38884 20.9102C2.56877 21.5458 3.14363 21.9885 3.80404 22.0002C3.91428 21.9999 4.02419 21.9883 4.13204 21.9654C5.27475 21.6946 6.40078 21.3576 7.50444 20.9562C8.40564 21.485 8.97484 23.093 9.12324 23.6966C9.16755 23.8751 9.32779 24.0003 9.51164 24.0002L19.5516 23.9722C19.6789 23.972 19.7984 23.9112 19.8736 23.8086C19.9488 23.7059 19.9706 23.5736 19.9324 23.4522C19.8335 23.1812 19.6972 22.9254 19.5272 22.6922C19.4313 22.554 19.3449 22.4094 19.2684 22.2594C19.0873 21.8929 18.9362 21.5121 18.8168 21.121C18.5883 20.3481 18.43 19.5561 18.3436 18.7546C18.2036 17.557 18.386 16.3437 18.872 15.2402C18.9518 15.0528 19.0465 14.8721 19.1552 14.6998C19.231 14.5784 19.2362 14.4257 19.1688 14.2994C19.1015 14.1731 18.9719 14.0922 18.8288 14.0874C18.6858 14.0825 18.551 14.1544 18.4752 14.2758C18.3456 14.4828 18.2322 14.6994 18.136 14.9238C17.5947 16.1577 17.3923 17.5137 17.5496 18.8518C17.6421 19.7014 17.8108 20.5409 18.0536 21.3602C18.1853 21.7902 18.3513 22.2089 18.55 22.6122C18.6413 22.7934 18.7449 22.9681 18.86 23.135L18.8868 23.175L9.81404 23.2002C9.54851 22.2514 9.06655 21.377 8.40604 20.6458L8.76604 20.5198C9.03404 20.4262 9.23604 20.3558 9.33964 20.3226C11.0532 19.7806 11.91 19.0002 11.8868 18.0026C11.8816 17.7855 11.7041 17.6122 11.4868 17.6122H11.4796C11.2589 17.6175 11.0841 17.8007 11.0892 18.0214C11.0988 18.433 10.7616 19.0334 9.09884 19.5594C8.99044 19.5942 8.78164 19.667 8.50444 19.7638C8.20724 19.8678 7.82924 19.9998 7.41244 20.1414H7.40964C6.28396 20.5541 5.13538 20.9013 3.96964 21.1814C3.59659 21.2535 3.23318 21.0182 3.14644 20.6482C3.06099 20.4207 3.02883 20.1766 3.05244 19.9346C3.06284 19.8506 3.08204 19.7674 3.10044 19.6838C3.18195 19.4073 3.1939 19.1149 3.13524 18.8326C3.0189 18.4652 2.74852 18.1665 2.39444 18.0142L2.31164 17.967C2.35483 17.8798 2.40641 17.797 2.46564 17.7198C2.53274 17.6348 2.5625 17.5262 2.5481 17.4189C2.5337 17.3115 2.47638 17.2146 2.38924 17.1502C2.29324 17.0798 2.06684 16.9102 1.90124 16.7766C1.92044 16.7418 1.94124 16.7034 1.96124 16.6686C2.02404 16.5586 2.09564 16.4306 2.16564 16.2826C2.29222 16.0023 2.32951 15.6897 2.27244 15.3874C2.17644 14.8994 1.70884 14.6602 1.36804 14.4858C1.25296 14.4312 1.14259 14.3671 1.03804 14.2942C0.952989 14.2368 0.873209 14.1718 0.799641 14.1002C0.799641 14.0394 0.864841 13.8922 1.16964 13.5214C1.88607 12.5991 2.50033 11.6018 3.00164 10.547C3.09538 10.3818 3.14818 10.1965 3.15564 10.0066C3.11432 9.60458 2.90126 9.23999 2.57124 9.00664C2.41124 8.85824 2.25724 8.71824 2.23924 8.58784C2.24189 8.49343 2.2631 8.40046 2.30164 8.31424C2.36684 8.14264 2.44204 7.97464 2.51764 7.80624C2.68166 7.46804 2.81267 7.1148 2.90884 6.75144L2.94884 6.58104C3.03328 6.18115 3.14215 5.78681 3.27484 5.40024C3.59016 4.52994 4.07836 3.73247 4.71004 3.05584C5.47524 2.24624 6.67964 1.67344 8.29484 1.35224C8.70804 1.26864 9.12164 1.18944 9.53924 1.11224C9.74469 1.06182 9.87537 0.860152 9.83743 0.652034C9.7995 0.443915 9.60607 0.30132 9.39604 0.326639C8.97417 0.402906 8.55471 0.482906 8.13764 0.566639C6.33404 0.926639 5.02324 1.55904 4.12844 2.50464C3.42261 3.25991 2.87686 4.15016 2.52404 5.12184C2.37994 5.54034 2.26159 5.96728 2.16964 6.40024L2.12964 6.56904C2.04427 6.88276 1.92977 7.18782 1.78764 7.48024C1.70764 7.66264 1.62444 7.84504 1.55284 8.03384C1.46078 8.244 1.42441 8.47434 1.44724 8.70264C1.52773 9.06112 1.73461 9.37862 2.03004 9.59704C2.22564 9.77624 2.35404 9.90264 2.35564 10.0126C2.34133 10.0734 2.31843 10.1319 2.28764 10.1862C1.80863 11.1947 1.22188 12.1484 0.537641 13.0306C0.247641 13.3834 -0.0563588 13.795 0.00764116 14.207C0.0924889 14.5249 0.301863 14.7951 0.588441 14.9566Z" fill="#D620FF"/>
<path id="Shape_3" d="M15.5268 0.502739C15.3918 0.455723 15.242 0.484287 15.1338 0.57767C15.0256 0.671054 14.9754 0.815071 15.0022 0.95547C15.029 1.09587 15.1286 1.21132 15.2636 1.25834C15.9556 1.50359 16.6163 1.82958 17.232 2.22954C17.4182 2.34839 17.6655 2.29377 17.7844 2.10754C17.9032 1.92131 17.8486 1.67399 17.6624 1.55514C16.9943 1.12167 16.2775 0.768437 15.5268 0.502739Z" fill="#D620FF"/>
<path id="Shape_4" d="M4.46661 7.12025L4.50661 6.94625C4.57678 6.61206 4.66613 6.28218 4.77421 5.95825C5.01545 5.29062 5.38875 4.67843 5.87181 4.15825C6.39026 3.66951 7.02479 3.32106 7.71541 3.14585C7.85486 3.10656 7.96216 2.99493 7.99591 2.85404C8.02967 2.71315 7.9846 2.56502 7.8781 2.46681C7.7716 2.36859 7.62032 2.33563 7.48261 2.38065C6.65837 2.59485 5.90327 3.01794 5.29021 3.60905C4.73318 4.20726 4.30259 4.91172 4.02421 5.68025C3.90429 6.0349 3.80546 6.39633 3.72821 6.76265L3.68821 6.93585C3.65406 7.07553 3.69751 7.22278 3.802 7.32155C3.9065 7.42032 4.05597 7.4554 4.1935 7.41344C4.33103 7.37148 4.43545 7.25893 4.46701 7.11865L4.46661 7.12025Z" fill="#D620FF"/>
<path id="Oval" d="M3.59922 8.8C3.82013 8.8 3.99922 8.62091 3.99922 8.4C3.99922 8.17909 3.82013 8 3.59922 8C3.3783 8 3.19922 8.17909 3.19922 8.4C3.19922 8.62091 3.3783 8.8 3.59922 8.8Z" fill="#D620FF"/>
<path id="Shape_5" d="M14.7998 6C13.6958 6.00132 12.8011 6.89598 12.7998 8C12.7998 8.22091 12.9789 8.4 13.1998 8.4C13.4207 8.4 13.5998 8.22091 13.5998 8C13.5998 7.33726 14.1371 6.8 14.7998 6.8C15.0207 6.8 15.1998 6.62091 15.1998 6.4C15.1998 6.17909 15.0207 6 14.7998 6Z" fill="#D620FF"/>
<path id="Shape_6" d="M21.9997 12.8001C21.5881 12.8006 21.1868 12.9291 20.8513 13.1677L17.6725 10.1601C18.5769 8.96921 18.6436 7.34102 17.8397 6.08011L19.2045 4.98811C20.1341 5.81198 21.5398 5.78645 22.4389 4.92937C23.3379 4.07229 23.4306 2.66939 22.6521 1.70152C21.8736 0.733647 20.4834 0.523463 19.4535 1.21792C18.4237 1.91238 18.0975 3.27996 18.7029 4.36451L17.3429 5.45331C16.4299 4.53527 15.0915 4.18326 13.8449 4.53331L13.4977 3.66931C14.324 3.12322 14.6249 2.05381 14.2046 1.15699C13.7842 0.260178 12.7698 -0.192745 11.8215 0.0929652C10.8731 0.378676 10.2777 1.31659 10.4227 2.29636C10.5678 3.27613 11.4093 4.00136 12.3997 4.00011C12.5186 3.99867 12.637 3.98675 12.7537 3.96451L13.1005 4.82771C11.572 5.64492 10.8438 7.43616 11.3685 9.08811L9.59975 9.87451C8.90038 8.80809 7.49988 8.45651 6.37976 9.06617C5.25963 9.67584 4.79453 11.0428 5.3104 12.2091C5.82628 13.3754 7.15059 13.9509 8.35522 13.5323C9.55985 13.1137 10.2419 11.841 9.92335 10.6061L11.6985 9.81731C12.1344 10.559 12.8204 11.1209 13.6333 11.4021L13.1437 13.6057C12.3335 13.6296 11.6676 14.2525 11.5898 15.0593C11.5119 15.8661 12.0465 16.6049 12.8372 16.7832C13.6279 16.9615 14.4278 16.5237 14.7038 15.7616C14.9798 14.9995 14.6457 14.151 13.9241 13.7817L14.4125 11.5785C14.5411 11.5926 14.6704 11.5998 14.7997 11.6001C15.6518 11.6004 16.4761 11.2969 17.1245 10.7441L20.3041 13.7521C20.1065 14.066 20.001 14.4292 19.9997 14.8001C19.9997 15.9047 20.8952 16.8001 21.9997 16.8001C23.1043 16.8001 23.9997 15.9047 23.9997 14.8001C23.9997 13.6955 23.1043 12.8001 21.9997 12.8001ZM11.1997 2.00011C11.1987 1.39567 11.6473 0.884783 12.2469 0.807774C12.8464 0.730764 13.4096 1.11168 13.5613 1.69676C13.7131 2.28185 13.4059 2.88847 12.8445 3.11251H12.8421C12.7016 3.16965 12.5514 3.19939 12.3997 3.20011C12.0815 3.20011 11.7763 3.07368 11.5512 2.84864C11.3262 2.6236 11.1997 2.31837 11.1997 2.00011ZM7.59975 12.8001C6.71609 12.8001 5.99975 12.0838 5.99975 11.2001C5.99975 10.3165 6.71609 9.60011 7.59975 9.60011C8.4834 9.60011 9.19975 10.3165 9.19975 11.2001C9.19975 12.0838 8.4834 12.8001 7.59975 12.8001ZM13.1997 16.0001C12.7579 16.0001 12.3997 15.6419 12.3997 15.2001C12.3997 14.7583 12.7579 14.4001 13.1997 14.4001C13.6416 14.4001 13.9997 14.7583 13.9997 15.2001C13.9997 15.6419 13.6416 16.0001 13.1997 16.0001ZM20.7997 1.60011C21.6834 1.60011 22.3997 2.31646 22.3997 3.20011C22.3997 4.08377 21.6834 4.80011 20.7997 4.80011C19.9161 4.80011 19.1997 4.08377 19.1997 3.20011C19.1997 2.31646 19.9161 1.60011 20.7997 1.60011ZM11.9997 8.00011C11.9997 6.45372 13.2533 5.20011 14.7997 5.20011C16.3461 5.20011 17.5997 6.45372 17.5997 8.00011C17.5997 9.54651 16.3461 10.8001 14.7997 10.8001C13.2541 10.7984 12.0015 9.54578 11.9997 8.00011ZM21.9997 16.0001C21.337 16.0001 20.7997 15.4629 20.7997 14.8001C20.7997 14.1374 21.337 13.6001 21.9997 13.6001C22.6625 13.6001 23.1997 14.1374 23.1997 14.8001C23.1997 15.4629 22.6625 16.0001 21.9997 16.0001Z" fill="#D620FF"/>
</g>
</g>
</g>
<defs>
<clipPath id="clip0_2106_2900">
<rect width="24" height="24" fill="white"/>
</clipPath>
</defs>
</svg>
