<svg width="70" height="70" viewBox="0 0 70 70" fill="none" xmlns="http://www.w3.org/2000/svg">
<g id="fi_2576145">
<g id="Group">
<path id="Vector" d="M2.97063 45.2539H20.6445C31.9519 45.2539 41.1523 36.0534 41.1523 24.7461C41.1523 13.4388 31.9519 4.23828 20.6445 4.23828C9.33721 4.23828 0 13.4388 0 24.7461C0 30.1514 2.26762 35.3105 6.03066 39.1336L2.97063 45.2539ZM22.6953 37.0508H18.5938V32.9492H22.6953V37.0508ZM20.6445 12.4414C25.1687 12.4414 28.8477 16.1204 28.8477 20.6445C28.8477 23.7087 27.1593 26.4965 24.4416 27.9163C23.3643 28.4811 22.6953 29.6848 22.6953 30.8984H18.5938C18.5938 28.0506 20.1059 25.5552 22.539 24.2834C23.9009 23.5704 24.7461 22.1766 24.7461 20.6445C24.7461 18.3835 22.9056 16.543 20.6445 16.543C18.3835 16.543 16.543 18.3835 16.543 20.6445H12.4414C12.4414 16.1204 16.1204 12.4414 20.6445 12.4414Z" fill="white"/>
<path id="Vector_2" d="M45.232 25.1759C45.0507 35.5817 38.3853 44.4108 29.1074 47.8246C30.3886 57.9096 38.9282 65.7617 49.3553 65.7617H67.0292L63.9691 59.6414C67.7322 55.8183 69.9999 50.6592 69.9999 45.2539C69.9999 33.9279 60.6814 24.7461 49.3553 24.7461C47.9441 24.7461 46.5653 24.895 45.232 25.1759ZM59.6092 51.4062H43.203V47.3047H59.6092V51.4062ZM59.6092 43.2031H43.203V39.1016H59.6092V43.2031Z" fill="white"/>
</g>
</g>
</svg>
