<svg width="33" height="32" viewBox="0 0 33 32" fill="none" xmlns="http://www.w3.org/2000/svg">
<rect x="0.127197" width="31.8869" height="32" rx="4" fill="white"/>
<g clip-path="url(#clip0_0_1804)">
<path d="M25.4317 24.2168L20.6717 19.2662C21.8955 17.8113 22.5661 15.9807 22.5661 14.075C22.5661 9.62251 18.9436 6 14.4911 6C10.0386 6 6.41614 9.62251 6.41614 14.075C6.41614 18.5275 10.0386 22.15 14.4911 22.15C16.1627 22.15 17.7555 21.6458 19.1174 20.6888L23.9136 25.677C24.1141 25.8852 24.3837 26 24.6726 26C24.9461 26 25.2056 25.8957 25.4026 25.7061C25.821 25.3034 25.8344 24.6357 25.4317 24.2168ZM14.4911 8.10652C17.7822 8.10652 20.4596 10.7839 20.4596 14.075C20.4596 17.3661 17.7822 20.0435 14.4911 20.0435C11.2 20.0435 8.52266 17.3661 8.52266 14.075C8.52266 10.7839 11.2 8.10652 14.4911 8.10652Z" fill="#2065FF"/>
</g>
<defs>
<clipPath id="clip0_0_1804">
<rect width="20" height="20" fill="white" transform="translate(6.07068 6)"/>
</clipPath>
</defs>
</svg>
