<svg width="25" height="24" viewBox="0 0 25 24" fill="none" xmlns="http://www.w3.org/2000/svg">
<path d="M13.2565 12.1953H11.8133C11.2289 12.196 10.6687 12.4285 10.2555 12.8417C9.84238 13.255 9.61 13.8152 9.60938 14.3995V14.8994C9.60975 15.1928 9.72647 15.4741 9.93393 15.6815C10.1414 15.889 10.4227 16.0057 10.7161 16.0061H14.354C14.6474 16.0057 14.9287 15.889 15.1361 15.6815C15.3436 15.4741 15.4603 15.1928 15.4607 14.8994V14.3995C15.46 13.8151 15.2276 13.2549 14.8144 12.8416C14.4012 12.4284 13.8409 12.196 13.2565 12.1953ZM14.7107 14.8994C14.7106 14.994 14.673 15.0846 14.6061 15.1515C14.5392 15.2184 14.4486 15.256 14.354 15.2561H10.7161C10.6215 15.256 10.5309 15.2184 10.464 15.1515C10.3971 15.0846 10.3595 14.994 10.3594 14.8994V14.3995C10.3598 14.014 10.513 13.6444 10.7856 13.3718C11.0582 13.0991 11.4278 12.9458 11.8133 12.9453H13.2565C13.6421 12.9457 14.0117 13.099 14.2844 13.3717C14.557 13.6443 14.7103 14.014 14.7107 14.3995L14.7107 14.8994Z" fill="#D620FF"/>
<path d="M12.5359 11.3851C12.971 11.3812 13.3869 11.2056 13.6932 10.8965C13.9995 10.5874 14.1713 10.1699 14.1713 9.73478C14.1713 9.29966 13.9995 8.88214 13.6932 8.57307C13.3869 8.26401 12.971 8.0884 12.5358 8.08447C12.1007 8.08841 11.6848 8.26403 11.3785 8.5731C11.0722 8.88217 10.9004 9.29969 10.9004 9.73482C10.9004 10.1699 11.0722 10.5875 11.3785 10.8965C11.6848 11.2056 12.1008 11.3812 12.5359 11.3851ZM12.5359 8.83447C12.7731 8.83685 12.9998 8.93275 13.1667 9.10134C13.3336 9.26993 13.4272 9.49758 13.4272 9.73482C13.4272 9.97205 13.3336 10.1997 13.1667 10.3683C12.9998 10.5369 12.7731 10.6328 12.5359 10.6351C12.2986 10.6328 12.0719 10.5369 11.905 10.3683C11.7381 10.1997 11.6445 9.97202 11.6445 9.73479C11.6445 9.49755 11.7381 9.26991 11.905 9.10132C12.072 8.93274 12.2987 8.83684 12.5359 8.83447Z" fill="#D620FF"/>
<path d="M20.7599 22.5002C23.7027 22.4079 23.7124 18.1347 20.7598 18.039C20.2995 18.0405 19.8511 18.1861 19.4778 18.4555L17.5568 16.5378C18.5943 15.3941 19.2012 13.925 19.2732 12.3826H21.6137L20.7683 13.2278C20.698 13.2981 20.6585 13.3935 20.6585 13.4929C20.6585 13.5924 20.698 13.6877 20.7683 13.758C20.8386 13.8284 20.934 13.8679 21.0334 13.8679C21.1329 13.8679 21.2282 13.8284 21.2986 13.758L22.783 12.2739C22.8183 12.2384 22.8462 12.1963 22.8649 12.1499C22.8837 12.1035 22.8931 12.0539 22.8924 12.0039C22.8918 11.9538 22.8812 11.9044 22.8613 11.8586C22.8413 11.8127 22.8124 11.7712 22.7763 11.7366L21.2985 10.2589C21.2278 10.1907 21.1331 10.153 21.0348 10.1539C20.9366 10.1548 20.8426 10.1942 20.7731 10.2637C20.7036 10.3332 20.6641 10.4272 20.6632 10.5255C20.6624 10.6237 20.7001 10.7184 20.7683 10.7892L21.6117 11.6326H19.2696C19.2016 10.5011 18.848 9.40538 18.2418 8.44763C18.029 8.1169 17.7879 7.80526 17.5213 7.51621L19.4754 5.56236C21.7023 7.05467 24.1778 4.12582 22.3378 2.1733C20.3873 0.24315 17.3631 2.79858 18.9377 5.03963L16.989 6.9879C15.8519 5.97079 14.3986 5.37727 12.8746 5.3076V2.89523L13.7173 3.73813C13.7881 3.80609 13.8827 3.84359 13.9808 3.84258C14.0789 3.84157 14.1728 3.80214 14.2422 3.73275C14.3115 3.66335 14.351 3.56952 14.352 3.47139C14.353 3.37326 14.3155 3.27864 14.2475 3.20785L12.7698 1.72973C12.703 1.65976 12.6116 1.61859 12.5149 1.61499C12.4183 1.61138 12.324 1.64562 12.2522 1.71042C12.2463 1.71558 12.2386 1.71769 12.233 1.72325L10.7484 3.20788C10.7136 3.2427 10.6859 3.28403 10.6671 3.32952C10.6483 3.37502 10.6386 3.42377 10.6386 3.47301C10.6386 3.52225 10.6483 3.57101 10.6671 3.6165C10.6859 3.662 10.7136 3.70333 10.7484 3.73815C10.7832 3.77297 10.8245 3.80059 10.87 3.81943C10.9155 3.83827 10.9643 3.84797 11.0135 3.84797C11.0628 3.84797 11.1115 3.83827 11.157 3.81943C11.2025 3.80059 11.2438 3.77297 11.2787 3.73815L12.1246 2.89219V5.31104C10.993 5.3785 9.89694 5.73178 8.93894 6.33787C8.62072 6.54013 8.32079 6.76979 8.04254 7.02424L6.05804 5.03974C6.32619 4.66296 6.47017 4.21194 6.46994 3.74948C6.38199 0.806134 2.09438 0.799504 2.00876 3.74953C2.01337 4.15655 2.12864 4.55464 2.34222 4.90114C2.55581 5.24765 2.85966 5.5295 3.2212 5.7165C3.58275 5.90349 3.98837 5.98858 4.39458 5.96264C4.8008 5.93671 5.1923 5.80072 5.52713 5.56926L7.51232 7.55455C6.49318 8.67875 5.88922 10.1177 5.80071 11.6325H3.38425L4.22762 10.7892C4.2956 10.7184 4.33312 10.6237 4.33212 10.5256C4.33112 10.4275 4.29169 10.3336 4.22228 10.2642C4.15288 10.1948 4.05904 10.1554 3.96089 10.1544C3.86275 10.1534 3.76813 10.1909 3.69734 10.2589L2.21274 11.7435C2.17791 11.7783 2.15028 11.8197 2.13143 11.8652C2.11258 11.9106 2.10288 11.9594 2.10288 12.0087C2.10288 12.0579 2.11258 12.1067 2.13143 12.1521C2.15028 12.1976 2.17791 12.239 2.21274 12.2738L3.69737 13.758C3.76812 13.8263 3.86282 13.864 3.96109 13.8631C4.05937 13.8622 4.15336 13.8227 4.22285 13.7532C4.29234 13.6837 4.33178 13.5897 4.33267 13.4915C4.33356 13.3932 4.29584 13.2985 4.22762 13.2278L3.38217 12.3826H5.79701C5.86918 13.9069 6.46246 15.3602 7.47765 16.4996L5.52587 18.4511C3.28831 16.9231 0.781096 19.8882 2.65919 21.8433C4.60253 23.7382 7.59461 21.212 6.05781 18.9796L8.00594 17.0318C8.29447 17.2982 8.60554 17.539 8.93565 17.7516C9.89459 18.3585 10.9918 18.7124 12.1246 18.7801V21.1247L11.2787 20.2788C11.2079 20.2108 11.1132 20.1733 11.0151 20.1743C10.917 20.1753 10.8231 20.2147 10.7537 20.2841C10.6843 20.3535 10.6449 20.4474 10.6439 20.5455C10.6429 20.6437 10.6804 20.7383 10.7484 20.8091L12.233 22.2937C12.2678 22.3285 12.3091 22.3561 12.3546 22.375C12.4001 22.3939 12.4489 22.4036 12.4981 22.4035C12.5482 22.4033 12.5977 22.3932 12.6438 22.3738C12.6899 22.3543 12.7317 22.3259 12.7667 22.2902L14.2475 20.8091C14.3157 20.7383 14.3535 20.6436 14.3526 20.5453C14.3517 20.4471 14.3122 20.3531 14.2427 20.2836C14.1732 20.2141 14.0792 20.1747 13.981 20.1738C13.8827 20.1729 13.788 20.2106 13.7172 20.2788L12.8746 21.1217V18.7837C14.4158 18.7113 15.8837 18.1048 17.0264 17.0682L18.9417 18.9803C18.7098 19.315 18.5734 19.7065 18.5472 20.1129C18.5209 20.5192 18.6058 20.9251 18.7926 21.2868C18.9795 21.6486 19.2613 21.9527 19.6079 22.1665C19.9545 22.3802 20.3527 22.4956 20.7599 22.5002ZM22.2405 20.2696C22.1896 22.2181 19.3316 22.2248 19.2793 20.2696C19.3287 18.3196 22.1904 18.3169 22.2405 20.2696ZM20.7412 2.25023C22.6917 2.2981 22.6953 5.15977 20.7411 5.21141C20.3508 5.20789 19.9776 5.05034 19.7028 4.77306C19.428 4.49577 19.2738 4.12118 19.2738 3.7308C19.2738 3.34041 19.428 2.96583 19.7028 2.68855C19.9776 2.41127 20.3508 2.25374 20.7412 2.25023ZM2.75876 3.74948C2.80353 1.79821 5.66937 1.7961 5.71994 3.74952C5.67329 5.70177 2.80899 5.70176 2.75876 3.74948ZM4.23935 21.7502C2.28781 21.7033 2.28649 18.8394 4.2394 18.789C6.18934 18.8383 6.19465 21.6971 4.23935 21.7502ZM15.7325 17.1184C11.8137 19.6506 6.49589 16.7127 6.53517 12.0456C6.49621 7.38229 11.8109 4.43761 15.734 6.97407C19.4463 9.26026 19.4451 14.836 15.7325 17.1184Z" fill="#D620FF"/>
</svg>
