<svg width="20" height="20" viewBox="0 0 20 20" fill="none" xmlns="http://www.w3.org/2000/svg">
<g id="fi_10509226">
<g id="Group">
<path id="Vector" d="M3.66699 16.6133H6.33366V17.6666C6.33366 17.8434 6.26342 18.013 6.1384 18.138C6.01337 18.263 5.8438 18.3333 5.66699 18.3333H4.33366C4.15685 18.3333 3.98728 18.263 3.86225 18.138C3.73723 18.013 3.66699 17.8434 3.66699 17.6666V16.6133Z" fill="#802F34"/>
<path id="Vector_2" d="M13.667 16.6133H16.3337V17.6666C16.3337 17.8434 16.2634 18.013 16.1384 18.138C16.0134 18.263 15.8438 18.3333 15.667 18.3333H14.3337C14.1568 18.3333 13.9873 18.263 13.8623 18.138C13.7372 18.013 13.667 17.8434 13.667 17.6666V16.6133Z" fill="#802F34"/>
<path id="Vector_3" d="M6 8.97984V7.33317C6.00053 7.15652 6.07093 6.98726 6.19584 6.86235C6.32075 6.73744 6.49002 6.66703 6.66667 6.6665C6.84307 6.66781 7.01188 6.73847 7.13663 6.86321C7.26137 6.98795 7.33202 7.15676 7.33333 7.33317V8.32317L6 8.97984Z" fill="#802F34"/>
<path id="Vector_4" d="M12.667 8.32317V7.33317C12.6675 7.15652 12.7379 6.98726 12.8628 6.86235C12.9877 6.73744 13.157 6.66703 13.3337 6.6665C13.5101 6.66781 13.6789 6.73847 13.8036 6.86321C13.9284 6.98795 13.999 7.15676 14.0003 7.33317V8.97984L12.667 8.32317Z" fill="#802F34"/>
</g>
<path id="Vector_5" d="M19.6663 6.50667C19.6663 7.38334 19.0597 8.55667 18.1397 8.95334C18.0429 8.99415 17.9373 9.00908 17.833 8.99667C16.8827 8.86885 16.0044 8.42088 15.343 7.72667C15.2409 7.6211 15.1767 7.48466 15.1604 7.33869C15.1441 7.19273 15.1767 7.04549 15.253 6.92001L15.403 6.67001L15.743 6.10001C14.7563 5.59001 12.8163 5.00667 9.99967 5.00667C7.18301 5.00667 5.24301 5.59001 4.25634 6.10001L4.59634 6.67001L4.74634 6.92001C4.82266 7.04549 4.85523 7.19273 4.83895 7.33869C4.82266 7.48466 4.75844 7.6211 4.65634 7.72667C3.99494 8.42088 3.11663 8.86885 2.16634 8.99667C2.06209 9.00908 1.95641 8.99415 1.85967 8.95334C0.939674 8.55667 0.333008 7.38334 0.333008 6.50667C0.333008 3.18667 5.34301 1.67334 9.99967 1.67334C14.6563 1.67334 19.6663 3.18667 19.6663 6.50667Z" fill="#E64C3C"/>
<path id="Vector_6" d="M1.66634 6.84014C1.57794 6.84014 1.49315 6.80502 1.43064 6.74251C1.36813 6.68 1.33301 6.59522 1.33301 6.50681C1.33943 6.00235 1.52168 5.51594 1.84834 5.13148C1.87536 5.09624 1.90915 5.06676 1.94772 5.04476C1.98629 5.02276 2.02887 5.00869 2.07295 5.00337C2.11704 4.99806 2.16174 5.0016 2.20443 5.0138C2.24713 5.026 2.28696 5.04661 2.32158 5.07441C2.3562 5.10221 2.38492 5.13666 2.40604 5.17571C2.42717 5.21477 2.44028 5.25765 2.44461 5.30184C2.44893 5.34603 2.44438 5.39065 2.43123 5.43306C2.41808 5.47547 2.39658 5.51482 2.36801 5.54881C2.13772 5.81569 2.0075 6.1544 1.99967 6.50681C1.99967 6.59522 1.96456 6.68 1.90204 6.74251C1.83953 6.80502 1.75475 6.84014 1.66634 6.84014Z" fill="#FB7B76"/>
<path id="Vector_7" d="M3.33378 4.70778C3.25967 4.70788 3.18763 4.68327 3.12906 4.63786C3.0705 4.59244 3.02874 4.5288 3.01038 4.45699C2.99203 4.38518 2.99813 4.30931 3.02772 4.24136C3.05731 4.17341 3.10871 4.11726 3.17378 4.08178C4.13906 3.58763 5.17109 3.23651 6.23745 3.03945C6.32413 3.02177 6.41428 3.03924 6.48808 3.08803C6.56188 3.13682 6.61327 3.21293 6.63095 3.29961C6.64863 3.38629 6.63115 3.47645 6.58236 3.55024C6.53357 3.62404 6.45746 3.67543 6.37078 3.69311C5.36953 3.87626 4.40026 4.20414 3.49345 4.66645C3.44456 4.69346 3.38964 4.70768 3.33378 4.70778Z" fill="#FB7B76"/>
<path id="Vector_8" d="M4.59685 6.6701C4.5897 6.67881 4.58055 6.68568 4.57018 6.6901C4.3487 6.78531 4.14905 6.92483 3.98351 7.1001C3.93283 7.1721 3.85602 7.22147 3.76947 7.23766C3.68292 7.25384 3.59346 7.23558 3.52018 7.18676C3.44742 7.1358 3.3978 7.05809 3.38219 6.97063C3.36657 6.88318 3.38622 6.7931 3.43685 6.7201C3.66075 6.45511 3.94087 6.24331 4.25685 6.1001L4.59685 6.6701Z" fill="#802F34"/>
<path id="Vector_9" d="M16.48 7.18676C16.4067 7.23558 16.3173 7.25384 16.2307 7.23766C16.1441 7.22147 16.0673 7.1721 16.0167 7.1001C15.8511 6.92483 15.6515 6.78531 15.43 6.6901C15.4196 6.68568 15.4105 6.67881 15.4033 6.6701L15.7433 6.1001C16.0593 6.24331 16.3394 6.45511 16.5633 6.7201C16.6139 6.7931 16.6336 6.88318 16.618 6.97063C16.6024 7.05809 16.5527 7.1358 16.48 7.18676Z" fill="#802F34"/>
<path id="Vector_10" d="M3.49363 16.9998C3.24639 16.9989 3.00243 16.9432 2.77931 16.8367C2.55619 16.7302 2.35944 16.5756 2.20325 16.3839C2.04705 16.1923 1.93528 15.9684 1.87598 15.7284C1.81667 15.4884 1.81132 15.2382 1.8603 14.9958C2.6783 10.8042 6.01196 7.6665 10.0003 7.6665C13.9886 7.6665 17.3223 10.8042 18.141 14.9958C18.19 15.2382 18.1846 15.4885 18.1252 15.7285C18.0659 15.9686 17.9541 16.1925 17.7978 16.3842C17.6415 16.5758 17.4447 16.7305 17.2215 16.8369C16.9983 16.9434 16.7543 16.999 16.507 16.9998H3.49363Z" fill="#E64C3C"/>
<path id="Vector_11" d="M10.0003 15.6667C11.8413 15.6667 13.3337 14.1743 13.3337 12.3333C13.3337 10.4924 11.8413 9 10.0003 9C8.15938 9 6.66699 10.4924 6.66699 12.3333C6.66699 14.1743 8.15938 15.6667 10.0003 15.6667Z" fill="white"/>
<path id="Vector_12" d="M10 14.3335C11.1046 14.3335 12 13.4381 12 12.3335C12 11.2289 11.1046 10.3335 10 10.3335C8.89543 10.3335 8 11.2289 8 12.3335C8 13.4381 8.89543 14.3335 10 14.3335Z" fill="#FB7B76"/>
</g>
</svg>
