<svg width="17" height="16" viewBox="0 0 17 16" fill="none" xmlns="http://www.w3.org/2000/svg">
<g id="twitter">
<path id="twitter_2" fill-rule="evenodd" clip-rule="evenodd" d="M0 8C0 3.58172 3.73096 0 8.33334 0C12.9357 0 16.6667 3.58172 16.6667 8C16.6667 12.4183 12.9357 16 8.33334 16C3.73096 16 0 12.4183 0 8ZM11.5104 5.75C11.875 5.7 12.1875 5.65 12.5 5.5C12.2917 5.85 11.9792 6.15 11.6146 6.35C11.7188 8.7 9.94792 11.25 6.77084 11.25C5.83333 11.25 4.94792 10.95 4.16667 10.5C5.05208 10.6 5.98958 10.35 6.61459 9.9C5.83333 9.9 5.20833 9.4 5 8.75C5.26042 8.8 5.52084 8.75 5.78125 8.7C5 8.5 4.42708 7.8 4.42708 7.05C4.6875 7.15 4.94792 7.25 5.20833 7.25C4.47917 6.75 4.21875 5.8 4.6875 5.05C5.57292 6.05 6.82292 6.7 8.22917 6.75C7.96875 5.75 8.80209 4.75 9.89584 4.75C10.3646 4.75 10.8333 4.95 11.1458 5.25C11.5625 5.15 11.9271 5.05 12.2396 4.85C12.1354 5.25 11.875 5.55 11.5104 5.75Z" fill="white"/>
</g>
</svg>
