<svg width="20" height="20" viewBox="0 0 20 20" fill="none" xmlns="http://www.w3.org/2000/svg">
<g clip-path="url(#clip0_0_45)">
<path d="M19.531 14.2082V7.06573C19.531 6.12987 18.7723 5.37117 17.8364 5.37117C16.9005 5.37117 16.1419 6.12983 16.1419 7.06573V8.81904L11.5504 4.22762C10.9768 3.65395 10.0467 3.65395 9.47305 4.22762C8.89938 4.80129 8.89938 5.73132 9.47305 6.30499L8.42439 5.25632C7.85072 4.68265 6.92064 4.68265 6.34701 5.25632C5.77334 5.82999 5.77334 6.76007 6.34701 7.3337L6.95416 7.94084C6.38049 7.36721 5.45041 7.36721 4.87678 7.94084C4.30311 8.51451 4.30311 9.44459 4.87678 10.0182L6.37506 11.5165C5.80139 10.9428 4.87131 10.9428 4.29768 11.5165C3.72401 12.0902 3.72401 13.0202 4.29768 13.5939L8.92278 18.219C11.2971 20.5933 15.1465 20.5933 17.5208 18.219L18.1167 17.6231C19.0597 16.6802 19.5311 15.4443 19.5311 14.2084C19.531 14.2084 19.531 14.2083 19.531 14.2082Z" fill="#F6EE86"/>
<path d="M6.59061 11.7326L6.37486 11.5169L5.84076 11.176C5.32064 10.9862 4.71479 11.0996 4.29744 11.5169C3.72377 12.0906 3.72377 13.0206 4.29744 13.5943C4.29744 13.5943 6.13666 15.4335 7.15357 16.4504C6.2242 14.8411 6.03717 12.8447 6.59061 11.7326Z" fill="#FFC559"/>
<path d="M4.87651 10.0183L5.68092 10.8227C5.53674 10.3762 5.18444 8.58256 5.80526 7.51514C5.46678 7.54041 5.13538 7.68205 4.87655 7.94088C4.30288 8.51451 4.30288 9.44459 4.87651 10.0183Z" fill="#FFC559"/>
<path d="M12.3198 9.44501C12.2449 9.44501 12.1699 9.41638 12.1127 9.35919L9.26574 6.51231C9.15133 6.3979 9.15133 6.21239 9.26574 6.09802C9.3802 5.9836 9.56566 5.9836 9.68008 6.09802L12.527 8.94489C12.6414 9.05931 12.6414 9.24481 12.527 9.35923C12.4698 9.41642 12.3948 9.44501 12.3198 9.44501Z" fill="#FFC559"/>
<path d="M10.2758 11.5558C10.2008 11.5558 10.1258 11.5271 10.0686 11.4699L6.7467 8.14806C6.63229 8.03364 6.63229 7.84813 6.7467 7.73376C6.86115 7.61931 7.04662 7.61938 7.16104 7.73376L10.4829 11.0556C10.5973 11.17 10.5973 11.3555 10.4829 11.4699C10.4257 11.5271 10.3508 11.5558 10.2758 11.5558Z" fill="#FFC559"/>
<path d="M8.56619 14.0009C8.49123 14.0009 8.41623 13.9723 8.359 13.9151L6.1676 11.7237C6.05318 11.6093 6.05318 11.4238 6.1676 11.3094C6.28205 11.195 6.46752 11.195 6.58193 11.3094L8.77334 13.5008C8.88775 13.6152 8.88775 13.8007 8.77334 13.9151C8.71615 13.9723 8.64115 14.0009 8.56619 14.0009Z" fill="#FFC559"/>
<path d="M14.1223 4.31899C13.9219 3.4877 13.2512 2.83977 12.4137 2.66841C12.2552 2.63594 12.153 2.48118 12.1854 2.32266C12.2179 2.16411 12.3728 2.06196 12.5312 2.09438C13.5904 2.31114 14.4385 3.13044 14.6919 4.18173C14.7299 4.33899 14.6331 4.49727 14.4758 4.53516C14.3192 4.57294 14.1604 4.47696 14.1223 4.31899Z" fill="white"/>
<path d="M16.2438 4.12091C15.8139 2.33759 14.3752 0.947704 12.5785 0.580047C12.42 0.547625 12.3178 0.392821 12.3502 0.234305C12.3827 0.0757893 12.5373 -0.0264763 12.696 0.00602372C14.7143 0.419032 16.3305 1.98032 16.8134 3.9836C16.8513 4.14091 16.7545 4.29915 16.5972 4.33708C16.4403 4.37493 16.2818 4.2786 16.2438 4.12091Z" fill="white"/>
<path d="M4.65068 17.0603C3.59943 16.8069 2.78009 15.9588 2.56337 14.8996C2.53095 14.7411 2.63314 14.5863 2.79169 14.5539C2.95001 14.5213 3.10498 14.6237 3.13744 14.7822C3.3088 15.6197 3.95669 16.2903 4.78802 16.4907C4.94529 16.5287 5.04208 16.6869 5.00416 16.8442C4.96626 17.0014 4.80806 17.0983 4.65068 17.0603Z" fill="white"/>
<path d="M4.45286 19.1816C2.44958 18.6987 0.888247 17.0825 0.47524 15.0642C0.442818 14.9057 0.545005 14.7509 0.703521 14.7184C0.862193 14.6859 1.01684 14.7882 1.0493 14.9467C1.41696 16.7434 2.80684 18.1821 4.5902 18.612C4.74747 18.6499 4.84426 18.8081 4.80633 18.9654C4.76844 19.1226 4.61024 19.2195 4.45286 19.1816Z" fill="white"/>
<path d="M14.673 15.0274C14.5597 15.0274 14.4519 14.9613 14.404 14.8508C13.785 13.4226 13.8993 11.7787 14.7099 10.4532C14.7943 10.3151 14.9746 10.2716 15.1127 10.3561C15.2507 10.4405 15.2943 10.6208 15.2098 10.7588C14.4986 11.9218 14.3984 13.3644 14.9416 14.6178C15.0059 14.7662 14.9378 14.9388 14.7893 15.0031C14.7514 15.0196 14.7118 15.0274 14.673 15.0274Z" fill="#FFC559"/>
</g>
<defs>
<clipPath id="clip0_0_45">
<rect width="20" height="20" fill="white"/>
</clipPath>
</defs>
</svg>
