<svg width="68" height="38" viewBox="0 0 68 38" fill="none" xmlns="http://www.w3.org/2000/svg">
<path d="M10.8875 31.5972H11.7806V37.9272H10.8875V31.5972Z" fill="white"/>
<path d="M19.3627 32.3839H17.2192V31.5972H22.3906V32.3839H20.247V37.9272H19.3627V32.3839Z" fill="white"/>
<path d="M43.8976 31.5972V37.9272H43.0045V35.1058H39.4141V37.9272H38.521V31.5972H39.4141V34.3191H43.0045V31.5972H43.8976Z" fill="white"/>
<path d="M50.8822 37.2762C50.4178 36.7939 50.1855 36.1005 50.1855 35.1962V31.5972H51.0787V35.1601C51.0787 36.5165 51.665 37.1948 52.8381 37.1948C53.4098 37.1948 53.8474 37.0274 54.151 36.6929C54.4546 36.3583 54.6064 35.8474 54.6064 35.1601V31.5972H55.4728V35.1962C55.4728 36.1066 55.2406 36.8014 54.7762 37.2806C54.3118 37.7598 53.6627 37.9995 52.8292 37.9995C51.9954 37.9996 51.3466 37.7585 50.8822 37.2762Z" fill="white"/>
<path d="M66.833 35.2007C67.0413 35.4691 67.1455 35.8082 67.1455 36.2181C67.1455 36.7668 66.9414 37.1887 66.5337 37.4841C66.1258 37.7796 65.5319 37.9272 64.7519 37.9272H61.7688V31.5972H64.5732C65.2877 31.5972 65.84 31.7419 66.23 32.0312C66.6199 32.3206 66.815 32.7216 66.815 33.234C66.815 33.5655 66.7391 33.852 66.5872 34.093C66.4354 34.3342 66.2315 34.518 65.9755 34.6447C66.3387 34.7472 66.6245 34.9326 66.833 35.2007ZM62.662 32.3297V34.3553H64.493C64.9514 34.3553 65.3042 34.2694 65.5514 34.0976C65.7984 33.9258 65.922 33.6741 65.922 33.3425C65.922 33.011 65.7984 32.7592 65.5514 32.5874C65.3041 32.4156 64.9514 32.3297 64.493 32.3297H62.662ZM65.8595 36.9415C66.1155 36.7729 66.2435 36.5075 66.2435 36.1458C66.2435 35.4404 65.7345 35.0877 64.7164 35.0877H62.6621V37.1948H64.7164C65.2223 37.1948 65.6034 37.1104 65.8595 36.9415Z" fill="white"/>
<path d="M30.286 31.5972H29.4017L26.5706 37.9272H27.4904L29.8394 32.5196L32.1884 37.9272H33.1261L30.286 31.5972Z" fill="white"/>
<path d="M31.9983 37.1372H29.4306L29.0874 37.9275H32.3415L31.9983 37.1372Z" fill="white"/>
<path d="M5.30544 31.5977H4.17105L1.52944 34.1628L0.911621 34.7627L1.52944 35.3626L4.17105 37.9277H5.30544L2.13114 34.7627L5.30544 31.5977Z" fill="white"/>
<path d="M0.893149 31.5981H0V37.9282H0.893149V31.5981Z" fill="white"/>
<path d="M43.3587 9.87888V13.3664C43.5888 13.4934 43.7446 13.7405 43.7446 14.0242C43.7446 14.2713 43.6249 14.4889 43.4424 14.6254L43.7446 16.0738H42.2675L42.5696 14.6254C42.3872 14.489 42.2675 14.2713 42.2675 14.0242C42.2675 13.7405 42.4232 13.4935 42.6533 13.3664V10.2907L40.9067 11.312V19.2612H26.2388V11.312L21.6787 8.64697V20.9002L33.5728 27.8504L45.4668 20.9002V8.64697L43.3587 9.87888ZM30.8662 21.8497L32.1514 20.1612H34.9939L36.2792 21.8497H30.8662Z" fill="white"/>
<path d="M45.4669 6.95196L33.573 0L21.6787 6.95196L33.5728 13.9048L45.4669 6.95196Z" fill="white"/>
</svg>
