<svg width="28" height="29" viewBox="0 0 28 29" fill="none" xmlns="http://www.w3.org/2000/svg">
<g id="fi_3236907">
<path id="Vector" d="M14.0002 3.5874C8.88569 3.5874 4.32281 7.26352 3.25293 12.2694C2.71841 14.7706 3.07849 17.4303 4.27101 19.6936C5.41873 21.8717 7.30033 23.632 9.55153 24.6297C11.8932 25.6676 14.5815 25.8485 17.0427 25.1407C19.4171 24.458 21.5224 22.9598 22.9557 20.9485C25.9525 16.7438 25.5519 10.8374 22.0261 7.06976C19.9597 4.86168 17.0247 3.5874 14.0002 3.5874ZM19.2723 15.1646L16.2763 18.2328C15.5178 19.0098 14.3188 17.8327 15.0743 17.0593L16.586 15.5112H9.42189C8.91313 15.5112 8.48865 15.0864 8.48865 14.578C8.48865 14.0695 8.91341 13.6447 9.42189 13.6447H16.5501L15.0085 12.1033C14.2424 11.3372 15.4301 10.1492 16.1962 10.9153L19.2653 13.9841C19.5907 14.3092 19.5937 14.8356 19.2723 15.1646Z" fill="white"/>
</g>
</svg>
